<svg xmlns="http://www.w3.org/2000/svg" xml:space="preserve" style="fill-rule:evenodd;clip-rule:evenodd"
     viewBox="0 0 842 596"><path d="M0 0h841.89v595.276H0z" style="fill:none"/>
    <clipPath id="a"><path d="M0 0h841.89v595.276H0z"/></clipPath>
    <g clip-path="url(#a)"><path d="M0 0h841.89v595.276H0z" style="fill:#fff"/>
        <path d="M280.63 154.896h491.102v94.11H280.63z" style="fill:#0083ca"/>
        <path d="M280.63 348.792h491.102v36.934H280.63z" style="fill:#79b2e1"/>
        <path d="M280.63 301.561h491.102v36.934H280.63z" style="fill:#052b4a"/>
        <path d="M280.63 396.023h491.102v36.934H280.63z" style="fill:#bad4ef"/>
        <path d="M280.63 443.254h491.102v36.934H280.63z" style="fill:#e0ecf8"/>
        <path d="M280.63 488.55h491.102v36.934H280.63z" style="fill:#fff;stroke:#231f20;stroke-width:.25px"/>
        <path d="M70.746 560.505h.923v-2.877l1.316 2.639h.435l1.316-2.639v2.877h.923v-4.899h-.769l-1.666 3.254-1.667-3.254h-.811zM77.885 560.617c.364 0 .785-.14 1.079-.371l.44.259h.35v-2.477c0-.729-.538-1.218-1.497-1.218-.47 0-.988.098-1.407.224v.797c.419-.147.923-.266 1.28-.266.47 0 .701.203.701.533v.217h-.701c-1.092 0-1.56.511-1.56 1.112 0 .714.454 1.19 1.315 1.19m.112-.783c-.329 0-.49-.175-.49-.406 0-.245.196-.455.686-.455h.638v.623c-.301.154-.603.238-.834.238M80.763 560.505h.951v-2.597c.273-.154.546-.245.763-.245.344 0 .575.245.575.644v2.198h.951v-2.338c0-.826-.497-1.357-1.371-1.357-.414 0-.827.14-1.163.335l-.356-.209h-.35zM86.229 560.631c.385 0 .771-.182 1.079-.455v.329h.881v-3.569h-.951v2.443c-.273.245-.561.399-.771.399-.329 0-.532-.238-.532-.609v-2.233h-.951v2.303c0 .84.468 1.392 1.245 1.392M90.345 560.617c.364 0 .785-.14 1.079-.371l.44.259h.35v-2.477c0-.729-.539-1.218-1.498-1.218-.469 0-.987.098-1.407.224v.797c.42-.147.924-.266 1.281-.266.47 0 .701.203.701.533v.217h-.701c-1.092 0-1.56.511-1.56 1.112 0 .714.454 1.19 1.315 1.19m.112-.783c-.329 0-.49-.175-.49-.406 0-.245.196-.455.686-.455h.638v.623c-.301.154-.603.238-.834.238M94.475 560.582c.189 0 .406-.021.567-.049v-.839c-.14.028-.287.049-.392.049-.301 0-.476-.196-.476-.476v-3.983h-.951v4.081c0 .713.426 1.217 1.252 1.217M97.535 555.606h.979v4.899h-.979zM100.964 560.631c.343 0 .735-.175 1.016-.462v.336h.881v-5.221h-.951v1.841c-.225-.175-.547-.315-.841-.315-.966 0-1.658.741-1.658 1.882 0 1.205.594 1.939 1.553 1.939m.126-.839c-.392 0-.7-.385-.7-1.1 0-.63.343-1.043.749-1.043.238 0 .511.112.771.322v1.394c-.274.266-.568.427-.82.427M105.521 560.631c.455 0 .945-.119 1.302-.294v-.839c-.455.189-.924.308-1.288.308-.476 0-.798-.287-.882-.82h2.366c.028-.14.049-.343.049-.51 0-1.009-.672-1.666-1.638-1.666-1.078 0-1.756.748-1.756 1.896 0 1.17.643 1.925 1.847 1.925m-.868-2.302c.077-.505.343-.778.763-.778.448 0 .729.301.729.778zM107.894 560.505h.952v-2.597c.273-.154.546-.245.763-.245.343 0 .574.245.574.644v2.198h.952v-2.338c0-.826-.497-1.357-1.372-1.357-.413 0-.826.14-1.162.335l-.357-.209h-.35zM113.823 560.575c.315 0 .651-.056.931-.147v-.853c-.294.098-.602.161-.819.161-.364 0-.588-.252-.588-.602v-1.415h1.365v-.783h-1.365v-1.022h-.952v1.022h-.77v.783h.77v1.499c0 .805.504 1.357 1.428 1.357M115.944 556.389a.577.577 0 0 0 .574-.574.586.586 0 0 0-.574-.573.576.576 0 0 0-.574.573c0 .322.252.574.574.574m-.476 4.116h.952v-3.569h-.952zM118.814 560.631c.343 0 .735-.175 1.015-.462v.336h.881v-5.221h-.951v1.841c-.224-.175-.546-.315-.84-.315-.966 0-1.659.741-1.659 1.882 0 1.205.595 1.939 1.554 1.939m.126-.839c-.392 0-.701-.385-.701-1.1 0-.63.344-1.043.75-1.043.238 0 .511.112.77.322v1.394c-.273.266-.567.427-.819.427M122.867 560.617c.364 0 .784-.14 1.078-.371l.441.259h.349v-2.477c0-.729-.538-1.218-1.497-1.218-.469 0-.987.098-1.407.224v.797c.42-.147.924-.266 1.281-.266.469 0 .7.203.7.533v.217h-.7c-1.092 0-1.561.511-1.561 1.112 0 .714.455 1.19 1.316 1.19m.112-.783c-.329 0-.491-.175-.491-.406 0-.245.197-.455.687-.455h.637v.623c-.301.154-.602.238-.833.238M127.088 560.631c.343 0 .735-.175 1.015-.462v.336h.881v-5.221h-.951v1.841c-.224-.175-.546-.315-.84-.315-.966 0-1.659.741-1.659 1.882 0 1.205.595 1.939 1.554 1.939m.126-.839c-.392 0-.701-.385-.701-1.1 0-.63.344-1.043.75-1.043.238 0 .511.112.77.322v1.394c-.273.266-.567.427-.819.427M75.792 156.447c2.7 0 4.57-1.636 4.57-4.337 0-2.538-1.6-4.157-4.138-4.157-.901 0-1.783.342-2.54.881.289-2.322 1.279-3.295 2.648-3.295.9 0 2.178.36 3.401.919v-2.34c-.989-.503-2.285-.845-3.401-.845-3.169 0-5.273 2.356-5.273 7.018 0 3.98 1.798 6.156 4.733 6.156m0-2.266c-1.189 0-1.982-.99-2.144-3.062.775-.558 1.639-.936 2.36-.936 1.08 0 1.801.738 1.801 1.963 0 1.261-.865 2.035-2.017 2.035M83.531 156.411c.972 0 1.655-.684 1.655-1.692 0-.97-.683-1.654-1.655-1.654-1.007 0-1.69.684-1.69 1.655 0 1.007.683 1.691 1.69 1.691M90.805 156.447c2.843 0 4.983-1.672 4.983-4.228 0-1.981-1.259-3.385-3.507-3.655l3.292-4.319v-.684h-8.224v2.23h4.572l-3.582 4.807c.792-.198 1.584-.306 2.214-.306 1.71 0 2.646.756 2.646 1.927 0 1.26-1.062 1.962-2.466 1.962-1.134 0-2.43-.54-3.492-1.188v2.411c.9.593 2.25 1.043 3.564 1.043M97.951 150.203h12.724v2.05H97.951zM71.671 180.159h2.535v-4.248h1.621c2.845 0 4.625-1.529 4.625-4.211 0-2.52-1.69-4.139-4.625-4.139h-4.156zm2.553-6.514v-3.818h1.603c1.279 0 2.036.72 2.036 1.873 0 1.171-.811 1.945-2.108 1.945zM85.097 180.447c.937 0 2.017-.36 2.773-.953l1.133.665h.899v-6.371c0-1.872-1.384-3.131-3.85-3.131-1.207 0-2.539.252-3.618.576v2.051c1.079-.379 2.375-.685 3.293-.685 1.207 0 1.802.523 1.802 1.37v.558h-1.802c-2.807 0-4.012 1.314-4.012 2.861 0 1.836 1.169 3.059 3.382 3.059m.288-2.014c-.846 0-1.261-.45-1.261-1.044 0-.63.505-1.17 1.766-1.17h1.639v1.602c-.775.396-1.549.612-2.144.612M95.716 180.357c.486 0 1.044-.054 1.458-.126v-2.158c-.36.072-.738.126-1.008.126-.774 0-1.224-.504-1.224-1.224v-10.242h-2.445v10.494c0 1.835 1.097 3.13 3.219 3.13M103.152 180.483c1.17 0 2.43-.306 3.347-.755v-2.16c-1.169.487-2.375.793-3.311.793-1.225 0-2.053-.739-2.27-2.108h6.084c.072-.36.126-.881.126-1.313 0-2.593-1.726-4.283-4.21-4.283-2.773 0-4.517 1.924-4.517 4.877 0 3.007 1.654 4.949 4.751 4.949m-2.234-5.92c.198-1.297.883-2 1.964-2 1.152 0 1.873.775 1.873 2zM113.752 180.339a8 8 0 0 0 2.394-.378v-2.194c-.756.252-1.548.414-2.106.414-.936 0-1.512-.648-1.512-1.548v-3.638h3.51v-2.014h-3.51v-2.628h-2.445v2.628h-1.98v2.014h1.98v3.854c0 2.069 1.294 3.49 3.669 3.49M120.827 180.447c.937 0 2.017-.36 2.773-.953l1.133.665h.899v-6.371c0-1.872-1.384-3.131-3.85-3.131-1.207 0-2.539.252-3.618.576v2.051c1.079-.379 2.375-.685 3.293-.685 1.207 0 1.802.523 1.802 1.37v.558h-1.802c-2.807 0-4.012 1.314-4.012 2.861 0 1.836 1.169 3.059 3.382 3.059m.288-2.014c-.846 0-1.261-.45-1.261-1.044 0-.63.505-1.17 1.766-1.17h1.639v1.602c-.775.396-1.549.612-2.144.612M75.448 204.447c.99 0 2.016-.288 2.808-.701v-2.357c-.9.504-1.89.864-2.7.864-1.314 0-2.124-1.062-2.124-2.755 0-1.585.81-2.611 2.124-2.611.81 0 1.8.36 2.7.864v-2.356a6.3 6.3 0 0 0-2.808-.702c-2.897 0-4.533 1.888-4.533 4.805 0 3.025 1.636 4.949 4.533 4.949M80.383 204.159h2.445v-5.238c1.008-.882 2.448-1.458 3.816-1.494v-2.662c-1.584 0-2.97.917-3.888 2.068v-1.852h-2.373zM92.369 204.483c2.773 0 4.607-1.906 4.607-4.985 0-2.935-1.834-4.841-4.607-4.841-2.772 0-4.606 1.906-4.606 4.841 0 3.079 1.834 4.985 4.606 4.985m0-2.158c-1.296 0-2.089-.9-2.089-2.827 0-1.783.793-2.683 2.089-2.683 1.297 0 2.09.9 2.09 2.683 0 1.927-.793 2.827-2.09 2.827M99.067 204.159h2.445v-6.696c.667-.396 1.333-.648 1.874-.648.774 0 1.351.594 1.351 1.602v5.742h2.445v-6.642c.685-.432 1.387-.702 1.874-.702.774 0 1.351.63 1.351 1.602v5.742h2.445v-6.03c0-2.087-1.258-3.472-3.472-3.472-1.135 0-2.234.45-3.007 1.007-.593-.629-1.493-1.007-2.627-1.007-1.045 0-2.053.378-2.845.863l-.935-.539h-.899zM119.262 193.793l3.166-3.348h-2.968l-1.709 2.646zm-.936 10.654c.936 0 2.015-.36 2.771-.953l1.133.665h.9v-6.371c0-1.872-1.384-3.131-3.85-3.131-1.207 0-2.539.252-3.618.576v2.051c1.079-.379 2.375-.685 3.293-.685 1.207 0 1.802.523 1.802 1.37v.558h-1.802c-2.807 0-4.012 1.314-4.012 2.861 0 1.836 1.169 3.059 3.382 3.059zm.287-2.014c-.846 0-1.261-.45-1.261-1.044 0-.63.505-1.17 1.766-1.17h1.639v1.602c-.775.396-1.549.612-2.144.612M130.042 204.339a8 8 0 0 0 2.394-.378v-2.194c-.756.252-1.548.414-2.106.414-.936 0-1.512-.648-1.512-1.548v-3.638h3.51v-2.014h-3.51v-2.628h-2.445v2.628h-1.98v2.014h1.98v3.854c0 2.069 1.294 3.49 3.669 3.49M135.497 193.575c.792 0 1.475-.648 1.475-1.475 0-.791-.683-1.475-1.475-1.475-.827 0-1.474.684-1.474 1.475 0 .827.647 1.475 1.474 1.475m-1.222 10.584h2.445v-9.178h-2.445zM143.38 204.447c.99 0 2.016-.288 2.808-.701v-2.357c-.9.504-1.89.864-2.7.864-1.314 0-2.124-1.062-2.124-2.755 0-1.585.81-2.611 2.124-2.611.81 0 1.8.36 2.7.864v-2.356a6.3 6.3 0 0 0-2.808-.702c-2.897 0-4.533 1.888-4.533 4.805 0 3.025 1.636 4.949 4.533 4.949M151.193 204.447c.937 0 2.017-.36 2.773-.953l1.133.665h.899v-6.371c0-1.872-1.384-3.131-3.85-3.131-1.207 0-2.539.252-3.618.576v2.051c1.079-.379 2.375-.685 3.293-.685 1.207 0 1.802.523 1.802 1.37v.558h-1.802c-2.807 0-4.012 1.314-4.012 2.861 0 1.836 1.169 3.059 3.382 3.059m.288-2.014c-.846 0-1.261-.45-1.261-1.044 0-.63.505-1.17 1.766-1.17h1.639v1.602c-.775.396-1.549.612-2.144.612M75.448 228.447c.99 0 2.016-.288 2.808-.701v-2.357c-.9.504-1.89.864-2.7.864-1.314 0-2.124-1.062-2.124-2.755 0-1.585.81-2.611 2.124-2.611.81 0 1.8.36 2.7.864v-2.356a6.3 6.3 0 0 0-2.808-.702c-2.897 0-4.533 1.888-4.533 4.805 0 3.025 1.636 4.949 4.533 4.949M84.413 228.483c2.773 0 4.607-1.906 4.607-4.985 0-2.935-1.834-4.841-4.607-4.841-2.772 0-4.607 1.906-4.607 4.841 0 3.079 1.835 4.985 4.607 4.985m0-2.158c-1.296 0-2.089-.9-2.089-2.827 0-1.783.793-2.683 2.089-2.683 1.297 0 2.089.9 2.089 2.683 0 1.927-.792 2.827-2.089 2.827M91.11 228.159h2.446v-5.238c1.008-.882 2.448-1.458 3.816-1.494v-2.662c-1.584 0-2.97.917-3.888 2.068v-1.852H91.11zM99.066 232.155h2.448v-4.409a3.42 3.42 0 0 0 2.123.737c2.519 0 4.301-1.87 4.301-4.985 0-2.989-1.764-4.841-4.085-4.841-.918 0-1.817.468-2.519 1.115v-.791h-2.268zm4.283-5.83c-.63 0-1.259-.288-1.835-.756v-3.816c.648-.56 1.331-.938 1.943-.938 1.079 0 1.961.99 1.961 2.683 0 1.837-.936 2.827-2.069 2.827M114.275 228.483c2.772 0 4.607-1.906 4.607-4.985 0-2.935-1.835-4.841-4.607-4.841s-4.607 1.906-4.607 4.841c0 3.079 1.834 4.985 4.607 4.985m0-2.158c-1.297 0-2.089-.9-2.089-2.827 0-1.783.792-2.683 2.089-2.683s2.089.9 2.089 2.683c0 1.927-.793 2.827-2.089 2.827M120.972 228.159h2.445v-5.238c1.008-.882 2.448-1.458 3.816-1.494v-2.662c-1.584 0-2.97.917-3.888 2.068v-1.852h-2.373zM131.626 228.447c.937 0 2.017-.36 2.773-.953l1.133.665h.899v-6.371c0-1.872-1.384-3.131-3.85-3.131-1.207 0-2.539.252-3.618.576v2.051c1.079-.379 2.375-.685 3.293-.685 1.207 0 1.802.523 1.802 1.37v.558h-1.802c-2.808 0-4.012 1.314-4.012 2.861 0 1.836 1.168 3.059 3.382 3.059m.288-2.014c-.846 0-1.261-.45-1.261-1.044 0-.63.505-1.17 1.765-1.17h1.64v1.602c-.775.396-1.549.612-2.144.612M143.343 228.339a8 8 0 0 0 2.394-.378v-2.194c-.756.252-1.548.414-2.106.414-.936 0-1.512-.648-1.512-1.548v-3.638h3.51v-2.014h-3.51v-2.628h-2.446v2.628h-1.98v2.014h1.98v3.854c0 2.069 1.295 3.49 3.67 3.49M148.798 217.575c.791 0 1.475-.648 1.475-1.475 0-.791-.684-1.475-1.475-1.475-.827 0-1.475.684-1.475 1.475a1.46 1.46 0 0 0 1.475 1.475m-1.223 10.584h2.446v-9.178h-2.446zM155.548 228.159h1.224l4.157-9.178h-2.628l-2.141 5.183-2.07-5.183h-2.699zM164.997 228.447c.937 0 2.018-.36 2.774-.953l1.132.665h.9v-6.371c0-1.872-1.385-3.131-3.851-3.131-1.207 0-2.539.252-3.618.576v2.051c1.079-.379 2.375-.685 3.294-.685 1.206 0 1.801.523 1.801 1.37v.558h-1.801c-2.808 0-4.013 1.314-4.013 2.861 0 1.836 1.169 3.059 3.382 3.059m.288-2.014c-.846 0-1.26-.45-1.26-1.044 0-.63.504-1.17 1.765-1.17h1.639v1.602c-.775.396-1.549.612-2.144.612M73.568 264.339c1.56 0 2.549-.938 2.549-2.488v-4.59h-.899v4.55c0 1.07-.65 1.67-1.65 1.67-1.001 0-1.651-.6-1.651-1.67v-4.55h-.899v4.59c0 1.55.989 2.488 2.55 2.488M77.778 264.159h.839v-3.92c.44-.25 1-.46 1.421-.46.64 0 1.06.46 1.06 1.14v3.24h.839v-3.38c0-1.079-.699-1.778-1.759-1.778-.571 0-1.171.209-1.611.469l-.529-.309h-.26zM84.937 264.339c.5 0 1.091-.199 1.511-.499l.529.319h.26v-3.519c0-.98-.639-1.639-1.84-1.639-.55 0-1.28.169-1.79.369v.84c.55-.24 1.22-.451 1.69-.451.701 0 1.101.371 1.101.981v.431h-.991c-1.5 0-2.169.698-2.169 1.558 0 .922.579 1.61 1.699 1.61m.06-.758c-.55 0-.91-.361-.91-.851 0-.47.43-.881 1.43-.881h.881v1.261c-.45.271-.971.471-1.401.471M91.458 266.399h.84v-2.609c.35.3.879.549 1.369.549 1.36 0 2.23-.998 2.23-2.719 0-1.66-.88-2.639-2.15-2.639-.52 0-1.099.299-1.489.669v-.489h-.8zm2.169-2.838c-.43 0-.939-.27-1.329-.62v-2.48c.43-.411.929-.702 1.369-.702.73 0 1.35.661 1.35 1.861 0 1.26-.62 1.941-1.39 1.941M98.657 264.339c.5 0 1.091-.199 1.511-.499l.529.319h.26v-3.519c0-.98-.64-1.639-1.84-1.639-.55 0-1.28.169-1.79.369v.84c.55-.24 1.22-.451 1.69-.451.701 0 1.101.371 1.101.981v.431h-.991c-1.5 0-2.169.698-2.169 1.558 0 .922.579 1.61 1.699 1.61m.06-.758c-.55 0-.91-.361-.91-.851 0-.47.43-.881 1.43-.881h.881v1.261c-.45.271-.971.471-1.401.471M103.896 264.229c.201 0 .421-.019.6-.069v-.779c-.18.04-.37.07-.52.07-.37 0-.62-.29-.62-.8v-5.97h-.838v6.01c0 .949.479 1.538 1.378 1.538M107.607 264.319c.59 0 1.29-.209 1.72-.479v-.83c-.539.301-1.17.531-1.7.531-.84 0-1.421-.631-1.491-1.692h3.44c.03-.179.05-.399.05-.588 0-1.331-.838-2.28-2.079-2.28-1.411 0-2.269 1.059-2.269 2.659 0 1.641.878 2.679 2.329 2.679m-1.451-3.148c.11-.931.591-1.432 1.371-1.432.77 0 1.241.581 1.241 1.432zM112.836 264.239c.43 0 .93-.109 1.31-.269v-.799c-.42.17-.9.29-1.23.29-.49 0-.83-.37-.83-.881v-2.661h1.92v-.758h-1.92v-1.32h-.838v1.32h-1v.758h1v2.721c0 .931.559 1.599 1.588 1.599M116.627 264.339c.5 0 1.09-.199 1.51-.499l.53.319h.259v-3.519c0-.98-.639-1.639-1.839-1.639-.55 0-1.281.169-1.79.369v.84c.549-.24 1.22-.451 1.69-.451.7 0 1.1.371 1.1.981v.431h-.99c-1.501 0-2.17.698-2.17 1.558 0 .922.58 1.61 1.7 1.61m.06-.758c-.551 0-.911-.361-.911-.851 0-.47.43-.881 1.431-.881h.88v1.261c-.45.271-.97.471-1.4.471M124.987 264.339c.51 0 1.13-.279 1.52-.688v.508h.799v-7.478h-.839v2.849c-.37-.32-.9-.549-1.38-.549-1.361 0-2.22 1.018-2.22 2.638 0 1.682.799 2.72 2.12 2.72m.08-.778c-.761 0-1.321-.701-1.321-1.941 0-1.16.59-1.861 1.361-1.861.41 0 .95.251 1.36.611v2.46c-.43.431-.96.731-1.4.731M130.937 264.319c.59 0 1.29-.209 1.719-.479v-.83c-.539.301-1.169.531-1.699.531-.841 0-1.421-.631-1.491-1.692h3.44c.03-.179.05-.399.05-.588 0-1.331-.839-2.28-2.079-2.28-1.411 0-2.27 1.059-2.27 2.659 0 1.641.879 2.679 2.33 2.679m-1.451-3.148c.11-.931.59-1.432 1.371-1.432.77 0 1.24.581 1.24 1.432zM138.826 264.319c.54 0 1.16-.189 1.58-.459v-.879c-.48.3-1.08.56-1.58.56-.83 0-1.35-.721-1.35-1.921 0-1.15.52-1.841 1.35-1.841.47 0 1.1.261 1.58.561v-.88a3.1 3.1 0 0 0-1.56-.459c-1.44 0-2.249.989-2.249 2.619 0 1.681.799 2.699 2.229 2.699M143.696 264.339c1.441 0 2.33-1.018 2.33-2.719 0-1.64-.889-2.639-2.33-2.639-1.44 0-2.329.999-2.329 2.639 0 1.701.889 2.719 2.329 2.719m0-.778c-.9 0-1.45-.681-1.45-1.941 0-1.2.55-1.861 1.45-1.861.901 0 1.451.661 1.451 1.861 0 1.26-.55 1.941-1.451 1.941M148.706 264.229c.2 0 .42-.019.6-.069v-.779c-.18.04-.37.07-.52.07-.37 0-.62-.29-.62-.8v-5.97h-.839v6.01c0 .949.479 1.538 1.379 1.538M152.416 264.339c1.441 0 2.33-1.018 2.33-2.719 0-1.64-.889-2.639-2.33-2.639-1.44 0-2.329.999-2.329 2.639 0 1.701.889 2.719 2.329 2.719m0-.778c-.9 0-1.45-.681-1.45-1.941 0-1.2.55-1.861 1.45-1.861.901 0 1.451.661 1.451 1.861 0 1.26-.55 1.941-1.451 1.941M156.047 264.159h.839v-3.02c.55-.64 1.4-1.1 2.26-1.1v-.938c-.96 0-1.81.569-2.28 1.258v-1.198h-.819zM162.787 266.399h.84v-2.609c.35.3.879.549 1.369.549 1.359 0 2.229-.998 2.229-2.719 0-1.66-.88-2.639-2.149-2.639-.52 0-1.099.299-1.489.669v-.489h-.8zm2.169-2.838c-.43 0-.939-.27-1.329-.62v-2.48c.43-.411.929-.702 1.369-.702.73 0 1.349.661 1.349 1.861 0 1.26-.619 1.941-1.389 1.941M169.986 264.339c.5 0 1.09-.199 1.511-.499l.529.319h.259v-3.519c0-.98-.639-1.639-1.839-1.639-.55 0-1.281.169-1.79.369v.84c.549-.24 1.22-.451 1.69-.451.7 0 1.101.371 1.101.981v.431h-.991c-1.5 0-2.169.698-2.169 1.558 0 .922.579 1.61 1.699 1.61m.06-.758c-.55 0-.911-.361-.911-.851 0-.47.431-.881 1.431-.881h.881v1.261c-.451.271-.971.471-1.401.471M173.847 264.159h.838v-3.02c.55-.64 1.4-1.1 2.26-1.1v-.938c-.96 0-1.81.569-2.28 1.258v-1.198h-.818zM179.266 264.339c.5 0 1.09-.199 1.51-.499l.53.319h.259v-3.519c0-.98-.639-1.639-1.839-1.639-.55 0-1.281.169-1.79.369v.84c.549-.24 1.22-.451 1.69-.451.7 0 1.1.371 1.1.981v.431h-.99c-1.501 0-2.17.698-2.17 1.558 0 .922.58 1.61 1.7 1.61m.06-.758c-.551 0-.911-.361-.911-.851 0-.47.43-.881 1.431-.881h.88v1.261c-.45.271-.97.471-1.4.471M187.436 264.339c.55 0 1.17-.299 1.57-.708v.528h.799v-4.998h-.839v3.62c-.48.48-1.02.78-1.43.78-.571 0-.951-.46-.951-1.14v-3.26h-.839v3.34c0 1.1.59 1.838 1.69 1.838M192.856 264.299c1.2 0 1.959-.619 1.959-1.559s-.659-1.28-1.599-1.53c-.611-.16-1.211-.3-1.211-.78 0-.34.3-.651.961-.651.45 0 1.07.181 1.639.431v-.84a4.4 4.4 0 0 0-1.639-.349c-1.161 0-1.78.659-1.78 1.429 0 1.08.839 1.29 1.66 1.51.62.17 1.13.32 1.13.82 0 .441-.42.751-1.14.751-.441 0-1.111-.2-1.63-.44v.859c.45.21 1.049.349 1.65.349M198.186 264.339c1.44 0 2.329-1.018 2.329-2.719 0-1.64-.889-2.639-2.329-2.639s-2.33.999-2.33 2.639c0 1.701.889 2.719 2.33 2.719m0-.778c-.901 0-1.451-.681-1.451-1.941 0-1.2.55-1.861 1.451-1.861.9 0 1.45.661 1.45 1.861 0 1.26-.55 1.941-1.45 1.941M203.265 264.299c1.201 0 1.96-.619 1.96-1.559s-.659-1.28-1.599-1.53c-.611-.16-1.211-.3-1.211-.78 0-.34.3-.651.96-.651.451 0 1.071.181 1.64.431v-.84a4.4 4.4 0 0 0-1.64-.349c-1.16 0-1.779.659-1.779 1.429 0 1.08.839 1.29 1.659 1.51.621.17 1.131.32 1.131.82 0 .441-.42.751-1.141.751-.44 0-1.11-.2-1.629-.44v.859c.449.21 1.049.349 1.649.349M72.407 276.299c1.201 0 1.96-.619 1.96-1.559s-.659-1.28-1.599-1.53c-.611-.16-1.211-.3-1.211-.78 0-.34.3-.651.96-.651.451 0 1.071.181 1.64.431v-.84a4.4 4.4 0 0 0-1.64-.349c-1.16 0-1.779.659-1.779 1.429 0 1.08.839 1.29 1.659 1.51.621.17 1.131.32 1.131.82 0 .441-.42.751-1.141.751-.44 0-1.11-.2-1.629-.44v.859c.449.21 1.049.349 1.649.349M77.738 276.319c.59 0 1.29-.209 1.719-.479v-.83c-.539.301-1.169.531-1.699.531-.841 0-1.421-.631-1.491-1.692h3.44c.03-.179.05-.399.05-.588 0-1.331-.839-2.28-2.08-2.28-1.41 0-2.269 1.059-2.269 2.659 0 1.641.879 2.679 2.33 2.679m-1.451-3.148c.11-.931.59-1.432 1.37-1.432.771 0 1.241.581 1.241 1.432zM82.967 276.319c.54 0 1.16-.189 1.58-.459v-.879c-.48.3-1.08.56-1.58.56-.83 0-1.35-.721-1.35-1.921 0-1.15.52-1.841 1.35-1.841.47 0 1.1.261 1.58.561v-.88a3.1 3.1 0 0 0-1.56-.459c-1.44 0-2.249.989-2.249 2.619 0 1.681.799 2.699 2.229 2.699M87.457 276.339c.55 0 1.171-.299 1.571-.708v.528h.799v-4.998h-.839v3.62c-.48.48-1.021.78-1.431.78-.57 0-.95-.46-.95-1.14v-3.26h-.839v3.34c0 1.1.589 1.838 1.689 1.838M91.428 276.159h.839v-3.92c.44-.25 1-.46 1.42-.46.641 0 1.061.46 1.061 1.14v3.24h.839v-3.38c0-1.079-.699-1.778-1.76-1.778-.57 0-1.17.209-1.61.469l-.529-.309h-.26zM98.987 276.339c.51 0 1.131-.279 1.521-.688v.508h.799v-7.478h-.839v2.849c-.37-.32-.901-.549-1.381-.549-1.36 0-2.219 1.018-2.219 2.638 0 1.682.799 2.72 2.119 2.72m.08-.778c-.76 0-1.32-.701-1.32-1.941 0-1.16.59-1.861 1.36-1.861.41 0 .951.251 1.361.611v2.46c-.43.431-.961.731-1.401.731M104.347 276.339c.5 0 1.091-.199 1.511-.499l.529.319h.26v-3.519c0-.98-.639-1.639-1.84-1.639-.55 0-1.28.169-1.79.369v.84c.55-.24 1.22-.451 1.69-.451.701 0 1.101.371 1.101.981v.431h-.991c-1.5 0-2.169.698-2.169 1.558 0 .922.579 1.61 1.699 1.61m.06-.758c-.55 0-.91-.361-.91-.851 0-.47.43-.881 1.43-.881h.881v1.261c-.45.271-.971.471-1.401.471M108.208 276.159h.839v-3.02c.55-.64 1.4-1.1 2.26-1.1v-.938c-.96 0-1.81.569-2.28 1.258v-1.198h-.819zM112.757 270.279a.59.59 0 0 0 .59-.589c0-.32-.27-.589-.59-.589a.59.59 0 0 0 0 1.178m-.419 5.88h.839v-4.998h-.839zM116.857 276.339c1.441 0 2.329-1.018 2.329-2.719 0-1.64-.888-2.639-2.329-2.639s-2.329.999-2.329 2.639c0 1.701.888 2.719 2.329 2.719m0-.778c-.9 0-1.451-.681-1.451-1.941 0-1.2.551-1.861 1.451-1.861s1.451.661 1.451 1.861c0 1.26-.551 1.941-1.451 1.941M121.937 276.299c1.201 0 1.959-.619 1.959-1.559s-.659-1.28-1.599-1.53c-.61-.16-1.211-.3-1.211-.78 0-.34.301-.651.961-.651.45 0 1.071.181 1.64.431v-.84a4.4 4.4 0 0 0-1.64-.349c-1.16 0-1.779.659-1.779 1.429 0 1.08.838 1.29 1.659 1.51.62.17 1.131.32 1.131.82 0 .441-.421.751-1.141.751-.44 0-1.11-.2-1.629-.44v.859c.449.21 1.049.349 1.649.349M129.826 276.319c.54 0 1.16-.189 1.58-.459v-.879c-.48.3-1.08.56-1.58.56-.83 0-1.35-.721-1.35-1.921 0-1.15.52-1.841 1.35-1.841.47 0 1.1.261 1.58.561v-.88a3.1 3.1 0 0 0-1.56-.459c-1.44 0-2.248.989-2.248 2.619 0 1.681.799 2.699 2.228 2.699M134.697 276.339c1.441 0 2.329-1.018 2.329-2.719 0-1.64-.888-2.639-2.329-2.639s-2.329.999-2.329 2.639c0 1.701.888 2.719 2.329 2.719m0-.778c-.9 0-1.451-.681-1.451-1.941 0-1.2.551-1.861 1.451-1.861s1.451.661 1.451 1.861c0 1.26-.551 1.941-1.451 1.941M138.328 276.159h.838v-3.02c.55-.64 1.4-1.1 2.26-1.1v-.938c-.96 0-1.81.569-2.28 1.258v-1.198h-.818zM142.408 278.399h.84v-2.609c.349.3.879.549 1.369.549 1.359 0 2.229-.998 2.229-2.719 0-1.66-.88-2.639-2.149-2.639-.52 0-1.1.299-1.489.669v-.489h-.8zm2.169-2.838c-.43 0-.94-.27-1.329-.62v-2.48c.429-.411.929-.702 1.369-.702.73 0 1.349.661 1.349 1.861 0 1.26-.619 1.941-1.389 1.941M150.277 276.339c1.44 0 2.329-1.018 2.329-2.719 0-1.64-.889-2.639-2.329-2.639s-2.33.999-2.33 2.639c0 1.701.889 2.719 2.33 2.719m0-.778c-.901 0-1.451-.681-1.451-1.941 0-1.2.55-1.861 1.451-1.861.9 0 1.45.661 1.45 1.861 0 1.26-.55 1.941-1.45 1.941M153.907 276.159h.839v-3.02c.55-.64 1.4-1.1 2.26-1.1v-.938c-.96 0-1.81.569-2.28 1.258v-1.198h-.819zM159.327 276.339c.5 0 1.09-.199 1.51-.499l.53.319h.259v-3.519c0-.98-.639-1.639-1.839-1.639-.55 0-1.281.169-1.79.369v.84c.549-.24 1.22-.451 1.69-.451.7 0 1.1.371 1.1.981v.431h-.99c-1.501 0-2.17.698-2.17 1.558 0 .922.58 1.61 1.7 1.61m.06-.758c-.551 0-.911-.361-.911-.851 0-.47.43-.881 1.431-.881h.88v1.261c-.45.271-.97.471-1.4.471M165.116 276.239c.43 0 .93-.109 1.31-.269v-.799c-.42.17-.9.29-1.23.29-.49 0-.83-.37-.83-.881v-2.661h1.92v-.758h-1.92v-1.32h-.839v1.32h-1v.758h1v2.721c0 .931.56 1.599 1.589 1.599M167.937 270.279a.59.59 0 0 0 .589-.589c0-.32-.27-.589-.589-.589a.59.59 0 0 0 0 1.178m-.42 5.88h.839v-4.998h-.839zM171.557 276.259h.34l2.289-5.098h-.91l-1.549 3.569-1.51-3.569h-.95zM177.077 276.339c1.44 0 2.329-1.018 2.329-2.719 0-1.64-.889-2.639-2.329-2.639s-2.33.999-2.33 2.639c0 1.701.889 2.719 2.33 2.719m0-.778c-.901 0-1.451-.681-1.451-1.941 0-1.2.55-1.861 1.451-1.861.9 0 1.45.661 1.45 1.861 0 1.26-.55 1.941-1.45 1.941M182.156 276.299c1.201 0 1.96-.619 1.96-1.559s-.659-1.28-1.599-1.53c-.611-.16-1.211-.3-1.211-.78 0-.34.3-.651.961-.651.45 0 1.07.181 1.639.431v-.84a4.4 4.4 0 0 0-1.639-.349c-1.161 0-1.78.659-1.78 1.429 0 1.08.839 1.29 1.659 1.51.621.17 1.131.32 1.131.82 0 .441-.42.751-1.141.751-.44 0-1.11-.2-1.629-.44v.859c.449.21 1.049.349 1.649.349M185.846 276.259c.37 0 .67-.299.67-.689a.67.67 0 0 0-.67-.669.674.674 0 0 0-.689.669c0 .39.3.689.689.689"
              style="fill:#0083ca;fill-rule:nonzero"/>
        <path d="M295.528 180.319a4 4 0 0 0 2.3-.768v-1.05c-.76.57-1.6.96-2.3.96-1.24 0-2.08-1.061-2.08-2.801 0-1.68.88-2.701 2.08-2.701.7 0 1.54.391 2.3.961v-1.05a4 4 0 0 0-2.3-.769c-1.87 0-3.039 1.419-3.039 3.559 0 2.201 1.129 3.659 3.039 3.659M299.249 180.159h.859v-4.989l2.32 4.75h.301l2.32-4.76v4.999h.859v-6.898h-.799l-2.52 5.139-2.521-5.139h-.819zM309.309 180.159h.899V177.2l2.42-3.939h-1.02l-1.859 3.039-1.84-3.039h-1.06l2.46 3.989zM313.569 180.159h.899v-3.309l3.12 3.309h1.2l-3.36-3.559 3.28-3.339h-1.16l-2.92 2.969h-.16v-2.969h-.899zM323.729 180.159h.879v-6.998h-.26l-2.599 1.499v.93l1.98-1.159zM328.638 180.299c1.531 0 2.49-1.188 2.49-3.639 0-2.35-.959-3.539-2.49-3.539-1.53 0-2.489 1.189-2.489 3.539 0 2.451.959 3.639 2.489 3.639m0-.818c-.92 0-1.57-.85-1.57-2.821 0-1.88.65-2.721 1.57-2.721.921 0 1.571.841 1.571 2.721 0 1.971-.65 2.821-1.571 2.821M334.778 180.299c1.531 0 2.49-1.188 2.49-3.639 0-2.35-.959-3.539-2.49-3.539-1.53 0-2.489 1.189-2.489 3.539 0 2.451.959 3.639 2.489 3.639m0-.818c-.92 0-1.57-.85-1.57-2.821 0-1.88.65-2.721 1.57-2.721.921 0 1.571.841 1.571 2.721 0 1.971-.65 2.821-1.571 2.821M342.739 180.319c1.54 0 2.489-.858 2.489-2.219 0-1.2-.809-1.979-2.069-2.009l2.029-2.571v-.259h-4.239v.798h2.86l-2.24 2.891c.37-.09.77-.151 1.05-.151 1.06 0 1.69.521 1.69 1.301 0 .86-.69 1.401-1.59 1.401-.52 0-1.22-.26-1.81-.681v.94c.46.3 1.14.559 1.83.559M348.049 180.319c1.52 0 2.529-.878 2.529-2.329 0-1.361-.889-2.219-2.329-2.219-.3 0-.62.06-.94.159l.13-1.851h2.899v-.818h-3.679l-.27 3.829c.59-.29 1.26-.501 1.72-.501.98 0 1.55.541 1.55 1.401 0 .93-.7 1.511-1.63 1.511-.52 0-1.18-.29-1.76-.721v.95c.44.33 1.13.589 1.78.589M356.788 180.299c1.531 0 2.49-1.188 2.49-3.639 0-2.35-.959-3.539-2.49-3.539-1.53 0-2.489 1.189-2.489 3.539 0 2.451.959 3.639 2.489 3.639m0-.818c-.92 0-1.57-.85-1.57-2.821 0-1.88.65-2.721 1.57-2.721.921 0 1.571.841 1.571 2.721 0 1.971-.65 2.821-1.571 2.821M365.588 180.299c1.531 0 2.49-1.188 2.49-3.639 0-2.35-.959-3.539-2.49-3.539-1.53 0-2.489 1.189-2.489 3.539 0 2.451.959 3.639 2.489 3.639m0-.818c-.92 0-1.57-.85-1.57-2.821 0-1.88.65-2.721 1.57-2.721.921 0 1.571.841 1.571 2.721 0 1.971-.65 2.821-1.571 2.821M292.889 192.159h.899v-2.92h.22l2.571 2.92h1.169l-2.649-2.93c1.3-.069 2.119-.808 2.119-1.999 0-1.24-.879-1.969-2.33-1.969h-1.999zm.899-3.678v-2.402h1.06c.891 0 1.431.451 1.431 1.171 0 .74-.6 1.231-1.471 1.231zM301.569 192.339c1.92 0 3.129-1.289 3.129-3.119q0-.345-.06-.629h-3.09l.271.838h1.93c-.11 1.291-.98 2.052-2.18 2.052-1.291 0-2.161-1.071-2.161-2.8 0-1.631 1-2.722 2.431-2.722.6 0 1.52.351 2.37.881v-1.04c-.68-.4-1.6-.699-2.37-.699-2.051 0-3.39 1.429-3.39 3.58 0 2.249 1.199 3.658 3.12 3.658M306.119 192.159h2.39c1.34 0 2.189-.738 2.189-2.019 0-.77-.41-1.36-1.189-1.65.559-.309.889-.81.889-1.46 0-1.11-.779-1.769-2.109-1.769h-2.17zm.899-3.978v-2.122h1.21c.801 0 1.251.401 1.251 1.011 0 .66-.51 1.111-1.15 1.111zm0 3.18v-2.382h1.351c.88 0 1.39.461 1.39 1.161 0 .74-.55 1.221-1.33 1.221zM316.908 192.299c1.531 0 2.49-1.188 2.49-3.639 0-2.35-.959-3.539-2.49-3.539-1.53 0-2.489 1.189-2.489 3.539 0 2.451.959 3.639 2.489 3.639m0-.818c-.92 0-1.57-.85-1.57-2.821 0-1.88.65-2.721 1.57-2.721.921 0 1.571.841 1.571 2.721 0 1.971-.65 2.821-1.571 2.821M324.919 192.159h.879v-6.998h-.26l-2.599 1.499v.93l1.98-1.159zM327.099 192.159h4.559v-.798h-3.149l1.76-1.971c.759-.86 1.149-1.51 1.149-2.31 0-1.18-.859-1.979-2.039-1.979-.78 0-1.58.449-2.14.999v1.06c.72-.69 1.54-1.221 2.1-1.221.67 0 1.16.471 1.16 1.141 0 .58-.4 1.2-1.03 1.95l-2.37 2.79zM334.229 192.319c1.54 0 2.489-.858 2.489-2.219 0-1.2-.809-1.979-2.069-2.009l2.029-2.571v-.259h-4.239v.798h2.86l-2.24 2.891c.37-.09.77-.151 1.05-.151 1.06 0 1.69.521 1.69 1.301 0 .86-.69 1.401-1.59 1.401-.52 0-1.22-.26-1.81-.681v.94c.46.3 1.14.559 1.83.559M342.139 192.159h.879v-6.998h-.26l-2.599 1.499v.93l1.98-1.159zM346.338 192.299c1.571 0 2.7-1.018 2.7-3.818 0-2.321-.909-3.38-2.38-3.38-1.36 0-2.259.999-2.259 2.239 0 1.321.819 2.159 2.049 2.159.571 0 1.211-.239 1.681-.649-.08 1.95-.83 2.631-1.831 2.631-.43 0-1-.16-1.459-.371v.86c.379.17.939.329 1.499.329m.15-3.598c-.71 0-1.19-.511-1.19-1.381 0-.76.54-1.401 1.38-1.401.761 0 1.361.621 1.441 2.061-.51.441-1.11.721-1.631.721M352.538 192.319c1.451 0 2.4-.978 2.4-2.309 0-1.35-.809-2.209-2.099-2.209-.621 0-1.281.299-1.731.669.11-1.75.77-2.531 1.691-2.531.49 0 1.14.201 1.729.511v-.89c-.489-.25-1.119-.439-1.729-.439-1.561 0-2.6 1.239-2.6 3.889 0 2.151.909 3.309 2.339 3.309m.02-.818c-.77 0-1.37-.681-1.45-2.181.48-.41 1.09-.721 1.631-.721.79 0 1.3.551 1.3 1.431 0 .83-.63 1.471-1.481 1.471M292.809 204.159h.74l.62-1.92h1.669l-.619 1.92h.739l.62-1.92h1.52v-.678h-1.3l.56-1.722h1.42v-.678h-1.2l.62-1.9h-.74l-.62 1.9h-1.669l.619-1.9h-.739l-.62 1.9h-1.52v.678h1.3l-.56 1.722h-1.42v.678h1.2zm1.58-2.598.56-1.722h1.669l-.56 1.722zM302.108 204.299c1.531 0 2.49-1.188 2.49-3.639 0-2.35-.959-3.539-2.49-3.539-1.53 0-2.489 1.189-2.489 3.539 0 2.451.959 3.639 2.489 3.639m0-.818c-.92 0-1.57-.85-1.57-2.821 0-1.88.65-2.721 1.57-2.721.921 0 1.571.841 1.571 2.721 0 1.971-.65 2.821-1.571 2.821M308.248 204.299c1.531 0 2.49-1.188 2.49-3.639 0-2.35-.959-3.539-2.49-3.539-1.53 0-2.489 1.189-2.489 3.539 0 2.451.959 3.639 2.489 3.639m0-.818c-.92 0-1.57-.85-1.57-2.821 0-1.88.65-2.721 1.57-2.721.921 0 1.571.841 1.571 2.721 0 1.971-.65 2.821-1.571 2.821M312.319 204.159h.95l3.019-6.599v-.299h-5.009v.818h3.849zM319.468 204.339c1.391 0 2.24-1.018 2.24-2.719 0-1.64-.869-2.639-2.159-2.639-.491 0-1.051.269-1.441.619v-2.919h-.839v7.478h.26l.539-.319c.36.3.88.499 1.4.499m-.04-.778c-.41 0-.93-.24-1.32-.56v-2.551c.41-.39.93-.691 1.34-.691.771 0 1.381.691 1.381 1.861 0 1.23-.61 1.941-1.401 1.941M325.038 204.319c.54 0 1.16-.189 1.58-.459v-.879c-.48.3-1.08.56-1.58.56-.83 0-1.35-.721-1.35-1.921 0-1.15.52-1.841 1.35-1.841.47 0 1.1.261 1.58.561v-.88a3.1 3.1 0 0 0-1.56-.459c-1.44 0-2.249.989-2.249 2.619 0 1.681.799 2.699 2.229 2.699M330.965 204.159h.842v-1.66h1.1v-.758h-1.1v-4.48h-.521l-3.991 4.939v.299h3.68zm-2.34-2.418 2.36-2.91-.01 2.91zM292.889 216.159h.899v-2.58h1.03c1.461 0 2.4-.798 2.4-2.189 0-1.34-.919-2.129-2.42-2.129h-1.909zm.899-3.398v-2.682h.97c.941 0 1.521.501 1.521 1.311 0 .84-.56 1.371-1.501 1.371zM299.738 216.339c.501 0 1.091-.199 1.511-.499l.529.319h.26v-3.519c0-.98-.639-1.639-1.839-1.639-.551 0-1.281.169-1.79.369v.84c.549-.24 1.219-.451 1.69-.451.7 0 1.1.371 1.1.981v.431h-.99c-1.501 0-2.17.698-2.17 1.558 0 .922.579 1.61 1.699 1.61m.06-.758c-.55 0-.91-.361-.91-.851 0-.47.43-.881 1.431-.881h.88v1.261c-.45.271-.97.471-1.401.471M303.599 216.159h.839v-3.92c.44-.25 1-.46 1.421-.46.64 0 1.06.46 1.06 1.14v3.24h.839v-3.38c0-1.079-.699-1.778-1.759-1.778-.571 0-1.171.209-1.611.469l-.529-.309h-.26zM311.248 216.239c.43 0 .93-.109 1.31-.269v-.799c-.42.17-.9.29-1.23.29-.49 0-.83-.37-.83-.881v-2.661h1.92v-.758h-1.92v-1.32h-.839v1.32h-1v.758h1v2.721c0 .931.559 1.599 1.589 1.599M315.548 216.339c1.441 0 2.33-1.018 2.33-2.719 0-1.64-.889-2.639-2.33-2.639-1.44 0-2.329.999-2.329 2.639 0 1.701.889 2.719 2.329 2.719m0-.778c-.9 0-1.45-.681-1.45-1.941 0-1.2.55-1.861 1.45-1.861.901 0 1.451.661 1.451 1.861 0 1.26-.55 1.941-1.451 1.941M319.179 216.159h.839v-3.92c.44-.25 1-.46 1.421-.46.64 0 1.06.46 1.06 1.14v3.24h.839v-3.38c0-1.079-.699-1.778-1.759-1.778-.571 0-1.171.209-1.611.469l-.529-.309h-.26zM326.929 216.319c.59 0 1.29-.209 1.719-.479v-.83c-.539.301-1.169.531-1.699.531-.841 0-1.421-.631-1.491-1.692h3.44c.03-.179.05-.399.05-.588 0-1.331-.839-2.28-2.079-2.28-1.411 0-2.27 1.059-2.27 2.659 0 1.641.879 2.679 2.33 2.679m-1.451-3.148c.11-.931.59-1.432 1.371-1.432.77 0 1.24.581 1.24 1.432zM333.249 216.159h.95l3.019-6.599v-.299h-5.009v.818h3.849zM340.785 216.159h.842v-1.66h1.1v-.758h-1.1v-4.48h-.521l-3.991 4.939v.299h3.68zm-2.34-2.418 2.36-2.91-.01 2.91zM345.908 216.319c1.451 0 2.4-.978 2.4-2.309 0-1.35-.809-2.209-2.099-2.209-.621 0-1.281.299-1.731.669.11-1.75.77-2.531 1.691-2.531.49 0 1.14.201 1.729.511v-.89c-.489-.25-1.119-.439-1.729-.439-1.561 0-2.6 1.239-2.6 3.889 0 2.151.909 3.309 2.339 3.309m.02-.818c-.77 0-1.37-.681-1.45-2.181.48-.41 1.09-.721 1.631-.721.79 0 1.3.551 1.3 1.431 0 .83-.63 1.471-1.481 1.471M351.009 216.159h.879v-6.998h-.26l-2.599 1.499v.93l1.98-1.159zM359.068 216.319a4 4 0 0 0 2.3-.768v-1.05c-.76.57-1.6.96-2.3.96-1.24 0-2.08-1.061-2.08-2.801 0-1.68.88-2.701 2.08-2.701.7 0 1.54.391 2.3.961v-1.05a4 4 0 0 0-2.3-.769c-1.87 0-3.039 1.419-3.039 3.559 0 2.201 1.129 3.659 3.039 3.659M292.889 228.159h.899v-2.92h.22l2.571 2.92h1.169l-2.649-2.93c1.3-.069 2.119-.808 2.119-1.999 0-1.24-.879-1.969-2.33-1.969h-1.999zm.899-3.678v-2.402h1.06c.891 0 1.431.451 1.431 1.171 0 .74-.6 1.231-1.471 1.231zM298.069 228.159h.95l.68-1.69h3.089l.67 1.69h.99l-2.9-6.898h-.579zm1.96-2.508 1.219-3.03 1.21 3.03zM305.509 228.159h4.379l-.28-.838h-3.2v-6.06h-.899zM315.069 228.319c1.52 0 2.529-.878 2.529-2.329 0-1.361-.889-2.219-2.329-2.219-.3 0-.62.06-.94.159l.13-1.851h2.899v-.818h-3.679l-.27 3.829c.59-.29 1.26-.501 1.72-.501.98 0 1.55.541 1.55 1.401 0 .93-.7 1.511-1.63 1.511-.52 0-1.18-.29-1.76-.721v.95c.44.33 1.13.589 1.78.589M321.148 228.299c1.531 0 2.49-1.188 2.49-3.639 0-2.35-.959-3.539-2.49-3.539-1.53 0-2.489 1.189-2.489 3.539 0 2.451.959 3.639 2.489 3.639m0-.818c-.92 0-1.57-.85-1.57-2.821 0-1.88.65-2.721 1.57-2.721.921 0 1.571.841 1.571 2.721 0 1.971-.65 2.821-1.571 2.821M326.499 228.159h.879v-6.998h-.26l-2.599 1.499v.93l1.98-1.159zM330.679 228.319c1.52 0 2.529-.878 2.529-2.329 0-1.361-.889-2.219-2.329-2.219-.3 0-.62.06-.94.159l.13-1.851h2.899v-.818h-3.679l-.27 3.829c.59-.29 1.26-.501 1.72-.501.98 0 1.55.541 1.55 1.401 0 .93-.7 1.511-1.63 1.511-.52 0-1.18-.29-1.76-.721v.95c.44.33 1.13.589 1.78.589"
              style="fill:#fff;fill-rule:nonzero"/>
        <path d="M284.189 144.319a4 4 0 0 0 2.3-.768v-1.05c-.76.57-1.6.96-2.3.96-1.24 0-2.08-1.061-2.08-2.801 0-1.68.88-2.701 2.08-2.701.7 0 1.54.391 2.3.961v-1.05a4 4 0 0 0-2.3-.769c-1.87 0-3.038 1.419-3.038 3.559 0 2.201 1.128 3.659 3.038 3.659M289.82 144.339c1.441 0 2.329-1.018 2.329-2.719 0-1.64-.888-2.639-2.329-2.639s-2.329.999-2.329 2.639c0 1.701.888 2.719 2.329 2.719m0-.778c-.9 0-1.451-.681-1.451-1.941 0-1.2.551-1.861 1.451-1.861s1.451.661 1.451 1.861c0 1.26-.551 1.941-1.451 1.941M294.829 144.229c.201 0 .42-.019.6-.069v-.779c-.18.04-.37.07-.52.07-.37 0-.62-.29-.62-.8v-5.97h-.838v6.01c0 .949.479 1.538 1.378 1.538M298.54 144.339c1.441 0 2.329-1.018 2.329-2.719 0-1.64-.888-2.639-2.329-2.639s-2.329.999-2.329 2.639c0 1.701.888 2.719 2.329 2.719m0-.778c-.9 0-1.451-.681-1.451-1.941 0-1.2.551-1.861 1.451-1.861s1.451.661 1.451 1.861c0 1.26-.551 1.941-1.451 1.941M302.171 144.159h.838v-3.02c.55-.64 1.4-1.1 2.26-1.1v-.938c-.96 0-1.81.569-2.28 1.258v-1.198h-.818zM308.911 146.399h.84v-2.609c.349.3.879.549 1.369.549 1.359 0 2.229-.998 2.229-2.719 0-1.66-.88-2.639-2.149-2.639-.52 0-1.1.299-1.489.669v-.489h-.8zm2.169-2.838c-.43 0-.94-.27-1.329-.62v-2.48c.429-.411.929-.702 1.369-.702.73 0 1.349.661 1.349 1.861 0 1.26-.619 1.941-1.389 1.941M314.671 144.159h.838v-3.02c.55-.64 1.4-1.1 2.26-1.1v-.938c-.96 0-1.81.569-2.28 1.258v-1.198h-.818zM319.22 138.279a.59.59 0 0 0 .589-.589.596.596 0 0 0-.589-.589.59.59 0 0 0 0 1.178m-.419 5.88h.838v-4.998h-.838zM321.291 144.159h.838v-3.92c.44-.25 1.001-.46 1.421-.46.64 0 1.061.46 1.061 1.14v3.24h.838v-3.38c0-1.079-.699-1.778-1.759-1.778-.57 0-1.171.209-1.611.469l-.529-.309h-.259zM328.939 144.319c.54 0 1.16-.189 1.58-.459v-.879c-.48.3-1.08.56-1.58.56-.83 0-1.35-.721-1.35-1.921 0-1.15.52-1.841 1.35-1.841.47 0 1.1.261 1.58.561v-.88a3.1 3.1 0 0 0-1.56-.459c-1.44 0-2.248.989-2.248 2.619 0 1.681.798 2.699 2.228 2.699M332.25 138.279a.59.59 0 0 0 .589-.589.596.596 0 0 0-.589-.589.59.59 0 0 0 0 1.178m-.419 5.88h.838v-4.998h-.838zM334.321 146.399h.84v-2.609c.349.3.879.549 1.369.549 1.359 0 2.229-.998 2.229-2.719 0-1.66-.88-2.639-2.149-2.639-.52 0-1.1.299-1.489.669v-.489h-.8zm2.169-2.838c-.43 0-.94-.27-1.329-.62v-2.48c.429-.411.929-.702 1.369-.702.73 0 1.349.661 1.349 1.861 0 1.26-.619 1.941-1.389 1.941M341.52 144.339c.5 0 1.09-.199 1.51-.499l.53.319h.259v-3.519c0-.98-.639-1.639-1.839-1.639-.55 0-1.281.169-1.79.369v.84c.549-.24 1.22-.451 1.69-.451.7 0 1.101.371 1.101.981v.431h-.991c-1.5 0-2.169.698-2.169 1.558 0 .922.579 1.61 1.699 1.61m.06-.758c-.551 0-.911-.361-.911-.851 0-.47.431-.881 1.431-.881h.881v1.261c-.451.271-.971.471-1.401.471M346.759 144.229c.201 0 .42-.019.6-.069v-.779c-.18.04-.37.07-.52.07-.37 0-.62-.29-.62-.8v-5.97h-.838v6.01c0 .949.479 1.538 1.378 1.538M281.551 288.159h.898v-2.58h1.031c1.461 0 2.399-.798 2.399-2.189 0-1.34-.919-2.129-2.419-2.129h-1.909zm.898-3.398v-2.682h.971c.94 0 1.521.501 1.521 1.311 0 .84-.561 1.371-1.501 1.371zM288.4 288.339c.5 0 1.09-.199 1.51-.499l.53.319h.259v-3.519c0-.98-.639-1.639-1.839-1.639-.55 0-1.281.169-1.79.369v.84c.549-.24 1.22-.451 1.69-.451.7 0 1.101.371 1.101.981v.431h-.991c-1.5 0-2.169.698-2.169 1.558 0 .922.579 1.61 1.699 1.61m.06-.758c-.551 0-.911-.361-.911-.851 0-.47.431-.881 1.431-.881h.881v1.261c-.451.271-.971.471-1.401.471M293.639 288.229c.201 0 .42-.019.6-.069v-.779c-.18.04-.37.07-.52.07-.37 0-.62-.29-.62-.8v-5.97h-.838v6.01c0 .949.479 1.538 1.378 1.538M297.35 288.319c.59 0 1.29-.209 1.72-.479v-.83c-.54.301-1.17.531-1.7.531-.84 0-1.421-.631-1.491-1.692h3.44c.03-.179.05-.399.05-.588 0-1.331-.839-2.28-2.079-2.28-1.411 0-2.269 1.059-2.269 2.659 0 1.641.878 2.679 2.329 2.679m-1.451-3.148c.11-.931.591-1.432 1.371-1.432.77 0 1.241.581 1.241 1.432zM302.579 288.239c.43 0 .93-.109 1.31-.269v-.799c-.42.17-.9.29-1.23.29-.49 0-.83-.37-.83-.881v-2.661h1.92v-.758h-1.92v-1.32h-.838v1.32h-1v.758h1v2.721c0 .931.559 1.599 1.588 1.599M306.37 288.339c.5 0 1.09-.199 1.51-.499l.53.319h.259v-3.519c0-.98-.639-1.639-1.839-1.639-.55 0-1.281.169-1.79.369v.84c.549-.24 1.22-.451 1.69-.451.7 0 1.101.371 1.101.981v.431h-.991c-1.5 0-2.169.698-2.169 1.558 0 .922.579 1.61 1.699 1.61m.06-.758c-.551 0-.911-.361-.911-.851 0-.47.431-.881 1.431-.881h.881v1.261c-.451.271-.971.471-1.401.471M314.34 288.299c1.2 0 1.959-.619 1.959-1.559s-.659-1.28-1.599-1.53c-.61-.16-1.211-.3-1.211-.78 0-.34.3-.651.961-.651.45 0 1.07.181 1.64.431v-.84a4.4 4.4 0 0 0-1.64-.349c-1.16 0-1.779.659-1.779 1.429 0 1.08.838 1.29 1.659 1.51.62.17 1.131.32 1.131.82 0 .441-.421.751-1.141.751-.44 0-1.11-.2-1.63-.44v.859c.45.21 1.049.349 1.65.349M319.67 288.319c.59 0 1.29-.209 1.72-.479v-.83c-.54.301-1.17.531-1.7.531-.84 0-1.421-.631-1.491-1.692h3.44c.03-.179.05-.399.05-.588 0-1.331-.839-2.28-2.079-2.28-1.411 0-2.269 1.059-2.269 2.659 0 1.641.878 2.679 2.329 2.679m-1.451-3.148c.11-.931.591-1.432 1.371-1.432.77 0 1.241.581 1.241 1.432zM324.899 288.319c.54 0 1.16-.189 1.58-.459v-.879c-.48.3-1.08.56-1.58.56-.83 0-1.35-.721-1.35-1.921 0-1.15.52-1.841 1.35-1.841.47 0 1.1.261 1.58.561v-.88a3.1 3.1 0 0 0-1.56-.459c-1.44 0-2.248.989-2.248 2.619 0 1.681.798 2.699 2.228 2.699M329.39 288.339c.55 0 1.17-.299 1.571-.708v.528h.798v-4.998h-.838v3.62c-.481.48-1.021.78-1.431.78-.571 0-.951-.46-.951-1.14v-3.26h-.838v3.34c0 1.1.589 1.838 1.689 1.838M333.361 288.159h.838v-3.92c.44-.25 1.001-.46 1.421-.46.64 0 1.061.46 1.061 1.14v3.24h.838v-3.38c0-1.079-.699-1.778-1.759-1.778-.57 0-1.171.209-1.611.469l-.529-.309h-.259zM340.92 288.339c.51 0 1.13-.279 1.521-.688v.508h.798v-7.478h-.838v2.849c-.371-.32-.901-.549-1.381-.549-1.361 0-2.219 1.018-2.219 2.638 0 1.682.798 2.72 2.119 2.72m.08-.778c-.76 0-1.321-.701-1.321-1.941 0-1.16.591-1.861 1.361-1.861.41 0 .95.251 1.361.611v2.46c-.431.431-.961.731-1.401.731M346.28 288.339c.5 0 1.09-.199 1.51-.499l.53.319h.259v-3.519c0-.98-.639-1.639-1.839-1.639-.55 0-1.281.169-1.79.369v.84c.549-.24 1.22-.451 1.69-.451.7 0 1.101.371 1.101.981v.431h-.991c-1.5 0-2.169.698-2.169 1.558 0 .922.579 1.61 1.699 1.61m.06-.758c-.551 0-.911-.361-.911-.851 0-.47.431-.881 1.431-.881h.881v1.261c-.451.271-.971.471-1.401.471M350.141 288.159h.838v-3.02c.55-.64 1.4-1.1 2.26-1.1v-.938c-.96 0-1.81.569-2.28 1.258v-1.198h-.818zM354.69 282.279a.59.59 0 0 0 .589-.589.596.596 0 0 0-.589-.589.59.59 0 0 0 0 1.178m-.419 5.88h.838v-4.998h-.838zM358.2 288.339c.5 0 1.09-.199 1.51-.499l.53.319h.259v-3.519c0-.98-.639-1.639-1.839-1.639-.55 0-1.281.169-1.79.369v.84c.549-.24 1.22-.451 1.69-.451.7 0 1.101.371 1.101.981v.431h-.991c-1.5 0-2.169.698-2.169 1.558 0 .922.579 1.61 1.699 1.61m.06-.758c-.551 0-.911-.361-.911-.851 0-.47.431-.881 1.431-.881h.881v1.261c-.451.271-.971.471-1.401.471"
              style="fill:#0083ca;fill-rule:nonzero"/>
        <path d="M299.978 370.841c1.52 0 2.529-.879 2.529-2.329 0-1.361-.889-2.22-2.329-2.22-.3 0-.62.06-.94.16l.13-1.851h2.9v-.819h-3.68l-.27 3.829c.59-.29 1.26-.5 1.72-.5.98 0 1.55.54 1.55 1.401 0 .93-.7 1.51-1.63 1.51-.52 0-1.18-.29-1.76-.72v.95c.44.329 1.13.589 1.78.589M306.058 370.821c1.53 0 2.489-1.189 2.489-3.639 0-2.351-.959-3.54-2.489-3.54-1.531 0-2.49 1.189-2.49 3.54 0 2.45.959 3.639 2.49 3.639m0-.819c-.921 0-1.571-.85-1.571-2.82 0-1.881.65-2.721 1.571-2.721s1.57.84 1.57 2.721c0 1.97-.65 2.82-1.57 2.82M310.948 367.591c.899 0 1.499-.669 1.499-1.959 0-1.191-.6-1.9-1.499-1.9s-1.5.689-1.5 1.88c0 1.29.6 1.979 1.5 1.979m.12 3.09h.899l3.681-6.899h-.9zm-.12-3.729c-.46 0-.78-.41-.78-1.34 0-.841.32-1.241.78-1.241.459 0 .779.42.779 1.261 0 .93-.32 1.32-.779 1.32m4.82 3.789c.899 0 1.499-.669 1.499-1.959 0-1.191-.6-1.9-1.499-1.9s-1.5.689-1.5 1.88c0 1.29.6 1.979 1.5 1.979m0-.639c-.46 0-.78-.41-.78-1.34 0-.841.32-1.241.78-1.241.459 0 .779.42.779 1.261 0 .93-.32 1.32-.779 1.32M321.168 370.681h.899v-2.58h1.03c1.461 0 2.4-.799 2.4-2.189 0-1.341-.919-2.13-2.42-2.13h-1.909zm.899-3.399v-2.681h.97c.941 0 1.521.5 1.521 1.311 0 .84-.56 1.37-1.501 1.37zM328.017 370.861c.501 0 1.091-.2 1.511-.499l.529.319h.26v-3.519c0-.981-.639-1.64-1.839-1.64-.551 0-1.281.17-1.79.37v.839c.549-.24 1.219-.45 1.69-.45.7 0 1.1.37 1.1.981v.43h-.99c-1.501 0-2.17.699-2.17 1.559 0 .921.579 1.61 1.699 1.61m.06-.759c-.55 0-.91-.36-.91-.85 0-.471.43-.881 1.431-.881h.88v1.261c-.45.27-.97.47-1.401.47M331.878 370.681h.839v-3.92c.44-.25 1-.46 1.421-.46.64 0 1.06.46 1.06 1.14v3.24h.839v-3.38c0-1.08-.699-1.779-1.759-1.779-.571 0-1.171.21-1.611.47l-.529-.31h-.26zM339.527 370.761c.43 0 .93-.11 1.31-.269v-.8c-.42.17-.9.29-1.23.29-.49 0-.83-.37-.83-.88v-2.661h1.92v-.759h-1.92v-1.32h-.839v1.32h-1v.759h1v2.721c0 .93.559 1.599 1.589 1.599M343.827 370.861c1.441 0 2.33-1.019 2.33-2.719 0-1.641-.889-2.64-2.33-2.64-1.44 0-2.329.999-2.329 2.64 0 1.7.889 2.719 2.329 2.719m0-.779c-.9 0-1.45-.68-1.45-1.94 0-1.201.55-1.861 1.45-1.861.901 0 1.451.66 1.451 1.861 0 1.26-.55 1.94-1.451 1.94M347.458 370.681h.839v-3.92c.44-.25 1-.46 1.42-.46.641 0 1.061.46 1.061 1.14v3.24h.839v-3.38c0-1.08-.699-1.779-1.76-1.779-.57 0-1.17.21-1.61.47l-.53-.31h-.259zM355.207 370.841c.591 0 1.291-.21 1.72-.479v-.83c-.539.3-1.17.53-1.7.53-.84 0-1.42-.63-1.49-1.691h3.44c.03-.18.05-.399.05-.589 0-1.331-.839-2.28-2.08-2.28-1.41 0-2.269 1.059-2.269 2.659 0 1.641.879 2.68 2.329 2.68m-1.45-3.149c.11-.93.59-1.431 1.37-1.431.771 0 1.241.581 1.241 1.431zM361.527 370.681h.95l3.019-6.599v-.3h-5.008v.819h3.849zM369.064 370.681h.841v-1.66h1.1v-.759h-1.1v-4.48h-.521l-3.99 4.94v.299h3.68zm-2.34-2.419 2.36-2.91-.01 2.91zM374.187 370.841c1.451 0 2.399-.979 2.399-2.309 0-1.351-.809-2.21-2.099-2.21-.62 0-1.28.3-1.731.669.11-1.749.771-2.53 1.691-2.53.49 0 1.141.2 1.73.51v-.889c-.489-.25-1.12-.44-1.73-.44-1.561 0-2.599 1.239-2.599 3.889 0 2.151.908 3.31 2.339 3.31m.02-.819c-.77 0-1.371-.68-1.451-2.181.481-.41 1.091-.72 1.631-.72.79 0 1.301.55 1.301 1.431 0 .83-.631 1.47-1.481 1.47M379.287 370.681h.879v-6.999h-.259l-2.6 1.5v.93l1.98-1.16zM384.686 370.841c.81 0 1.67-.299 2.3-.769v-1.05c-.76.57-1.6.96-2.3.96-1.24 0-2.08-1.06-2.08-2.8 0-1.681.88-2.701 2.08-2.701.7 0 1.54.39 2.3.96v-1.05a4 4 0 0 0-2.3-.769c-1.87 0-3.039 1.419-3.039 3.56 0 2.2 1.129 3.659 3.039 3.659M301.197 324.319a4 4 0 0 0 2.3-.768v-1.05c-.76.57-1.6.96-2.3.96-1.24 0-2.08-1.061-2.08-2.801 0-1.68.88-2.701 2.08-2.701.7 0 1.54.391 2.3.961v-1.05a4 4 0 0 0-2.3-.769c-1.87 0-3.039 1.419-3.039 3.559 0 2.201 1.129 3.659 3.039 3.659M304.918 324.159h.859v-4.989l2.321 4.75h.3l2.32-4.76v4.999h.859v-6.898h-.799l-2.52 5.139-2.521-5.139h-.819zM314.978 324.159h.899V321.2l2.42-3.939h-1.02l-1.859 3.039-1.84-3.039h-1.06l2.46 3.989zM319.238 324.159h.899v-3.309l3.12 3.309h1.2l-3.36-3.559 3.28-3.339h-1.16l-2.92 2.969h-.16v-2.969h-.899zM329.398 324.159h.879v-6.998h-.26l-2.599 1.499v.93l1.98-1.159zM334.307 324.299c1.531 0 2.49-1.188 2.49-3.639 0-2.35-.959-3.539-2.49-3.539-1.53 0-2.489 1.189-2.489 3.539 0 2.451.959 3.639 2.489 3.639m0-.818c-.92 0-1.57-.85-1.57-2.821 0-1.88.65-2.721 1.57-2.721.921 0 1.571.841 1.571 2.721 0 1.971-.65 2.821-1.571 2.821M340.447 324.299c1.531 0 2.49-1.188 2.49-3.639 0-2.35-.959-3.539-2.49-3.539-1.53 0-2.489 1.189-2.489 3.539 0 2.451.959 3.639 2.489 3.639m0-.818c-.92 0-1.57-.85-1.57-2.821 0-1.88.65-2.721 1.57-2.721.921 0 1.571.841 1.571 2.721 0 1.971-.65 2.821-1.571 2.821M349.147 324.339c1.391 0 2.39-.818 2.39-2.138 0-.71-.43-1.34-1.149-1.69.569-.32.929-.881.929-1.531 0-1.091-.839-1.899-2.17-1.899s-2.169.808-2.169 1.899c0 .65.359 1.211.929 1.531-.72.35-1.149.98-1.149 1.69 0 1.32.999 2.138 2.389 2.138m0-4.168c-.74 0-1.28-.491-1.28-1.171 0-.66.48-1.121 1.28-1.121.801 0 1.281.461 1.281 1.121 0 .68-.54 1.171-1.281 1.171m0 3.35c-.89 0-1.49-.5-1.49-1.32 0-.69.54-1.23 1.49-1.23.951 0 1.491.54 1.491 1.23 0 .82-.6 1.32-1.491 1.32M355.187 324.299c1.531 0 2.49-1.188 2.49-3.639 0-2.35-.959-3.539-2.49-3.539-1.53 0-2.489 1.189-2.489 3.539 0 2.451.959 3.639 2.489 3.639m0-.818c-.92 0-1.57-.85-1.57-2.821 0-1.88.65-2.721 1.57-2.721.921 0 1.571.841 1.571 2.721 0 1.971-.65 2.821-1.571 2.821M364.804 324.159h.842v-1.66h1.1v-.758h-1.1v-4.48h-.522l-3.99 4.939v.299h3.68zm-2.34-2.418 2.36-2.91-.01 2.91zM369.348 324.319c1.52 0 2.528-.878 2.528-2.329 0-1.361-.888-2.219-2.328-2.219-.3 0-.62.06-.94.159l.13-1.851h2.899v-.818h-3.679l-.27 3.829c.59-.29 1.26-.501 1.72-.501.98 0 1.55.541 1.55 1.401 0 .93-.7 1.511-1.63 1.511-.52 0-1.18-.29-1.76-.721v.95c.44.33 1.13.589 1.78.589M378.903 324.159h.842v-1.66h1.1v-.758h-1.1v-4.48h-.521l-3.991 4.939v.299h3.68zm-2.34-2.418 2.36-2.91-.01 2.91zM383.447 324.319c1.52 0 2.529-.878 2.529-2.329 0-1.361-.889-2.219-2.329-2.219-.3 0-.62.06-.94.159l.13-1.851h2.9v-.818h-3.68l-.27 3.829c.59-.29 1.26-.501 1.72-.501.98 0 1.55.541 1.55 1.401 0 .93-.7 1.511-1.63 1.511-.52 0-1.18-.29-1.76-.721v.95c.44.33 1.13.589 1.78.589M390.137 316.541h.799v9.16h-.799zM395.537 324.159h.899v-2.92h.22l2.571 2.92h1.169l-2.649-2.93c1.3-.069 2.119-.808 2.119-1.999 0-1.24-.879-1.969-2.329-1.969h-2zm.899-3.678v-2.402h1.061c.89 0 1.43.451 1.43 1.171 0 .74-.6 1.231-1.47 1.231zM404.217 324.339c1.92 0 3.129-1.289 3.129-3.119q0-.345-.06-.629h-3.089l.27.838h1.93c-.11 1.291-.98 2.052-2.18 2.052-1.291 0-2.161-1.071-2.161-2.8 0-1.631 1-2.722 2.431-2.722.6 0 1.52.351 2.37.881v-1.04c-.68-.4-1.6-.699-2.37-.699-2.051 0-3.39 1.429-3.39 3.58 0 2.249 1.199 3.658 3.12 3.658M408.767 324.159h2.39c1.34 0 2.189-.738 2.189-2.019 0-.77-.41-1.36-1.189-1.65.559-.309.889-.81.889-1.46 0-1.11-.779-1.769-2.109-1.769h-2.17zm.899-3.978v-2.122h1.211c.8 0 1.25.401 1.25 1.011 0 .66-.51 1.111-1.15 1.111zm0 3.18v-2.382h1.351c.88 0 1.39.461 1.39 1.161 0 .74-.55 1.221-1.33 1.221zM419.556 324.299c1.531 0 2.49-1.188 2.49-3.639 0-2.35-.959-3.539-2.49-3.539-1.53 0-2.489 1.189-2.489 3.539 0 2.451.959 3.639 2.489 3.639m0-.818c-.92 0-1.57-.85-1.57-2.821 0-1.88.65-2.721 1.57-2.721.921 0 1.571.841 1.571 2.721 0 1.971-.65 2.821-1.571 2.821M429.173 324.159h.842v-1.66h1.1v-.758h-1.1v-4.48h-.521l-3.991 4.939v.299h3.68zm-2.34-2.418 2.36-2.91-.01 2.91zM433.707 324.319c1.54 0 2.489-.858 2.489-2.219 0-1.2-.809-1.979-2.069-2.009l2.029-2.571v-.259h-4.239v.798h2.86l-2.24 2.891c.37-.09.77-.151 1.05-.151 1.06 0 1.69.521 1.69 1.301 0 .86-.69 1.401-1.59 1.401-.52 0-1.22-.26-1.81-.681v.94c.46.3 1.14.559 1.83.559M440.497 324.159h.949l3.02-6.599v-.299h-5.009v.818h3.849zM448.033 324.159h.842v-1.66h1.1v-.758h-1.1v-4.48h-.522l-3.99 4.939v.299h3.68zm-2.34-2.418 2.36-2.91-.01 2.91zM453.917 316.541h.799v9.16h-.799zM459.236 324.159h.74l.62-1.92h1.67l-.62 1.92h.74l.62-1.92h1.519v-.678h-1.299l.56-1.722h1.419v-.678h-1.199l.619-1.9h-.739l-.62 1.9h-1.67l.62-1.9h-.74l-.62 1.9h-1.52v.678h1.3l-.56 1.722h-1.419v.678h1.199zm1.58-2.598.56-1.722h1.67l-.56 1.722zM468.536 324.299c1.53 0 2.489-1.188 2.489-3.639 0-2.35-.959-3.539-2.489-3.539-1.531 0-2.489 1.189-2.489 3.539 0 2.451.958 3.639 2.489 3.639m0-.818c-.92 0-1.571-.85-1.571-2.821 0-1.88.651-2.721 1.571-2.721s1.571.841 1.571 2.721c0 1.971-.651 2.821-1.571 2.821M474.676 324.299c1.53 0 2.489-1.188 2.489-3.639 0-2.35-.959-3.539-2.489-3.539-1.531 0-2.49 1.189-2.49 3.539 0 2.451.959 3.639 2.49 3.639m0-.818c-.921 0-1.571-.85-1.571-2.821 0-1.88.65-2.721 1.571-2.721s1.57.841 1.57 2.721c0 1.971-.65 2.821-1.57 2.821M478.086 324.159h4.559v-.798h-3.149l1.76-1.971c.76-.86 1.149-1.51 1.149-2.31 0-1.18-.859-1.979-2.039-1.979-.78 0-1.58.449-2.14.999v1.06c.72-.69 1.54-1.221 2.1-1.221.67 0 1.16.471 1.16 1.141 0 .58-.4 1.2-1.03 1.95l-2.37 2.79zM485.986 324.339c1.39 0 2.239-1.018 2.239-2.719 0-1.64-.869-2.639-2.159-2.639-.491 0-1.051.269-1.441.619v-2.919h-.839v7.478h.26l.539-.319c.36.3.88.499 1.401.499m-.04-.778c-.411 0-.931-.24-1.321-.56v-2.551c.41-.39.93-.691 1.341-.691.77 0 1.38.691 1.38 1.861 0 1.23-.61 1.941-1.4 1.941M492.772 324.159h.842v-1.66h1.1v-.758h-1.1v-4.48h-.521l-3.991 4.939v.299h3.68zm-2.34-2.418 2.36-2.91-.01 2.91zM497.455 324.339c.501 0 1.091-.199 1.511-.499l.529.319h.26v-3.519c0-.98-.639-1.639-1.839-1.639-.551 0-1.281.169-1.79.369v.84c.549-.24 1.219-.451 1.69-.451.7 0 1.1.371 1.1.981v.431h-.99c-1.501 0-2.17.698-2.17 1.558 0 .922.579 1.61 1.699 1.61m.06-.758c-.55 0-.91-.361-.91-.851 0-.47.43-.881 1.431-.881h.88v1.261c-.45.271-.97.471-1.401.471M504.196 316.541h.799v9.16h-.799zM509.596 324.159h.899v-2.58h1.03c1.461 0 2.4-.798 2.4-2.189 0-1.34-.919-2.129-2.42-2.129h-1.909zm.899-3.398v-2.682h.97c.941 0 1.521.501 1.521 1.311 0 .84-.56 1.371-1.501 1.371zM516.445 324.339c.5 0 1.091-.199 1.511-.499l.529.319h.26v-3.519c0-.98-.639-1.639-1.84-1.639-.55 0-1.28.169-1.79.369v.84c.55-.24 1.22-.451 1.69-.451.701 0 1.101.371 1.101.981v.431h-.991c-1.5 0-2.169.698-2.169 1.558 0 .922.579 1.61 1.699 1.61m.06-.758c-.55 0-.91-.361-.91-.851 0-.47.43-.881 1.43-.881h.881v1.261c-.45.271-.971.471-1.401.471M520.306 324.159h.839v-3.92c.44-.25 1-.46 1.42-.46.641 0 1.061.46 1.061 1.14v3.24h.839v-3.38c0-1.079-.699-1.778-1.76-1.778-.57 0-1.17.209-1.61.469l-.53-.309h-.259zM527.954 324.239c.43 0 .93-.109 1.31-.269v-.799c-.42.17-.9.29-1.23.29-.49 0-.83-.37-.83-.881v-2.661h1.92v-.758h-1.92v-1.32h-.838v1.32h-1v.758h1v2.721c0 .931.559 1.599 1.588 1.599M532.255 324.339c1.441 0 2.329-1.018 2.329-2.719 0-1.64-.888-2.639-2.329-2.639s-2.329.999-2.329 2.639c0 1.701.888 2.719 2.329 2.719m0-.778c-.9 0-1.451-.681-1.451-1.941 0-1.2.551-1.861 1.451-1.861s1.451.661 1.451 1.861c0 1.26-.551 1.941-1.451 1.941M535.886 324.159h.838v-3.92c.441-.25 1.001-.46 1.421-.46.64 0 1.061.46 1.061 1.14v3.24h.838v-3.38c0-1.079-.699-1.778-1.759-1.778-.57 0-1.171.209-1.611.469l-.529-.309h-.259zM543.635 324.319c.59 0 1.29-.209 1.72-.479v-.83c-.54.301-1.17.531-1.7.531-.84 0-1.421-.631-1.491-1.692h3.44c.03-.179.05-.399.05-.588 0-1.331-.839-2.28-2.079-2.28-1.411 0-2.27 1.059-2.27 2.659 0 1.641.879 2.679 2.33 2.679m-1.451-3.148c.11-.931.591-1.432 1.371-1.432.77 0 1.24.581 1.24 1.432zM549.955 324.159h.95l3.019-6.599v-.299h-5.009v.818h3.849zM557.491 324.159h.842v-1.66h1.1v-.758h-1.1v-4.48h-.521l-3.991 4.939v.299h3.68zm-2.34-2.418 2.36-2.91-.01 2.91zM562.615 324.319c1.45 0 2.399-.978 2.399-2.309 0-1.35-.809-2.209-2.099-2.209-.621 0-1.281.299-1.731.669.11-1.75.77-2.531 1.691-2.531.49 0 1.14.201 1.73.511v-.89c-.49-.25-1.12-.439-1.73-.439-1.561 0-2.6 1.239-2.6 3.889 0 2.151.909 3.309 2.34 3.309m.02-.818c-.771 0-1.371-.681-1.451-2.181.48-.41 1.09-.721 1.631-.721.79 0 1.3.551 1.3 1.431 0 .83-.63 1.471-1.48 1.471M567.665 324.319c1.54 0 2.489-.858 2.489-2.219 0-1.2-.809-1.979-2.069-2.009l2.029-2.571v-.259h-4.239v.798h2.86l-2.24 2.891c.37-.09.77-.151 1.05-.151 1.06 0 1.69.521 1.69 1.301 0 .86-.69 1.401-1.59 1.401-.52 0-1.22-.26-1.81-.681v.94c.46.3 1.14.559 1.83.559M574.194 324.319a4 4 0 0 0 2.3-.768v-1.05c-.76.57-1.6.96-2.3.96-1.24 0-2.08-1.061-2.08-2.801 0-1.68.88-2.701 2.08-2.701.7 0 1.54.391 2.3.961v-1.05a4 4 0 0 0-2.3-.769c-1.87 0-3.039 1.419-3.039 3.559 0 2.201 1.129 3.659 3.039 3.659M580.675 316.541h.799v9.16h-.799zM586.075 324.159h.899v-2.92h.22l2.571 2.92h1.169l-2.65-2.93c1.301-.069 2.12-.808 2.12-1.999 0-1.24-.879-1.969-2.33-1.969h-1.999zm.899-3.678v-2.402h1.06c.891 0 1.431.451 1.431 1.171 0 .74-.6 1.231-1.471 1.231zM591.255 324.159h.95l.68-1.69h3.089l.67 1.69h.99l-2.9-6.898h-.58zm1.959-2.508 1.22-3.03 1.21 3.03zM598.695 324.159h4.378l-.28-.838h-3.2v-6.06h-.898zM608.255 324.319c1.52 0 2.528-.878 2.528-2.329 0-1.361-.888-2.219-2.328-2.219-.3 0-.62.06-.94.159l.13-1.851h2.899v-.818h-3.679l-.27 3.829c.59-.29 1.26-.501 1.72-.501.98 0 1.55.541 1.55 1.401 0 .93-.7 1.511-1.63 1.511-.52 0-1.18-.29-1.76-.721v.95c.44.33 1.13.589 1.78.589M614.334 324.299c1.531 0 2.489-1.188 2.489-3.639 0-2.35-.958-3.539-2.489-3.539s-2.489 1.189-2.489 3.539c0 2.451.958 3.639 2.489 3.639m0-.818c-.92 0-1.571-.85-1.571-2.821 0-1.88.651-2.721 1.571-2.721s1.571.841 1.571 2.721c0 1.971-.651 2.821-1.571 2.821M619.685 324.159h.878v-6.998h-.259l-2.599 1.499v.93l1.98-1.159zM623.804 324.159h.879v-6.998h-.259l-2.6 1.499v.93l1.98-1.159z"
              style="fill:#fff;fill-rule:nonzero"/>
        <path d="M297.978 419.275h4.559v-.799h-3.149l1.76-1.971c.76-.86 1.149-1.51 1.149-2.31 0-1.18-.859-1.979-2.039-1.979-.78 0-1.58.449-2.14.999v1.06c.72-.69 1.54-1.22 2.1-1.22.67 0 1.16.47 1.16 1.14 0 .58-.4 1.2-1.03 1.95l-2.37 2.79zM305.218 419.435c1.52 0 2.529-.879 2.529-2.33 0-1.36-.889-2.219-2.329-2.219-.3 0-.62.06-.94.16l.13-1.851h2.899v-.819h-3.679l-.27 3.829c.59-.29 1.26-.5 1.72-.5.98 0 1.55.54 1.55 1.4 0 .931-.7 1.511-1.63 1.511-.52 0-1.18-.29-1.76-.72v.95c.44.329 1.13.589 1.78.589M310.048 416.185c.899 0 1.499-.669 1.499-1.96 0-1.19-.6-1.899-1.499-1.899s-1.5.689-1.5 1.879c0 1.291.6 1.98 1.5 1.98m.12 3.09h.899l3.681-6.899h-.9zm-.12-3.729c-.46 0-.78-.41-.78-1.341 0-.84.32-1.24.78-1.24.459 0 .779.42.779 1.26 0 .931-.32 1.321-.779 1.321m4.82 3.789c.899 0 1.499-.669 1.499-1.96 0-1.19-.6-1.899-1.499-1.899s-1.5.689-1.5 1.879c0 1.291.6 1.98 1.5 1.98m0-.639c-.46 0-.78-.41-.78-1.341 0-.84.32-1.24.78-1.24.459 0 .779.42.779 1.26 0 .931-.32 1.321-.779 1.321M320.268 419.275h.899v-2.58h1.03c1.461 0 2.4-.799 2.4-2.19 0-1.34-.919-2.129-2.42-2.129h-1.909zm.899-3.399v-2.681h.97c.941 0 1.521.5 1.521 1.31 0 .841-.56 1.371-1.501 1.371zM327.117 419.455c.501 0 1.091-.2 1.511-.5l.529.32h.26v-3.52c0-.98-.639-1.639-1.839-1.639-.551 0-1.281.17-1.79.369v.84c.549-.24 1.219-.45 1.69-.45.7 0 1.1.37 1.1.981v.43h-.99c-1.501 0-2.17.699-2.17 1.559 0 .921.579 1.61 1.699 1.61m.06-.759c-.55 0-.91-.36-.91-.851 0-.47.43-.88 1.431-.88h.88v1.261c-.45.27-.97.47-1.401.47M330.978 419.275h.839v-3.92c.44-.25 1-.46 1.421-.46.64 0 1.06.46 1.06 1.14v3.24h.839v-3.38c0-1.08-.699-1.779-1.759-1.779-.571 0-1.171.21-1.611.469l-.529-.309h-.26zM338.627 419.355c.43 0 .93-.11 1.31-.27v-.799c-.42.17-.9.29-1.23.29-.49 0-.83-.37-.83-.88v-2.661h1.92v-.759h-1.92v-1.32h-.839v1.32h-1v.759h1v2.721c0 .93.559 1.599 1.589 1.599M342.927 419.455c1.441 0 2.33-1.019 2.33-2.72 0-1.64-.889-2.639-2.33-2.639-1.44 0-2.329.999-2.329 2.639 0 1.701.889 2.72 2.329 2.72m0-.779c-.9 0-1.45-.68-1.45-1.941 0-1.2.55-1.86 1.45-1.86.901 0 1.451.66 1.451 1.86 0 1.261-.55 1.941-1.451 1.941M346.558 419.275h.839v-3.92c.44-.25 1-.46 1.42-.46.641 0 1.061.46 1.061 1.14v3.24h.839v-3.38c0-1.08-.699-1.779-1.76-1.779-.57 0-1.17.21-1.61.469l-.53-.309h-.259zM354.307 419.435c.591 0 1.291-.21 1.72-.48v-.829c-.539.3-1.17.53-1.7.53-.84 0-1.42-.631-1.49-1.691h3.44c.03-.18.05-.4.05-.589 0-1.331-.839-2.28-2.08-2.28-1.41 0-2.269 1.059-2.269 2.659 0 1.641.879 2.68 2.329 2.68m-1.45-3.149c.11-.931.59-1.431 1.37-1.431.771 0 1.241.58 1.241 1.431zM360.627 419.275h.95l3.019-6.6v-.299h-5.008v.819h3.849zM368.164 419.275h.841v-1.66h1.1v-.759h-1.1v-4.48h-.521l-3.99 4.939v.3h3.68zm-2.34-2.419 2.36-2.91-.01 2.91zM373.287 419.435c1.451 0 2.399-.979 2.399-2.31 0-1.35-.809-2.209-2.099-2.209-.62 0-1.28.299-1.731.669.11-1.75.771-2.53 1.691-2.53.49 0 1.141.2 1.73.51v-.89c-.489-.249-1.12-.439-1.73-.439-1.561 0-2.599 1.239-2.599 3.889 0 2.151.908 3.31 2.339 3.31m.02-.819c-.77 0-1.371-.68-1.451-2.181.481-.41 1.091-.72 1.631-.72.79 0 1.301.55 1.301 1.43 0 .831-.631 1.471-1.481 1.471M378.387 419.275h.879v-6.999h-.259l-2.6 1.5v.93l1.98-1.16zM383.786 419.435a4 4 0 0 0 2.3-.769v-1.05c-.76.57-1.6.96-2.3.96-1.24 0-2.08-1.06-2.08-2.801 0-1.68.88-2.7 2.08-2.7.7 0 1.54.39 2.3.96v-1.05a4 4 0 0 0-2.3-.769c-1.87 0-3.039 1.419-3.039 3.559 0 2.201 1.129 3.66 3.039 3.66M299.918 464.57h.879v-6.998h-.259l-2.6 1.499v.93l1.98-1.16zM304.828 464.71c1.53 0 2.489-1.189 2.489-3.639 0-2.351-.959-3.539-2.489-3.539-1.531 0-2.49 1.188-2.49 3.539 0 2.45.959 3.639 2.49 3.639m0-.818c-.921 0-1.571-.851-1.571-2.821 0-1.881.65-2.721 1.571-2.721s1.57.84 1.57 2.721c0 1.97-.65 2.821-1.57 2.821M309.718 461.48c.899 0 1.499-.668 1.499-1.959 0-1.191-.6-1.899-1.499-1.899s-1.5.688-1.5 1.879c0 1.291.6 1.979 1.5 1.979m.12 3.09h.899l3.681-6.898h-.9zm-.12-3.728c-.46 0-.78-.411-.78-1.341 0-.841.32-1.241.78-1.241.459 0 .779.42.779 1.261 0 .93-.32 1.321-.779 1.321m4.82 3.788c.899 0 1.499-.668 1.499-1.959 0-1.191-.6-1.899-1.499-1.899s-1.5.688-1.5 1.879c0 1.291.6 1.979 1.5 1.979m0-.638c-.46 0-.78-.411-.78-1.341 0-.841.32-1.241.78-1.241.459 0 .779.42.779 1.261 0 .93-.32 1.321-.779 1.321M319.938 464.57h.899v-2.58h1.03c1.461 0 2.4-.799 2.4-2.189 0-1.341-.919-2.129-2.42-2.129h-1.909zm.899-3.398v-2.682h.97c.941 0 1.521.5 1.521 1.311 0 .84-.56 1.371-1.501 1.371zM326.787 464.75c.501 0 1.091-.199 1.511-.499l.529.319h.26v-3.519c0-.981-.639-1.639-1.839-1.639-.551 0-1.281.169-1.79.369v.84c.549-.241 1.219-.451 1.69-.451.7 0 1.1.371 1.1.981v.431h-.99c-1.501 0-2.17.698-2.17 1.558 0 .921.579 1.61 1.699 1.61m.06-.758c-.55 0-.91-.361-.91-.851 0-.47.43-.881 1.431-.881h.88v1.261c-.45.27-.97.471-1.401.471M330.648 464.57h.839v-3.92c.44-.25 1-.46 1.421-.46.64 0 1.06.46 1.06 1.14v3.24h.839v-3.38c0-1.08-.699-1.778-1.759-1.778-.571 0-1.171.209-1.611.469l-.529-.309h-.26zM338.297 464.65c.43 0 .93-.11 1.31-.269v-.8c-.42.17-.9.291-1.23.291-.49 0-.83-.371-.83-.881v-2.661h1.92v-.758h-1.92v-1.32h-.839v1.32h-1v.758h1v2.721c0 .93.559 1.599 1.589 1.599M342.597 464.75c1.441 0 2.33-1.019 2.33-2.719 0-1.641-.889-2.639-2.33-2.639-1.44 0-2.329.998-2.329 2.639 0 1.7.889 2.719 2.329 2.719m0-.778c-.9 0-1.45-.681-1.45-1.941 0-1.201.55-1.861 1.45-1.861.901 0 1.451.66 1.451 1.861 0 1.26-.55 1.941-1.451 1.941M346.228 464.57h.839v-3.92c.44-.25 1-.46 1.42-.46.641 0 1.061.46 1.061 1.14v3.24h.839v-3.38c0-1.08-.699-1.778-1.76-1.778-.57 0-1.17.209-1.61.469l-.53-.309h-.259zM353.977 464.73c.591 0 1.291-.209 1.72-.479v-.83c-.539.3-1.17.531-1.7.531-.84 0-1.42-.631-1.49-1.692h3.44c.03-.179.05-.399.05-.589 0-1.331-.839-2.279-2.08-2.279-1.41 0-2.269 1.059-2.269 2.659 0 1.64.879 2.679 2.329 2.679m-1.45-3.148c.11-.931.59-1.432 1.37-1.432.771 0 1.241.581 1.241 1.432zM360.297 464.57h.95l3.019-6.599v-.299h-5.008v.818h3.849zM367.834 464.57h.841v-1.66h1.1v-.758h-1.1v-4.48h-.521l-3.99 4.939v.299h3.68zm-2.34-2.418 2.36-2.91-.01 2.91zM372.957 464.73c1.451 0 2.399-.979 2.399-2.309 0-1.351-.809-2.209-2.099-2.209-.62 0-1.28.299-1.731.668.11-1.749.771-2.53 1.691-2.53.49 0 1.141.2 1.73.511v-.89c-.489-.25-1.12-.439-1.73-.439-1.561 0-2.599 1.239-2.599 3.888 0 2.151.908 3.31 2.339 3.31m.02-.818c-.77 0-1.371-.681-1.451-2.181.481-.411 1.091-.721 1.631-.721.79 0 1.301.551 1.301 1.431 0 .83-.631 1.471-1.481 1.471M378.057 464.57h.879v-6.998h-.259l-2.6 1.499v.93l1.98-1.16zM383.456 464.73c.81 0 1.67-.299 2.3-.769v-1.05c-.76.57-1.6.961-2.3.961-1.24 0-2.08-1.061-2.08-2.801 0-1.681.88-2.701 2.08-2.701.7 0 1.54.39 2.3.96v-1.05a4 4 0 0 0-2.3-.768c-1.87 0-3.039 1.418-3.039 3.559 0 2.2 1.129 3.659 3.039 3.659M298.558 509.866h2.39c1.34 0 2.189-.739 2.189-2.02 0-.77-.409-1.36-1.189-1.649.56-.31.889-.81.889-1.461 0-1.11-.779-1.769-2.109-1.769h-2.17zm.899-3.979v-2.121h1.211c.8 0 1.25.4 1.25 1.01 0 .661-.51 1.111-1.15 1.111zm0 3.18v-2.381h1.351c.88 0 1.39.46 1.39 1.16 0 .741-.55 1.221-1.33 1.221zM304.418 509.866h.839v-3.02c.55-.64 1.4-1.1 2.26-1.1v-.939c-.96 0-1.81.569-2.28 1.259v-1.199h-.819zM309.837 510.046c.501 0 1.091-.2 1.511-.499l.529.319h.26v-3.519c0-.981-.639-1.64-1.839-1.64-.551 0-1.281.17-1.79.369v.84c.549-.24 1.219-.45 1.69-.45.7 0 1.1.37 1.1.981v.43h-.99c-1.501 0-2.17.699-2.17 1.559 0 .921.579 1.61 1.699 1.61m.06-.759c-.55 0-.91-.36-.91-.851 0-.47.43-.88 1.431-.88h.88v1.261c-.45.27-.97.47-1.401.47M313.698 509.866h.839v-3.92c.44-.25 1-.46 1.421-.46.64 0 1.06.46 1.06 1.14v3.24h.839v-3.38c0-1.08-.699-1.779-1.759-1.779-.571 0-1.171.21-1.611.469l-.529-.309h-.26zM321.347 510.026c.54 0 1.16-.19 1.58-.459v-.88c-.48.3-1.08.56-1.58.56-.83 0-1.35-.72-1.35-1.921 0-1.15.52-1.84 1.35-1.84.47 0 1.1.26 1.58.56v-.88a3.1 3.1 0 0 0-1.56-.459c-1.44 0-2.249.989-2.249 2.619 0 1.681.799 2.7 2.229 2.7M326.217 510.046c1.441 0 2.33-1.019 2.33-2.72 0-1.64-.889-2.639-2.33-2.639-1.44 0-2.329.999-2.329 2.639 0 1.701.889 2.72 2.329 2.72m0-.779c-.9 0-1.45-.68-1.45-1.941 0-1.2.55-1.86 1.45-1.86.901 0 1.451.66 1.451 1.86 0 1.261-.55 1.941-1.451 1.941M332.728 502.247h.799v9.16h-.799zM340.767 510.026a4 4 0 0 0 2.3-.769v-1.05c-.76.57-1.6.96-2.3.96-1.24 0-2.08-1.06-2.08-2.801 0-1.68.88-2.7 2.08-2.7.7 0 1.54.39 2.3.96v-1.05a4 4 0 0 0-2.3-.769c-1.87 0-3.039 1.419-3.039 3.559 0 2.201 1.129 3.66 3.039 3.66M344.488 509.866h.858v-4.989l2.321 4.749h.3l2.321-4.759v4.999h.858v-6.899h-.798l-2.521 5.139-2.521-5.139h-.818zM354.548 509.866h.898v-2.96l2.42-3.939h-1.02l-1.859 3.039-1.839-3.039h-1.06l2.46 3.989zM358.807 509.866h.899v-3.31l3.12 3.31h1.2l-3.36-3.56 3.28-3.339h-1.16l-2.92 2.969h-.16v-2.969h-.899zM369.757 510.006c1.53 0 2.489-1.189 2.489-3.64 0-2.35-.959-3.539-2.489-3.539-1.531 0-2.49 1.189-2.49 3.539 0 2.451.959 3.64 2.49 3.64m0-.819c-.921 0-1.571-.85-1.571-2.821 0-1.88.65-2.72 1.571-2.72s1.57.84 1.57 2.72c0 1.971-.65 2.821-1.57 2.821M378.557 510.006c1.53 0 2.489-1.189 2.489-3.64 0-2.35-.959-3.539-2.489-3.539-1.531 0-2.49 1.189-2.49 3.539 0 2.451.959 3.64 2.49 3.64m0-.819c-.921 0-1.571-.85-1.571-2.821 0-1.88.65-2.72 1.571-2.72s1.57.84 1.57 2.72c0 1.971-.65 2.821-1.57 2.821M387.357 510.006c1.53 0 2.489-1.189 2.489-3.64 0-2.35-.959-3.539-2.489-3.539-1.531 0-2.49 1.189-2.49 3.539 0 2.451.959 3.64 2.49 3.64m0-.819c-.921 0-1.571-.85-1.571-2.821 0-1.88.65-2.72 1.571-2.72s1.57.84 1.57 2.72c0 1.971-.65 2.821-1.57 2.821M396.156 510.006c1.531 0 2.49-1.189 2.49-3.64 0-2.35-.959-3.539-2.49-3.539-1.53 0-2.489 1.189-2.489 3.539 0 2.451.959 3.64 2.489 3.64m0-.819c-.92 0-1.57-.85-1.57-2.821 0-1.88.65-2.72 1.57-2.72.921 0 1.571.84 1.571 2.72 0 1.971-.65 2.821-1.571 2.821M402.907 502.247h.799v9.16h-.799zM408.307 509.866h.899v-2.92h.22l2.571 2.92h1.169l-2.65-2.93c1.301-.07 2.12-.809 2.12-2 0-1.24-.879-1.969-2.33-1.969h-1.999zm.899-3.679v-2.401h1.06c.891 0 1.431.45 1.431 1.17 0 .741-.6 1.231-1.471 1.231zM416.986 510.046c1.921 0 3.13-1.289 3.13-3.12q0-.345-.06-.629h-3.09l.27.839h1.931c-.11 1.291-.98 2.051-2.181 2.051-1.29 0-2.16-1.071-2.16-2.8 0-1.631 1-2.721 2.43-2.721.6 0 1.521.35 2.37.88v-1.04c-.679-.399-1.599-.699-2.37-.699-2.05 0-3.389 1.429-3.389 3.58 0 2.25 1.199 3.659 3.119 3.659M421.537 509.866h2.389c1.341 0 2.19-.739 2.19-2.02 0-.77-.41-1.36-1.189-1.649.559-.31.889-.81.889-1.461 0-1.11-.779-1.769-2.11-1.769h-2.169zm.899-3.979v-2.121h1.21c.801 0 1.251.4 1.251 1.01 0 .661-.511 1.111-1.151 1.111zm0 3.18v-2.381h1.35c.881 0 1.391.46 1.391 1.16 0 .741-.55 1.221-1.331 1.221zM429.597 509.866h4.558v-.799h-3.148l1.76-1.97c.759-.861 1.148-1.511 1.148-2.311 0-1.18-.858-1.979-2.038-1.979-.78 0-1.58.449-2.14.999v1.06c.72-.69 1.54-1.22 2.1-1.22.67 0 1.16.47 1.16 1.14 0 .58-.4 1.2-1.03 1.95l-2.37 2.79zM436.837 510.026c1.52 0 2.528-.879 2.528-2.33 0-1.36-.888-2.219-2.328-2.219-.3 0-.62.06-.94.16l.13-1.851h2.899v-.819h-3.679l-.27 3.829c.59-.29 1.26-.5 1.72-.5.98 0 1.55.54 1.55 1.4 0 .931-.7 1.511-1.63 1.511-.52 0-1.18-.29-1.76-.72v.95c.44.329 1.13.589 1.78.589M442.186 510.026c1.52 0 2.529-.879 2.529-2.33 0-1.36-.889-2.219-2.329-2.219-.3 0-.62.06-.94.16l.13-1.851h2.9v-.819h-3.68l-.27 3.829c.59-.29 1.26-.5 1.72-.5.98 0 1.55.54 1.55 1.4 0 .931-.7 1.511-1.63 1.511-.52 0-1.18-.29-1.76-.72v.95c.44.329 1.13.589 1.78.589M448.196 509.866h4.559v-.799h-3.149l1.76-1.97c.76-.861 1.149-1.511 1.149-2.311 0-1.18-.859-1.979-2.039-1.979-.78 0-1.58.449-2.14.999v1.06c.72-.69 1.54-1.22 2.1-1.22.67 0 1.16.47 1.16 1.14 0 .58-.4 1.2-1.03 1.95l-2.37 2.79zM455.436 510.026c1.52 0 2.529-.879 2.529-2.33 0-1.36-.889-2.219-2.329-2.219-.3 0-.62.06-.94.16l.13-1.851h2.899v-.819h-3.679l-.27 3.829c.59-.29 1.26-.5 1.72-.5.98 0 1.55.54 1.55 1.4 0 .931-.7 1.511-1.63 1.511-.52 0-1.18-.29-1.76-.72v.95c.44.329 1.13.589 1.78.589M460.786 510.026c1.52 0 2.529-.879 2.529-2.33 0-1.36-.889-2.219-2.329-2.219-.3 0-.62.06-.94.16l.13-1.851h2.899v-.819h-3.679l-.27 3.829c.59-.29 1.26-.5 1.72-.5.98 0 1.55.54 1.55 1.4 0 .931-.7 1.511-1.63 1.511-.52 0-1.18-.29-1.76-.72v.95c.44.329 1.13.589 1.78.589M466.796 509.866h4.559v-.799h-3.149l1.76-1.97c.759-.861 1.149-1.511 1.149-2.311 0-1.18-.859-1.979-2.039-1.979-.78 0-1.58.449-2.14.999v1.06c.72-.69 1.54-1.22 2.1-1.22.67 0 1.16.47 1.16 1.14 0 .58-.4 1.2-1.03 1.95l-2.37 2.79zM474.036 510.026c1.52 0 2.529-.879 2.529-2.33 0-1.36-.889-2.219-2.329-2.219-.3 0-.62.06-.94.16l.13-1.851h2.899v-.819h-3.679l-.27 3.829c.59-.29 1.26-.5 1.72-.5.98 0 1.55.54 1.55 1.4 0 .931-.7 1.511-1.63 1.511-.52 0-1.18-.29-1.76-.72v.95c.44.329 1.13.589 1.78.589M479.386 510.026c1.52 0 2.529-.879 2.529-2.33 0-1.36-.889-2.219-2.329-2.219-.3 0-.62.06-.94.16l.13-1.851h2.899v-.819h-3.679l-.27 3.829c.59-.29 1.26-.5 1.72-.5.98 0 1.55.54 1.55 1.4 0 .931-.7 1.511-1.63 1.511-.52 0-1.18-.29-1.76-.72v.95c.44.329 1.13.589 1.78.589M486.076 502.247h.799v9.16h-.799zM491.396 509.866h.739l.62-1.92h1.67l-.62 1.92h.74l.62-1.92h1.52v-.679h-1.3l.56-1.721h1.419v-.679h-1.199l.62-1.9h-.74l-.62 1.9h-1.67l.62-1.9h-.74l-.62 1.9h-1.519v.679h1.299l-.56 1.721h-1.419v.679h1.199zm1.579-2.599.56-1.721h1.67l-.56 1.721zM498.766 509.866h.838v-4.24h1.74v-.759h-1.74v-.881c0-.55.37-.96.93-.96.31 0 .74.11 1.17.29v-.799c-.36-.16-.83-.27-1.25-.27-1.019 0-1.688.739-1.688 1.759v.861h-1v.759h1z"
              style="fill:#0083ca;fill-rule:nonzero"/>
        <path d="M502.326 509.866h.838v-4.24h1.74v-.759h-1.74v-.881c0-.55.37-.96.93-.96.31 0 .74.11 1.17.29v-.799c-.36-.16-.83-.27-1.25-.27-1.019 0-1.688.739-1.688 1.759v.861h-1v.759h1z"
              style="fill:#0083ca;fill-rule:nonzero"/>
        <path d="M505.885 509.866h.839v-4.24h1.74v-.759h-1.74v-.881c0-.55.37-.96.93-.96.31 0 .74.11 1.17.29v-.799c-.36-.16-.83-.27-1.25-.27-1.02 0-1.689.739-1.689 1.759v.861h-1v.759h1z"
              style="fill:#0083ca;fill-rule:nonzero"/>
        <path d="M509.445 509.866h.839v-4.24h1.74v-.759h-1.74v-.881c0-.55.37-.96.93-.96.31 0 .74.11 1.17.29v-.799c-.36-.16-.83-.27-1.25-.27-1.02 0-1.689.739-1.689 1.759v.861h-1v.759h1z"
              style="fill:#0083ca;fill-rule:nonzero"/>
        <path d="M513.005 509.866h.839v-4.24h1.74v-.759h-1.74v-.881c0-.55.37-.96.93-.96.31 0 .74.11 1.17.29v-.799c-.36-.16-.83-.27-1.25-.27-1.02 0-1.689.739-1.689 1.759v.861h-1v.759h1z"
              style="fill:#0083ca;fill-rule:nonzero"/>
        <path d="M516.565 509.866h.839v-4.24h1.74v-.759h-1.74v-.881c0-.55.37-.96.93-.96.31 0 .74.11 1.17.29v-.799c-.36-.16-.83-.27-1.25-.27-1.02 0-1.689.739-1.689 1.759v.861h-1v.759h1zM522.965 502.247h.799v9.16h-.799zM528.365 509.866h.899v-2.92h.22l2.571 2.92h1.169l-2.65-2.93c1.301-.07 2.12-.809 2.12-2 0-1.24-.879-1.969-2.33-1.969h-1.999zm.899-3.679v-2.401h1.06c.891 0 1.431.45 1.431 1.17 0 .741-.6 1.231-1.471 1.231zM533.545 509.866h.95l.68-1.69h3.089l.67 1.69h.99l-2.9-6.899h-.58zm1.96-2.509 1.219-3.03 1.21 3.03zM540.985 509.866h4.379l-.28-.839h-3.2v-6.06h-.899zM550.564 510.006c1.571 0 2.699-1.019 2.699-3.819 0-2.321-.908-3.38-2.379-3.38-1.361 0-2.259.999-2.259 2.239 0 1.321.819 2.16 2.049 2.16.57 0 1.21-.24 1.681-.649-.08 1.95-.831 2.63-1.831 2.63-.43 0-1.001-.16-1.46-.37v.859c.38.17.94.33 1.5.33m.15-3.599c-.71 0-1.191-.51-1.191-1.381 0-.76.541-1.4 1.381-1.4.76 0 1.361.62 1.441 2.061-.511.44-1.111.72-1.631.72M556.914 510.006c1.531 0 2.489-1.189 2.489-3.64 0-2.35-.958-3.539-2.489-3.539s-2.489 1.189-2.489 3.539c0 2.451.958 3.64 2.489 3.64m0-.819c-.92 0-1.571-.85-1.571-2.821 0-1.88.651-2.72 1.571-2.72s1.571.84 1.571 2.72c0 1.971-.651 2.821-1.571 2.821M563.054 510.006c1.53 0 2.489-1.189 2.489-3.64 0-2.35-.959-3.539-2.489-3.539-1.531 0-2.489 1.189-2.489 3.539 0 2.451.958 3.64 2.489 3.64m0-.819c-.92 0-1.571-.85-1.571-2.821 0-1.88.651-2.72 1.571-2.72s1.571.84 1.571 2.72c0 1.971-.651 2.821-1.571 2.821M568.354 510.026c1.54 0 2.489-.859 2.489-2.22 0-1.2-.809-1.979-2.069-2.009l2.029-2.57v-.26h-4.239v.799h2.86l-2.24 2.89a5 5 0 0 1 1.05-.15c1.06 0 1.69.52 1.69 1.3 0 .861-.69 1.401-1.59 1.401-.52 0-1.22-.26-1.81-.68v.94c.46.299 1.14.559 1.83.559M353.508 560.505h.589v-1.162h.77v-.531h-.77v-3.136h-.365l-2.793 3.457v.21h2.576zm-1.638-1.693 1.652-2.037-.007 2.037zM356.647 560.505h.615v-4.899h-.182l-1.819 1.05v.651l1.386-.812zM360.175 558.322h4.584v.531h-4.584zM369.491 560.617c.567 0 1.169-.21 1.61-.538v-.735c-.532.399-1.12.672-1.61.672-.868 0-1.456-.742-1.456-1.961 0-1.176.616-1.89 1.456-1.89.49 0 1.078.273 1.61.672v-.735a2.8 2.8 0 0 0-1.61-.538c-1.309 0-2.127.993-2.127 2.491 0 1.541.79 2.562 2.127 2.562M373.432 560.631c1.009 0 1.631-.713 1.631-1.904 0-1.148-.622-1.847-1.631-1.847s-1.63.699-1.63 1.847c0 1.191.622 1.904 1.63 1.904m0-.545c-.63 0-1.015-.476-1.015-1.359 0-.84.385-1.302 1.015-1.302s1.016.462 1.016 1.302c0 .883-.386 1.359-1.016 1.359M376.939 560.554c.14 0 .294-.014.42-.049v-.545a2 2 0 0 1-.364.049c-.259 0-.434-.203-.434-.56v-4.179h-.588v4.207c0 .665.336 1.077.966 1.077M379.536 560.631c1.008 0 1.63-.713 1.63-1.904 0-1.148-.622-1.847-1.63-1.847s-1.631.699-1.631 1.847c0 1.191.622 1.904 1.631 1.904m0-.545c-.63 0-1.016-.476-1.016-1.359 0-.84.386-1.302 1.016-1.302s1.015.462 1.015 1.302c0 .883-.385 1.359-1.015 1.359M382.077 560.505h.587v-2.114c.385-.448.98-.77 1.582-.77v-.657c-.672 0-1.267.398-1.596.881v-.839h-.573zM388.145 560.617c.378 0 .812-.133 1.106-.322v-.615c-.336.21-.756.392-1.106.392-.581 0-.945-.504-.945-1.345 0-.805.364-1.288.945-1.288.329 0 .77.182 1.106.392v-.616a2.2 2.2 0 0 0-1.092-.321c-1.008 0-1.574.692-1.574 1.833 0 1.177.559 1.89 1.56 1.89M391.555 560.631c1.008 0 1.63-.713 1.63-1.904 0-1.148-.622-1.847-1.63-1.847s-1.631.699-1.631 1.847c0 1.191.622 1.904 1.631 1.904m0-.545c-.631 0-1.016-.476-1.016-1.359 0-.84.385-1.302 1.016-1.302.63 0 1.015.462 1.015 1.302 0 .883-.385 1.359-1.015 1.359M394.096 560.505h.587v-2.114c.385-.448.98-.77 1.582-.77v-.657c-.672 0-1.267.398-1.596.881v-.839h-.573zM396.952 562.073h.588v-1.826c.245.209.616.384.959.384.951 0 1.56-.699 1.56-1.904 0-1.162-.616-1.847-1.504-1.847-.364 0-.77.21-1.043.468v-.342h-.56zm1.519-1.987c-.301 0-.658-.189-.931-.434v-1.736c.301-.288.651-.491.959-.491.51 0 .944.462.944 1.302 0 .883-.434 1.359-.972 1.359M402.46 560.631c1.009 0 1.631-.713 1.631-1.904 0-1.148-.622-1.847-1.631-1.847s-1.63.699-1.63 1.847c0 1.191.622 1.904 1.63 1.904m0-.545c-.63 0-1.015-.476-1.015-1.359 0-.84.385-1.302 1.015-1.302.631 0 1.016.462 1.016 1.302 0 .883-.385 1.359-1.016 1.359M405.002 560.505h.587v-2.114c.385-.448.98-.77 1.582-.77v-.657c-.672 0-1.267.398-1.596.881v-.839h-.573zM408.795 560.631c.35 0 .764-.14 1.058-.349l.37.223h.182v-2.463c0-.687-.447-1.148-1.288-1.148-.385 0-.896.119-1.253.258v.588c.385-.168.854-.315 1.183-.315.491 0 .771.259.771.687v.301h-.694c-1.05 0-1.518.489-1.518 1.091 0 .645.405 1.127 1.189 1.127m.042-.531c-.385 0-.637-.252-.637-.596 0-.329.301-.616 1.001-.616h.617v.883c-.315.189-.68.329-.981.329M412.848 560.561c.301 0 .651-.077.917-.189v-.559c-.294.119-.63.203-.861.203-.343 0-.581-.259-.581-.616v-1.863h1.344v-.531h-1.344v-.924h-.587v.924h-.7v.531h.7v1.905c0 .651.391 1.119 1.112 1.119M414.822 556.389a.414.414 0 0 0 .413-.413.42.42 0 0 0-.413-.412.413.413 0 0 0 0 .825m-.293 4.116h.587v-3.499h-.587zM417.356 560.575h.238l1.603-3.569h-.637l-1.085 2.498-1.057-2.498h-.664zM421.22 560.631c1.008 0 1.631-.713 1.631-1.904 0-1.148-.623-1.847-1.631-1.847s-1.631.699-1.631 1.847c0 1.191.623 1.904 1.631 1.904m0-.545c-.63 0-1.015-.476-1.015-1.359 0-.84.385-1.302 1.015-1.302s1.015.462 1.015 1.302c0 .883-.385 1.359-1.015 1.359M118.076 46.362l-1.172-2.935-1.182 2.935zm-1.443-4.253h.561l2.81 6.685h-.959l-.649-1.638h-2.994l-.658 1.638h-.921zm-6.055.814h-2.422l-.271-.814h6.258l-.272.814h-2.421v5.871h-.872zm-8.913-.814h.736l3.42 4.766v-4.766h.872v6.685h-.494l-3.662-5.106v5.106h-.872zm-6.849 4.447v-4.447h.872v4.408c0 1.037.629 1.618 1.598 1.618s1.598-.581 1.598-1.618v-4.408h.872v4.447c0 1.501-.959 2.412-2.47 2.412s-2.47-.911-2.47-2.412m-4.36-1.202-2.141-3.245h1.027l1.666 2.529 1.647-2.529h.988l-2.141 3.265 2.258 3.42h-1.027l-1.783-2.703-1.763 2.703h-.988zm47.931 10.36-1.172-2.935-1.182 2.935zm-1.443-4.253h.561l2.81 6.685h-.959l-.649-1.638h-2.994l-.659 1.638h-.92zm-4.893 0h.872v6.684h-.872zm-6.733 3.294c0-2.073 1.134-3.449 2.945-3.449.785 0 1.618.291 2.229.746v1.017c-.737-.552-1.55-.93-2.229-.93-1.162 0-2.015.988-2.015 2.616 0 1.685.814 2.712 2.015 2.712.679 0 1.492-.377 2.229-.93v1.018a3.87 3.87 0 0 1-2.229.745c-1.85 0-2.945-1.414-2.945-3.545m-2.45-3.294h.872v6.684h-.872zm-5.493 0h.872v5.871h3.099l.272.814h-4.243zm-3.139 4.253-1.173-2.935-1.181 2.935zm-1.444-4.253h.562l2.809 6.685h-.959l-.649-1.638h-2.993l-.659 1.638h-.92zm-9.668 3.313c0-2.082 1.298-3.468 3.284-3.468.746 0 1.637.291 2.296.678v1.008c-.823-.514-1.715-.853-2.296-.853-1.385 0-2.354 1.056-2.354 2.635 0 1.676.843 2.713 2.092 2.713 1.163 0 2.006-.736 2.112-1.986h-1.869l-.262-.814h2.994q.058.276.058.61c0 1.773-1.173 3.023-3.033 3.023s-3.022-1.366-3.022-3.546m-8.049-3.313h4.108l-.272.814h-2.964v1.976h2.654v.814h-2.654v2.267h3.003l.271.814h-4.146zm-2.509 3.294c0-1.657-.959-2.48-2.277-2.48h-1.22v5.057h1.279c1.298 0 2.218-.853 2.218-2.577m.93 0c0 2.17-1.25 3.391-3.09 3.391h-2.209v-6.685h2.112c1.918 0 3.187 1.192 3.187 3.294m-11.312-6.63h-.668v.669h-.668v-.669h-.668v-.668h.668v-.668h.668v.668h.668zm0 4.009h-.668v.668h-.668v-.668h-.668v-.668h.668v-.668h.668v.668h.668zm0 4.009h-.668v.669h-.668v-.669h-.668v-.668h.668v-.668h.668v.668h.668zm-2.2-11.542-.246.351h-.624l.447-.645a.66.66 0 0 0 .102-.345.55.55 0 0 0-.151-.393.6.6 0 0 0-.44-.187c-.074 0-.127.007-.127.007l-.002-.003q.058.2.058.382c0 .217-.024.401-.138.595l-.348.589h-.608l.495-.841a.8.8 0 0 0 .082-.343.58.58 0 0 0-.164-.424.6.6 0 0 0-.441-.201c-.207 0-.356.059-.456.182v1.627h-.501v-1.627q-.147-.183-.455-.182a.6.6 0 0 0-.441.201.57.57 0 0 0-.164.424c0 .115.036.266.082.343l.495.841h-.608l-.348-.589c-.114-.194-.138-.378-.138-.595q0-.181.057-.382l-.001.003s-.053-.007-.127-.007a.6.6 0 0 0-.44.187.54.54 0 0 0-.151.393c0 .09.026.235.102.345l.447.645h-.624l-.246-.351a1.07 1.07 0 0 1-.196-.639c0-.313.11-.574.326-.774.216-.223.48-.336.782-.336q.195 0 .415.075.016-.019.035-.036.299-.277.743-.278.384 0 .706.233c.213-.155.451-.233.706-.233q.444.001.743.278.019.017.035.036.22-.074.415-.075c.302 0 .566.113.782.336.216.2.326.461.326.774 0 .243-.063.447-.196.639m-.472 1.353h-4.677v-.501h4.677zm-2.339 3.508a1.336 1.336 0 1 1 0 2.672 1.336 1.336 0 0 1 0-2.672m1.002-2.005v.668h-.668v.669h-.668v-.669h-.668v-.668h.668v-.668h.668v.668zm-.654 7.658a4.66 4.66 0 0 0 .824 3.033H76a4.65 4.65 0 0 0 .825-3.033 2.34 2.34 0 0 1-1.991-2.313h4.678a2.34 2.34 0 0 1-1.991 2.313m-3.355-6.99h-.668v.669h-.668v-.669h-.668v-.668h.668v-.668h.668v.668h.668zm0 4.009h-.668v.668h-.668v-.668h-.668v-.668h.668v-.668h.668v.668h.668zm0 4.009h-.668v.669h-.668v-.669h-.668v-.668h.668v-.668h.668v.668h.668zm2.506-14.365h.334v-.334h.334v.334h.334v.334h-.334v.334h-.334v-.334h-.334zm-6.515 18.374h14.031V40.107H70.157z"
              style="fill:#0083ca;fill-rule:nonzero"/></g></svg>