<?xml version="1.0" encoding="UTF-8" standalone="no"?><!DOCTYPE svg PUBLIC "-//W3C//DTD SVG 1.1//EN" "http://www.w3.org/Graphics/SVG/1.1/DTD/svg11.dtd">
<svg
        width="100%" height="100%" viewBox="0 0 260 260" version="1.1"
        xmlns="http://www.w3.org/2000/svg" xml:space="preserve"
        style="fill-rule:evenodd;clip-rule:evenodd;stroke-linejoin:round;stroke-miterlimit:2;"><path d="M197.616,208.665l-9.069,0l-0,9.069l-9.069,0l0,-9.069l-9.069,0l0,-9.068l9.069,-0l0,-9.069l9.069,-0l-0,9.069l9.069,-0l-0,9.068Zm-108.825,-108.825l-9.069,0l-0,9.07l-9.069,-0l0,-9.07l-9.069,0l0,-9.068l9.069,0l0,-9.069l9.069,-0l-0,9.069l9.069,0l-0,9.068Zm-0,54.413l-9.069,-0l-0,9.069l-9.069,0l0,-9.069l-9.069,-0l0,-9.069l9.069,-0l0,-9.069l9.069,0l-0,9.069l9.069,-0l-0,9.069Zm108.825,-0l-9.069,-0l-0,9.069l-9.069,0l0,-9.069l-9.069,-0l0,-9.069l9.069,-0l0,-9.069l9.069,0l-0,9.069l9.069,-0l-0,9.069Zm-54.413,-63.481l0,9.068l-9.069,0l0,9.07l-9.068,-0l-0,-9.07l-9.069,0l-0,-9.068l9.069,0l-0,-9.069l9.068,-0l0,9.069l9.069,0Zm-13.603,27.206c10.017,-0 18.137,8.12 18.137,18.137c0,10.018 -8.12,18.138 -18.137,18.138c-10.017,-0 -18.137,-8.12 -18.137,-18.138c-0,-10.017 8.12,-18.137 18.137,-18.137Zm4.721,76.735c-0.123,1.611 -0.187,3.24 -0.187,4.884c0,13.487 4.208,25.992 11.38,36.275l-31.827,-0c7.172,-10.283 11.379,-22.788 11.379,-36.275c-0,-1.644 -0.063,-3.273 -0.187,-4.884c-15.29,-2.281 -27.02,-15.466 -27.02,-31.391l63.482,0c-0,15.925 -11.73,29.11 -27.02,31.391Zm63.295,-94.873l-9.069,0l-0,9.07l-9.069,-0l0,-9.07l-9.069,0l0,-9.068l9.069,0l0,-9.069l9.069,-0l-0,9.069l9.069,0l-0,9.068Zm-74.818,-86.151l4.535,0l0,-4.534l4.535,-0l-0,4.534l4.534,0l-0,4.534l-4.534,0l-0,4.534l-4.535,0l0,-4.534l-4.535,0l0,-4.534Zm-34.007,194.976l-9.069,0l-0,9.069l-9.069,0l0,-9.069l-9.069,0l0,-9.068l9.069,-0l0,-9.069l9.069,-0l-0,9.069l9.069,-0l-0,9.068Zm72.55,-138.298l-63.482,0l0,-6.802l63.482,0l-0,6.802Zm6.411,-18.354l-3.334,4.751l-8.471,-0l6.065,-8.746c1.025,-1.494 1.39,-3.458 1.39,-4.685c0,-2.135 -0.691,-3.929 -2.056,-5.336c-1.629,-1.685 -3.64,-2.539 -5.976,-2.539c-1.004,-0 -1.719,0.093 -1.719,0.093l-0.02,-0.034c0.507,1.807 0.778,3.548 0.778,5.183c-0,2.94 -0.32,5.437 -1.875,8.073l-4.72,7.991l-8.253,-0l6.719,-11.403c0.626,-1.05 1.115,-3.096 1.115,-4.661c0,-2.336 -0.728,-4.219 -2.225,-5.757c-1.748,-1.808 -3.76,-2.725 -5.983,-2.725c-2.807,0 -4.833,0.807 -6.187,2.464l0,22.082l-6.799,-0l-0,-22.082c-1.354,-1.657 -3.381,-2.464 -6.188,-2.464c-2.223,0 -4.234,0.917 -5.983,2.725c-1.497,1.538 -2.225,3.421 -2.225,5.757c0,1.565 0.489,3.611 1.115,4.661l6.72,11.403l-8.253,-0l-4.72,-7.991c-1.556,-2.636 -1.875,-5.133 -1.875,-8.073c0,-1.635 0.271,-3.376 0.778,-5.183l-0.021,0.034c-0,-0 -0.714,-0.093 -1.719,-0.093c-2.336,-0 -4.346,0.854 -5.975,2.539c-1.365,1.407 -2.056,3.201 -2.056,5.336c-0,1.227 0.365,3.191 1.389,4.685l6.065,8.746l-8.471,-0l-3.333,-4.751c-1.814,-2.62 -2.658,-5.378 -2.658,-8.68c-0,-4.252 1.494,-7.794 4.421,-10.506c2.937,-3.029 6.51,-4.565 10.618,-4.565c1.754,0 3.645,0.356 5.625,1.026c0.153,-0.17 0.305,-0.339 0.479,-0.491c2.689,-2.504 6.079,-3.772 10.079,-3.772c3.466,-0 6.69,1.063 9.587,3.163c2.898,-2.1 6.121,-3.163 9.587,-3.163c4.001,-0 7.39,1.268 10.079,3.772c0.174,0.152 0.327,0.321 0.479,0.491c1.981,-0.67 3.871,-1.026 5.625,-1.026c4.109,0 7.681,1.536 10.619,4.565c2.926,2.712 4.42,6.254 4.42,10.506c0,3.302 -0.844,6.06 -2.657,8.68Z" style="fill:#fff;"/></svg>