<svg xmlns="http://www.w3.org/2000/svg" viewBox="0 0 100 100" preserveAspectRatio="xMidYMid" width="250" height="250" style="shape-rendering: auto; display: block; background: rgba(0, 0, 0, 0);"><g data-idx="1"><defs data-idx="2">
    <path id="patha" d="M0 0A13 35 0 0 1 0 70A13 35 0 0 1 0 0" fill="none" data-idx="3"></path>
</defs><g transform="matrix(1,0,0,1,0,0)" data-idx="4">
    <path id="path" d="M50 15A13 35 0 0 1 50 85A13 35 0 0 1 50 15" fill="none" stroke="#ffffff" stroke-width="2" data-idx="5"></path>
</g><g transform="matrix(0.7071067811865476,0.7071067811865476,-0.7071067811865476,0.7071067811865476,50,-20.710678118654755)" data-idx="6">
    <path id="path" d="M50 15A13 35 0 0 1 50 85A13 35 0 0 1 50 15" fill="none" stroke="#ffffff" stroke-width="2" data-idx="7"></path>
</g><g transform="matrix(6.123233995736766e-17,1,-1,6.123233995736766e-17,100,0)" data-idx="8">
    <path id="path" d="M50 15A13 35 0 0 1 50 85A13 35 0 0 1 50 15" fill="none" stroke="#ffffff" stroke-width="2" data-idx="9"></path>
</g><g transform="matrix(-0.7071067811865475,0.7071067811865476,-0.7071067811865476,-0.7071067811865475,120.71067811865476,49.99999999999999)" data-idx="10">
    <path id="path" d="M50 15A13 35 0 0 1 50 85A13 35 0 0 1 50 15" fill="none" stroke="#ffffff" stroke-width="2" data-idx="11"></path>
</g><g transform="matrix(1,0,0,1,0,0)" data-idx="12">
    <circle cx="50" cy="15" r="6" fill="#0a83c6" data-idx="13" transform="matrix(1,0,0,1,-1.0156104564666748,69.89472198486328)">

    </circle>
</g><g transform="matrix(0.7071067811865476,0.7071067811865476,-0.7071067811865476,0.7071067811865476,50,-20.710678118654755)" data-idx="16">
    <circle cx="50" cy="15" r="6" fill="#05517c" data-idx="17" transform="matrix(1,0,0,1,-7.123645782470703,64.28206634521484)">

    </circle>
</g><g transform="matrix(6.123233995736766e-17,1,-1,6.123233995736766e-17,100,0)" data-idx="20">
    <circle cx="50" cy="15" r="6" fill="#5cb9ed" data-idx="21" transform="matrix(1,0,0,1,-10.294699668884277,56.375308990478516)">

    </circle>
</g><g transform="matrix(-0.7071067811865475,0.7071067811865476,-0.7071067811865476,-0.7071067811865475,120.71067811865476,49.99999999999999)" data-idx="24">
    <circle cx="50" cy="15" r="6" fill="#0a83c6" data-idx="25" transform="matrix(1,0,0,1,-12.069269180297852,48.0298957824707)">

    </circle>
</g><g data-idx="28"></g></g><text data-watermark="true" text-anchor="middle" dominant-baseline="middle" stroke-opacity="0.1" fill="black" fill-opacity="0.1" stroke="white" stroke-width="1" font-size="5.0" x="50" y="50" data-idx="29" style="opacity: 1; font-size: 5px;">LOADING.IO</text></svg>