<svg xmlns="http://www.w3.org/2000/svg" xml:space="preserve" style="fill-rule:evenodd;clip-rule:evenodd;stroke-linejoin:round;stroke-miterlimit:2" viewBox="0 0 332 58"><path d="M232.367 17.523c1.35 0 2.784-.499 3.834-1.281v-1.751c-1.267.951-2.667 1.601-3.834 1.601-2.067 0-3.468-1.768-3.468-4.669 0-2.801 1.467-4.502 3.468-4.502 1.167 0 2.567.65 3.834 1.601V6.771c-1.05-.782-2.484-1.282-3.834-1.282-3.118 0-5.066 2.366-5.066 5.934 0 3.668 1.882 6.1 5.066 6.1m10.72.034c3.168 0 5.184-2.349 5.184-6.134 0-3.602-2.016-5.967-5.184-5.967s-5.183 2.365-5.183 5.967c0 3.785 2.015 6.134 5.183 6.134m0-1.432c-2.184 0-3.585-1.667-3.585-4.702 0-2.835 1.401-4.536 3.585-4.536s3.585 1.701 3.585 4.536c0 3.035-1.4 4.702-3.585 4.702m7.586 1.132h1.499V8.473l6.302 8.784h.849V5.756h-1.498v8.201l-5.886-8.201h-1.266zm14.019.266c2.402 0 4.05-1.265 4.05-3.365 0-2.035-1.365-2.652-3.349-3.669-1.368-.7-2.102-1.084-2.102-2.018 0-.833.684-1.567 2.002-1.567.917 0 2.068.417 3.15 1.001V6.321c-.883-.482-2.033-.832-3.15-.832-2.185 0-3.517 1.348-3.517 3.016 0 1.967 1.415 2.601 3.083 3.435 1.351.667 2.335 1.184 2.335 2.284 0 1.134-1.001 1.885-2.535 1.885-.868 0-2.067-.467-3.033-1.084v1.6c.783.499 1.932.898 3.066.898m6.42-.266h7.133l-.467-1.399h-5.168v-3.903h4.568v-1.398h-4.568V7.154h5.101l.467-1.398h-7.066zm9.302 0h7.3l-.467-1.399h-5.335V5.756h-1.498zm9.136 0h7.299l-.466-1.399h-5.335V5.756h-1.498zm9.135 0h7.133l-.466-1.399h-5.168v-3.903h4.567v-1.398h-4.567V7.154h5.101l.467-1.398h-7.067zm9.303 0h1.498v-4.868h.367l4.285 4.868h1.95l-4.417-4.885c2.168-.116 3.533-1.348 3.533-3.333 0-2.068-1.465-3.283-3.883-3.283h-3.333zm1.498-6.133V7.121h1.768c1.484 0 2.385.75 2.385 1.951 0 1.235-1.001 2.052-2.452 2.052zm9.37-6.568 2.366-2.768h-1.95l-1.432 2.184zm-.933 12.701h1.499V5.756h-1.499zm3.268 0h1.583l1.134-2.818h5.15l1.117 2.818h1.65l-4.834-11.501h-.967zm3.267-4.183 2.033-5.051 2.017 5.051zm-92.857 9.953h-3.633v11.501h3.799c3.169 0 5.318-2.099 5.318-5.834 0-3.618-2.182-5.667-5.484-5.667m.066 10.103h-2.201v-8.705h2.101c2.268 0 3.919 1.418 3.919 4.269 0 2.968-1.584 4.436-3.819 4.436m7.82 1.398h7.133l-.466-1.398h-5.168v-3.903h4.567v-1.399h-4.567v-3.403h5.101l.467-1.398h-7.067zm16.036.267c2.402 0 4.051-1.265 4.051-3.366 0-2.035-1.366-2.652-3.35-3.669-1.368-.7-2.102-1.084-2.102-2.017 0-.834.684-1.568 2.002-1.568.917 0 2.068.417 3.15 1.001v-1.583c-.883-.483-2.033-.833-3.15-.833-2.185 0-3.517 1.349-3.517 3.016 0 1.968 1.415 2.601 3.083 3.435 1.351.667 2.335 1.184 2.335 2.284 0 1.134-1.001 1.885-2.535 1.885-.867 0-2.067-.467-3.033-1.084v1.6c.783.499 1.932.899 3.066.899m5.286-.267h1.584l1.133-2.817h5.15l1.117 2.817h1.65l-4.833-11.501h-.967zm3.267-4.182 2.033-5.052 2.017 5.052zm9.136 4.182h1.499v-8.784l6.302 8.784h.849V23.027h-1.498v8.201l-5.886-8.201h-1.266zm11.72-11.501h1.498v11.501h-1.498zm8.201 0H289.5v11.501h3.799c3.169 0 5.318-2.099 5.318-5.834 0-3.618-2.182-5.667-5.484-5.667m.066 10.103h-2.201v-8.705h2.101c2.268 0 3.919 1.418 3.919 4.269 0 2.968-1.584 4.436-3.819 4.436m6.22 1.398h1.583l1.134-2.817h5.15l1.117 2.817h1.65l-4.834-11.501h-.967zm3.267-4.182 2.033-5.052 2.017 5.052zm12.769-7.319h-3.633v11.501h3.8c3.168 0 5.317-2.099 5.317-5.834 0-3.618-2.182-5.667-5.484-5.667m.066 10.103h-2.201v-8.705h2.101c2.268 0 3.919 1.418 3.919 4.269 0 2.968-1.584 4.436-3.819 4.436m7.82 1.398h7.133l-.466-1.398h-5.168v-3.903h4.567v-1.399h-4.567v-3.403h5.101l.467-1.398h-7.067zM137.594 17.96l-3.366-8.428-3.394 8.428zm-4.146-12.212h1.614l8.066 19.194h-2.752l-1.864-4.7h-8.594l-1.892 4.7h-2.644zm-17.384 2.338h-6.954l-.78-2.338h17.97l-.78 2.338h-6.954v16.856h-2.502zM90.472 5.748h2.114l9.818 13.686V5.748h2.504v19.194h-1.418L92.976 10.284v14.658h-2.504zM70.806 18.516V5.748h2.502v12.656c0 2.978 1.81 4.646 4.59 4.646 2.784 0 4.59-1.668 4.59-4.646V5.748h2.502v12.768c0 4.312-2.752 6.926-7.092 6.926s-7.092-2.614-7.092-6.926m-12.52-3.448-6.146-9.32h2.948l4.784 7.262 4.73-7.262h2.838l-6.148 9.374 6.48 9.82h-2.948l-5.118-7.76-5.062 7.76h-2.838zm137.628 29.744-3.366-8.426-3.394 8.426zM191.768 32.6h1.616l8.066 19.196h-2.756l-1.862-4.702h-8.596l-1.89 4.702h-2.642zm-14.046 0h2.502v19.192h-2.502zm-19.332 9.46c0-5.954 3.254-9.904 8.456-9.904 2.252 0 4.646.834 6.398 2.142v2.92c-2.116-1.586-4.452-2.67-6.398-2.67-3.338 0-5.786 2.838-5.786 7.512 0 4.84 2.336 7.788 5.786 7.788 1.946 0 4.282-1.086 6.398-2.672v2.922c-1.752 1.308-4.146 2.142-6.398 2.142-5.312 0-8.456-4.062-8.456-10.18m-7.038-9.46h2.502v19.192h-2.502zm-15.772 0h2.502v16.858h8.902l.778 2.338H135.58zm-9.012 12.212-3.368-8.426-3.392 8.426zM122.422 32.6h1.614l8.066 19.196h-2.752l-1.864-4.702h-8.596l-1.892 4.702h-2.642zM94.66 42.114c0-5.98 3.728-9.958 9.432-9.958 2.142 0 4.7.834 6.59 1.948v2.892c-2.362-1.474-4.922-2.448-6.59-2.448-3.978 0-6.76 3.032-6.76 7.566 0 4.814 2.42 7.788 6.008 7.788 3.338 0 5.76-2.112 6.064-5.7h-5.37l-.75-2.336h8.596q.167.789.166 1.752c0 5.09-3.364 8.678-8.706 8.678-5.34 0-8.68-3.922-8.68-10.182M71.55 32.6h11.794l-.778 2.34h-8.512v5.672h7.62v2.338h-7.62v6.508h8.622l.78 2.338H71.55zm-7.206 9.46c0-4.758-2.752-7.12-6.536-7.12h-3.504v14.518h3.672c3.726 0 6.368-2.448 6.368-7.398m2.672 0c0 6.23-3.588 9.736-8.874 9.736H51.8V32.6h6.064c5.508 0 9.152 3.422 9.152 9.46m-32.48-19.036h-1.92v1.918h-1.918v-1.918H28.78v-1.918h1.918v-1.92h1.918v1.92h1.92zm0 11.51h-1.92v1.918h-1.918v-1.918H28.78v-1.918h1.918v-1.92h1.918v1.92h1.92zm0 11.512h-1.92v1.918h-1.918v-1.918H28.78v-1.92h1.918v-1.918h1.918v1.918h1.92zm-6.318-33.142-.706 1.006h-1.79l1.282-1.85c.216-.316.294-.732.294-.992 0-.452-.146-.832-.434-1.128a1.7 1.7 0 0 0-1.266-.536c-.212 0-.364.018-.364.018l-.004-.006c.108.38.164.75.164 1.094 0 .624-.066 1.152-.396 1.71L24 13.91h-1.746l1.42-2.412c.132-.222.236-.654.236-.988 0-.492-.152-.892-.47-1.216-.37-.384-.796-.576-1.266-.576-.594 0-1.022.17-1.308.522v4.67h-1.438V9.24c-.288-.352-.716-.522-1.31-.522-.47 0-.896.192-1.266.576-.316.324-.47.724-.47 1.216 0 .334.104.766.236.988l1.42 2.412h-1.746l-.998-1.69c-.328-.558-.396-1.086-.396-1.71 0-.344.058-.714.166-1.094l-.006.006s-.15-.018-.364-.018c-.494 0-.918.18-1.264.536-.29.296-.436.676-.436 1.128 0 .26.078.676.294.992l1.284 1.85H12.78l-.704-1.006c-.386-.554-.564-1.136-.564-1.836 0-.898.316-1.648.936-2.222.622-.642 1.378-.966 2.246-.966.372 0 .772.076 1.19.218q.05-.056.102-.104c.568-.53 1.286-.8 2.132-.8.734 0 1.416.226 2.028.67a3.4 3.4 0 0 1 2.028-.67c.848 0 1.564.27 2.134.8q.052.048.102.104a3.7 3.7 0 0 1 1.188-.218c.87 0 1.626.324 2.246.966.62.574.936 1.324.936 2.222 0 .7-.178 1.282-.562 1.836m-1.356 3.884h-13.43V15.35h13.43zm-6.716 10.074a3.837 3.837 0 1 1 0 7.672 3.837 3.837 0 1 1 0-7.672m2.878-5.756v1.918h-1.918v1.918h-1.92v-1.918h-1.918v-1.918h1.918v-1.92h1.92v1.92zm-1.878 21.988q-.04.513-.04 1.032c0 2.854.89 5.5 2.406 7.676H16.78a13.4 13.4 0 0 0 2.406-7.676q0-.519-.038-1.032a6.72 6.72 0 0 1-5.718-6.642h13.432a6.716 6.716 0 0 1-5.716 6.642m-9.634-20.07H9.594v1.918H7.676v-1.918h-1.92v-1.918h1.92v-1.92h1.918v1.92h1.918zm0 11.51H9.594v1.918H7.676v-1.918h-1.92v-1.918h1.92v-1.92h1.918v1.92h1.918zm0 11.512H9.594v1.918H7.676v-1.918h-1.92v-1.92h1.92v-1.918h1.918v1.918h1.918zm7.196-41.248h.96v-.96h.958v.96h.96v.958h-.96v.96h-.958v-.96h-.96zM0 57.556h40.29V0H0z" style="fill:#0083ca;fill-rule:nonzero"/><path d="M212.995.031h1.938v57.752h-1.938z" style="fill:#0083ca"/></svg>