<?xml version="1.0" encoding="UTF-8" standalone="no"?><!DOCTYPE svg PUBLIC "-//W3C//DTD SVG 1.1//EN" "http://www.w3.org/Graphics/SVG/1.1/DTD/svg11.dtd"><svg width="100%" height="100%" viewBox="0 0 308 173" version="1.1" xmlns="http://www.w3.org/2000/svg" xmlns:xlink="http://www.w3.org/1999/xlink" xml:space="preserve" xmlns:serif="http://www.serif.com/" style="fill-rule:evenodd;clip-rule:evenodd;stroke-linejoin:round;stroke-miterlimit:2;"><rect x="0" y="0" width="307.2" height="155.406" style="fill:#007bc4;"/><rect x="0" y="155.406" width="267.849" height="17.394" style="fill:#002b49;"/><rect x="267.849" y="155.406" width="39.351" height="17.394" style="fill:#f8690d;"/><path d="M30.432,19.679l-1.209,-0l0,1.208l-1.208,-0l-0,-1.208l-1.208,-0l0,-1.208l1.208,-0l-0,-1.209l1.208,0l0,1.209l1.209,-0l-0,1.208Zm-0,7.248l-1.209,-0l0,1.207l-1.208,0l-0,-1.207l-1.208,-0l0,-1.208l1.208,0l-0,-1.209l1.208,0l0,1.209l1.209,0l-0,1.208Zm-0,7.249l-1.209,-0l0,1.208l-1.208,-0l-0,-1.208l-1.208,-0l0,-1.208l1.208,0l-0,-1.209l1.208,0l0,1.209l1.209,0l-0,1.208Zm-3.979,-20.87l-0.444,0.634l-1.128,-0l0.807,-1.166c0.137,-0.199 0.185,-0.461 0.185,-0.624c0,-0.284 -0.092,-0.524 -0.273,-0.71c-0.206,-0.22 -0.496,-0.343 -0.797,-0.338c-0.133,-0 -0.229,0.011 -0.229,0.011l-0.003,-0.003c0.068,0.239 0.104,0.472 0.104,0.689c0,0.392 -0.042,0.726 -0.25,1.077l-0.629,1.064l-1.099,-0l0.895,-1.519c0.083,-0.141 0.149,-0.413 0.149,-0.622c-0,-0.31 -0.097,-0.562 -0.296,-0.766c-0.233,-0.241 -0.502,-0.363 -0.798,-0.363c-0.374,0 -0.644,0.107 -0.824,0.328l0,2.942l-0.905,-0l-0,-2.942c-0.181,-0.221 -0.451,-0.328 -0.825,-0.328c-0.297,0 -0.564,0.122 -0.797,0.363c-0.199,0.204 -0.297,0.456 -0.297,0.766c0,0.209 0.066,0.481 0.149,0.622l0.895,1.519l-1.099,-0l-0.629,-1.064c-0.207,-0.351 -0.25,-0.685 -0.25,-1.077c0,-0.217 0.037,-0.45 0.105,-0.689l-0.005,0.003c0,-0 -0.094,-0.011 -0.228,-0.011c-0.312,-0 -0.578,0.113 -0.795,0.338c-0.184,0.186 -0.275,0.426 -0.275,0.71c-0,0.163 0.048,0.425 0.185,0.624l0.808,1.166l-1.129,-0l-0.443,-0.634c-0.242,-0.349 -0.355,-0.715 -0.355,-1.156c0,-0.565 0.2,-1.038 0.589,-1.399c0.392,-0.404 0.868,-0.608 1.415,-0.608c0.234,-0 0.485,0.047 0.75,0.136c0.02,-0.022 0.041,-0.044 0.063,-0.065c0.358,-0.333 0.81,-0.503 1.343,-0.503c0.463,-0 0.891,0.141 1.278,0.421c0.368,-0.274 0.816,-0.422 1.276,-0.421c0.534,-0 0.984,0.17 1.343,0.503c0.023,0.02 0.044,0.042 0.065,0.065c0.24,-0.085 0.493,-0.131 0.748,-0.136c0.547,-0 1.025,0.204 1.415,0.608c0.39,0.361 0.589,0.834 0.589,1.399c0,0.441 -0.113,0.807 -0.354,1.156m-0.855,2.446l-8.456,0l-0,-0.906l8.456,0l0,0.906Zm-4.227,6.343c1.325,0 2.415,1.091 2.415,2.416c0,1.326 -1.09,2.416 -2.415,2.416l-0.05,0c-1.325,0 -2.416,-1.09 -2.416,-2.416c-0,-1.325 1.091,-2.416 2.416,-2.416l0.05,0Zm1.812,-3.624l-0,1.208l-1.209,-0l-0,1.208l-1.208,-0l0,-1.208l-1.208,-0l-0,-1.208l1.208,-0l0,-1.209l1.208,0l-0,1.209l1.209,-0Zm-1.183,13.846c-0.017,0.216 -0.026,0.433 -0.026,0.651c-0,1.796 0.561,3.463 1.516,4.832l-4.24,0c0.989,-1.417 1.518,-3.104 1.516,-4.832c0,-0.218 -0.008,-0.435 -0.024,-0.651c-2.061,-0.309 -3.601,-2.098 -3.6,-4.183l8.456,0c0.001,2.084 -1.538,3.873 -3.598,4.183m-6.067,-12.638l-1.208,-0l-0,1.208l-1.208,-0l0,-1.208l-1.208,-0l0,-1.208l1.208,-0l0,-1.209l1.208,0l-0,1.209l1.208,-0l0,1.208Zm0,7.248l-1.208,-0l-0,1.207l-1.208,0l0,-1.207l-1.208,-0l0,-1.208l1.208,0l0,-1.209l1.208,0l-0,1.209l1.208,0l0,1.208Zm0,7.249l-1.208,-0l-0,1.208l-1.208,-0l0,-1.208l-1.208,-0l0,-1.208l1.208,0l0,-1.209l1.208,0l-0,1.209l1.208,0l0,1.208Zm4.532,-25.975l0.603,-0l0,-0.603l0.605,-0l-0,0.603l0.604,-0l0,0.604l-0.604,0l-0,0.605l-0.605,-0l0,-0.605l-0.603,0l-0,-0.604Zm-11.78,33.224l25.371,0l0,-36.244l-25.371,-0l-0,36.244Zm44.749,-25.232c2.008,0 3.272,-1.348 3.272,-3.262c0,-0.24 -0.02,-0.46 -0.062,-0.658l-3.231,0l0.283,0.877l2.018,0c-0.115,1.35 -1.025,2.145 -2.28,2.145c-1.349,0 -2.259,-1.119 -2.259,-2.928c-0,-1.705 1.046,-2.846 2.542,-2.846c0.627,0 1.589,0.367 2.478,0.921l-0,-1.087c-0.711,-0.418 -1.673,-0.731 -2.478,-0.731c-2.145,-0 -3.545,1.494 -3.545,3.743c0,2.353 1.254,3.826 3.262,3.826m3.943,-0.188l0.993,0l0.711,-1.767l3.231,-0l0.7,1.767l1.035,0l-3.032,-7.214l-0.606,0l-3.032,7.214Zm2.049,-2.623l1.276,-3.169l1.265,3.169l-2.541,-0Zm5.731,2.623l4.579,0l-0.293,-0.877l-3.346,-0l-0,-6.337l-0.94,0l-0,7.214Zm5.082,0l0.993,0l0.711,-1.767l3.231,-0l0.7,1.767l1.035,0l-3.032,-7.214l-0.606,0l-3.032,7.214Zm2.049,-2.623l1.276,-3.169l1.265,3.169l-2.541,-0Zm5.731,2.623l0.94,0l-0,-3.053l0.23,-0l2.688,3.053l1.223,0l-2.771,-3.064c1.36,-0.073 2.217,-0.846 2.217,-2.091c-0,-1.297 -0.92,-2.059 -2.436,-2.059l-2.091,0l0,7.214Zm0.94,-3.847l-0,-2.511l1.109,0c0.931,0 1.496,0.471 1.496,1.224c-0,0.774 -0.628,1.287 -1.538,1.287l-1.067,0Zm5.292,-3.367l0.94,0l-0,7.214l-0.94,0l0,-7.214Zm2.05,7.214l0.993,0l0.711,-1.767l3.231,-0l0.7,1.767l1.035,0l-3.032,-7.214l-0.606,0l-3.032,7.214Zm2.049,-2.623l1.275,-3.169l1.265,3.169l-2.54,-0Zm-38.178,13.456l4.53,0l-0.296,-0.877l-3.282,-0l-0,-2.448l2.901,-0l-0,-0.877l-2.901,-0l-0,-2.135l3.24,0l0.296,-0.877l-4.488,0l-0,7.214Zm5.908,0l0.91,0l-0,-5.217l2.457,4.966l0.317,0l2.458,-4.976l-0,5.227l0.909,0l-0,-7.214l-0.846,0l-2.669,5.374l-2.669,-5.374l-0.867,0l0,7.214Zm9,0l0.952,0l0,-2.698l1.091,0c1.547,0 2.541,-0.835 2.541,-2.289c-0,-1.402 -0.973,-2.227 -2.562,-2.227l-2.022,0l0,7.214Zm0.952,-3.554l0,-2.804l1.028,0c0.995,0 1.61,0.523 1.61,1.371c0,0.879 -0.593,1.433 -1.589,1.433l-1.049,0Zm5.01,3.554l0.951,0l0,-3.053l0.234,-0l2.721,3.053l1.238,0l-2.805,-3.064c1.377,-0.073 2.244,-0.846 2.244,-2.09c0,-1.298 -0.93,-2.06 -2.466,-2.06l-2.117,0l-0,7.214Zm0.951,-3.847l0,-2.511l1.124,0c0.942,0 1.514,0.471 1.514,1.224c0,0.774 -0.636,1.287 -1.557,1.287l-1.081,0Zm5.36,3.847l4.53,0l-0.296,-0.877l-3.283,-0l-0,-2.448l2.901,-0l0,-0.877l-2.901,-0l-0,-2.135l3.24,0l0.297,-0.877l-4.488,0l-0,7.214Zm7.368,0.167c1.526,0 2.573,-0.793 2.573,-2.111c-0,-1.276 -0.867,-1.663 -2.128,-2.301c-0.869,-0.439 -1.335,-0.68 -1.335,-1.265c0,-0.523 0.435,-0.984 1.271,-0.984c0.583,0 1.314,0.262 2.001,0.628l0,-0.993c-0.56,-0.303 -1.291,-0.522 -2.001,-0.522c-1.387,-0 -2.233,0.846 -2.233,1.891c-0,1.235 0.899,1.632 1.958,2.155c0.858,0.419 1.483,0.743 1.483,1.433c-0,0.711 -0.635,1.182 -1.61,1.182c-0.551,-0 -1.313,-0.293 -1.926,-0.68l-0,1.004c0.497,0.313 1.227,0.563 1.947,0.563m3.357,-0.167l1.006,0l0.72,-1.767l3.271,-0l0.709,1.767l1.048,0l-3.07,-7.214l-0.614,0l-3.07,7.214Zm2.075,-2.623l1.291,-3.169l1.281,3.169l-2.572,-0Zm8.619,2.623l0.952,0l-0,-2.698l1.091,0c1.547,0 2.54,-0.835 2.54,-2.289c0,-1.402 -0.972,-2.227 -2.561,-2.227l-2.022,0l-0,7.214Zm0.952,-3.554l-0,-2.804l1.027,0c0.996,0 1.611,0.523 1.611,1.371c-0,0.879 -0.594,1.433 -1.59,1.433l-1.048,0Zm7.762,-4.413l1.504,-1.736l-1.239,0l-0.912,1.37l0.647,0.366Zm-0.117,8.156c1.653,-0 2.7,-0.982 2.7,-2.603l-0,-4.8l-0.952,0l-0,4.758c-0,1.119 -0.688,1.746 -1.748,1.746c-1.06,0 -1.748,-0.627 -1.748,-1.746l0,-4.758l-0.951,0l-0,4.8c-0,1.621 1.047,2.603 2.699,2.603m4.585,-0.189l2.53,0c1.42,0 2.319,-0.772 2.319,-2.111c-0,-0.806 -0.434,-1.423 -1.259,-1.726c0.592,-0.323 0.941,-0.847 0.941,-1.527c-0,-1.161 -0.825,-1.85 -2.233,-1.85l-2.298,0l0,7.214Zm0.952,-4.16l0,-2.219l1.282,0c0.848,0 1.324,0.419 1.324,1.057c0,0.691 -0.54,1.162 -1.218,1.162l-1.388,-0Zm0,3.325l0,-2.49l1.43,-0c0.933,-0 1.473,0.481 1.473,1.214c-0,0.774 -0.583,1.276 -1.409,1.276l-1.494,0Zm5.381,0.835l4.636,0l-0.297,-0.877l-3.388,-0l-0,-6.337l-0.951,0l-0,7.214Zm5.802,-7.214l0.951,0l0,7.214l-0.951,0l-0,-7.214Zm5.695,7.381c0.858,0 1.769,-0.313 2.436,-0.804l-0,-1.097c-0.805,0.596 -1.695,1.003 -2.436,1.003c-1.313,0 -2.202,-1.108 -2.202,-2.928c-0,-1.757 0.932,-2.824 2.202,-2.824c0.741,-0 1.631,0.408 2.436,1.004l-0,-1.098c-0.667,-0.491 -1.578,-0.804 -2.436,-0.804c-1.98,-0 -3.218,1.483 -3.218,3.722c0,2.301 1.196,3.826 3.218,3.826m3.22,-0.167l1.006,0l0.719,-1.767l3.271,-0l0.71,1.767l1.048,0l-3.07,-7.214l-0.614,0l-3.07,7.214Zm2.075,-2.623l1.291,-3.169l1.281,3.169l-2.572,-0Zm10.926,-4.591l-2.307,0l-0,7.214l2.413,0c2.013,0 3.377,-1.316 3.377,-3.659c0,-2.27 -1.385,-3.555 -3.483,-3.555m0.043,6.337l-1.398,-0l-0,-5.46l1.334,0c1.441,0 2.489,0.889 2.489,2.678c0,1.862 -1.006,2.782 -2.425,2.782m4.967,0.877l4.53,0l-0.296,-0.877l-3.283,-0l0,-2.448l2.901,-0l0,-0.877l-2.901,-0l0,-2.135l3.24,0l0.297,-0.877l-4.488,0l-0,7.214Zm-98.982,11.001c1.506,0 2.54,-0.793 2.54,-2.111c-0,-1.276 -0.856,-1.663 -2.101,-2.301c-0.858,-0.439 -1.318,-0.68 -1.318,-1.265c-0,-0.523 0.429,-0.983 1.255,-0.983c0.576,-0 1.298,0.261 1.976,0.627l0,-0.993c-0.553,-0.303 -1.275,-0.522 -1.976,-0.522c-1.37,0 -2.205,0.846 -2.205,1.891c-0,1.235 0.887,1.632 1.933,2.155c0.848,0.419 1.465,0.743 1.465,1.433c-0,0.711 -0.628,1.182 -1.59,1.182c-0.544,-0 -1.297,-0.293 -1.903,-0.68l0,1.004c0.491,0.313 1.212,0.563 1.924,0.563m4.026,-0.167l4.475,0l-0.293,-0.877l-3.242,-0l0,-2.448l2.865,-0l0,-0.877l-2.865,-0l0,-2.135l3.2,0l0.293,-0.877l-4.433,0l0,7.214Zm5.835,0l0.94,0l0,-3.053l0.23,-0l2.688,3.053l1.223,0l-2.77,-3.064c1.36,-0.073 2.216,-0.846 2.216,-2.09c-0,-1.298 -0.919,-2.06 -2.436,-2.06l-2.091,0l0,7.214Zm0.94,-3.847l0,-2.511l1.109,0c0.931,0 1.496,0.471 1.496,1.224c0,0.774 -0.627,1.287 -1.538,1.287l-1.067,0Zm7.195,3.952l0.481,-0l2.864,-7.319l-0.982,0l-2.112,5.573l-2.091,-5.573l-1.025,0l2.865,7.319Zm4.455,-7.319l0.94,0l0,7.214l-0.94,0l0,-7.214Zm2.259,7.214l5.331,0l-0.281,-0.877l-3.649,-0l3.847,-6.003l-0,-0.334l-5.186,0l0.283,0.877l3.502,0l-3.847,6.003l-0,0.334Zm9.212,0.189c1.987,-0 3.251,-1.474 3.251,-3.848c-0,-2.26 -1.264,-3.743 -3.251,-3.743c-1.988,-0 -3.252,1.483 -3.252,3.743c0,2.374 1.264,3.848 3.252,3.848m-0,-0.898c-1.371,-0 -2.249,-1.047 -2.249,-2.95c-0,-1.778 0.878,-2.845 2.249,-2.845c1.37,-0 2.249,1.067 2.249,2.845c-0,1.903 -0.879,2.95 -2.249,2.95m6.2,0.876c1.507,0 2.541,-0.793 2.541,-2.111c0,-1.276 -0.856,-1.663 -2.101,-2.301c-0.858,-0.439 -1.319,-0.68 -1.319,-1.265c0,-0.523 0.429,-0.983 1.256,-0.983c0.575,-0 1.297,0.261 1.976,0.627l-0,-0.993c-0.553,-0.303 -1.275,-0.522 -1.976,-0.522c-1.37,0 -2.206,0.846 -2.206,1.891c0,1.235 0.888,1.632 1.934,2.155c0.847,0.419 1.465,0.743 1.465,1.433c-0,0.711 -0.628,1.182 -1.591,1.182c-0.543,-0 -1.296,-0.293 -1.902,-0.68l-0,1.004c0.491,0.313 1.212,0.563 1.923,0.563m8.251,0c1.507,0 2.541,-0.793 2.541,-2.111c-0,-1.276 -0.857,-1.663 -2.102,-2.301c-0.858,-0.439 -1.318,-0.68 -1.318,-1.265c0,-0.523 0.429,-0.983 1.256,-0.983c0.575,-0 1.297,0.261 1.975,0.627l0,-0.993c-0.553,-0.303 -1.275,-0.522 -1.975,-0.522c-1.371,0 -2.206,0.846 -2.206,1.891c-0,1.235 0.887,1.632 1.934,2.155c0.847,0.419 1.464,0.743 1.464,1.433c0,0.711 -0.628,1.182 -1.59,1.182c-0.544,-0 -1.296,-0.293 -1.902,-0.68l-0,1.004c0.49,0.313 1.211,0.563 1.923,0.563m3.315,-0.167l0.994,0l0.711,-1.767l3.23,-0l0.701,1.767l1.035,0l-3.032,-7.214l-0.607,0l-3.032,7.214Zm2.05,-2.623l1.275,-3.169l1.265,3.169l-2.54,-0Zm5.73,2.623l0.94,0l0,-5.51l3.954,5.51l0.532,0l0,-7.214l-0.939,0l-0,5.144l-3.693,-5.144l-0.794,0l0,7.214Zm7.351,-7.214l0.94,0l0,7.214l-0.94,0l0,-7.214Zm4.936,7.214l0.94,0l0,-6.337l2.614,0l0.293,-0.877l-6.754,0l0.293,0.877l2.614,0l0,6.337Zm3.305,0l0.993,0l0.711,-1.767l3.231,-0l0.7,1.767l1.035,0l-3.032,-7.214l-0.606,0l-3.032,7.214Zm2.049,-2.623l1.275,-3.169l1.265,3.169l-2.54,-0Zm5.731,2.623l0.94,0l-0,-3.053l0.23,-0l2.688,3.053l1.223,0l-2.771,-3.064c1.36,-0.073 2.216,-0.846 2.216,-2.09c0,-1.298 -0.919,-2.06 -2.435,-2.06l-2.091,0l-0,7.214Zm0.94,-3.847l-0,-2.511l1.109,0c0.93,0 1.496,0.471 1.496,1.224c-0,0.774 -0.628,1.287 -1.538,1.287l-1.067,0Zm5.292,-3.367l0.94,0l-0,7.214l-0.94,0l-0,-7.214Zm5.698,7.403c1.988,-0 3.252,-1.474 3.252,-3.848c-0,-2.26 -1.264,-3.743 -3.252,-3.743c-1.987,-0 -3.251,1.483 -3.251,3.743c-0,2.374 1.264,3.848 3.251,3.848m0,-0.898c-1.37,-0 -2.248,-1.047 -2.248,-2.95c-0,-1.778 0.878,-2.845 2.248,-2.845c1.371,-0 2.25,1.067 2.25,2.845c-0,1.903 -0.879,2.95 -2.25,2.95m6.201,0.876c1.507,0 2.541,-0.793 2.541,-2.111c-0,-1.276 -0.856,-1.663 -2.101,-2.301c-0.858,-0.439 -1.319,-0.68 -1.319,-1.265c0,-0.523 0.429,-0.983 1.256,-0.983c0.575,-0 1.297,0.261 1.976,0.627l0,-0.993c-0.554,-0.303 -1.275,-0.522 -1.976,-0.522c-1.371,0 -2.206,0.846 -2.206,1.891c0,1.235 0.888,1.632 1.934,2.155c0.847,0.419 1.465,0.743 1.465,1.433c-0,0.711 -0.628,1.182 -1.59,1.182c-0.545,-0 -1.297,-0.293 -1.903,-0.68l0,1.004c0.491,0.313 1.212,0.563 1.923,0.563" style="fill:#fff;fill-rule:nonzero;"/><rect x="41.199" y="5.198" width="1.216" height="36.227" style="fill:#fff;"/><path d="M276.616,167.46l1.26,-0l0,-6.39l-0.342,-0l-2.673,1.548l0,1.35l1.755,-1.026l0,4.518Z" style="fill:#fff;fill-rule:nonzero;"/><path d="M279.892,167.586c0.486,-0 0.828,-0.342 0.828,-0.846c0,-0.486 -0.342,-0.828 -0.828,-0.828c-0.504,-0 -0.846,0.342 -0.846,0.828c0,0.504 0.342,0.846 0.846,0.846Z" style="fill:#fff;fill-rule:nonzero;"/><path d="M284.005,167.604c1.512,-0 2.457,-1.098 2.457,-3.339c0,-2.151 -0.945,-3.249 -2.457,-3.249c-1.512,-0 -2.457,1.098 -2.457,3.249c0,2.241 0.945,3.339 2.457,3.339Zm0,-1.134c-0.702,-0 -1.161,-0.648 -1.161,-2.205c0,-1.467 0.459,-2.115 1.161,-2.115c0.702,-0 1.161,0.648 1.161,2.115c0,1.557 -0.459,2.205 -1.161,2.205Z" style="fill:#fff;fill-rule:nonzero;"/><path d="M289.882,167.46l1.251,-0l0,-2.475l0.162,-0l1.908,2.475l1.53,-0l-2.088,-2.547c1.008,-0.207 1.611,-0.882 1.611,-1.854c0,-1.197 -0.81,-1.899 -2.322,-1.899l-2.052,-0l0,6.3Zm1.251,-3.501l0,-1.701l0.765,-0c0.72,-0 1.062,0.306 1.062,0.819c0,0.558 -0.432,0.882 -1.116,0.882l-0.711,-0Z" style="fill:#fff;fill-rule:nonzero;"/><path d="M298.099,167.622c0.702,-0 1.431,-0.234 1.962,-0.567l0,-1.278c-0.612,0.378 -1.314,0.675 -1.89,0.675c-0.981,-0 -1.656,-0.792 -1.656,-2.187c0,-1.287 0.702,-2.097 1.656,-2.097c0.576,-0 1.278,0.297 1.89,0.675l0,-1.278c-0.531,-0.333 -1.26,-0.567 -1.962,-0.567c-1.782,-0 -2.916,1.314 -2.916,3.267c0,2.061 1.107,3.357 2.916,3.357Z" style="fill:#fff;fill-rule:nonzero;"/><path d="M11.961,167.631c1.728,-0 2.817,-1.161 2.817,-2.808c-0,-0.207 -0.018,-0.396 -0.054,-0.567l-2.781,-0l0.243,0.756l1.737,-0c-0.099,1.161 -0.882,1.845 -1.962,1.845c-1.161,-0 -1.944,-0.963 -1.944,-2.52c-0,-1.467 0.9,-2.448 2.187,-2.448c0.54,-0 1.368,0.315 2.133,0.792l-0,-0.936c-0.612,-0.36 -1.44,-0.63 -2.133,-0.63c-1.845,-0 -3.051,1.287 -3.051,3.222c-0,2.025 1.08,3.294 2.808,3.294Z" style="fill:#fff;fill-rule:nonzero;"/><path d="M17.883,167.613c0.531,-0 1.161,-0.189 1.548,-0.432l-0,-0.747c-0.486,0.27 -1.053,0.477 -1.53,0.477c-0.756,-0 -1.278,-0.567 -1.341,-1.521l3.096,-0c0.027,-0.162 0.045,-0.36 0.045,-0.531c-0,-1.197 -0.756,-2.052 -1.872,-2.052c-1.269,-0 -2.043,0.954 -2.043,2.394c-0,1.476 0.792,2.412 2.097,2.412Zm-1.305,-2.835c0.099,-0.837 0.531,-1.287 1.233,-1.287c0.693,-0 1.116,0.522 1.116,1.287l-2.349,-0Z" style="fill:#fff;fill-rule:nonzero;"/><path d="M22.158,167.595c1.08,-0 1.764,-0.558 1.764,-1.404c-0,-0.846 -0.594,-1.152 -1.44,-1.377c-0.549,-0.144 -1.089,-0.27 -1.089,-0.702c-0,-0.306 0.27,-0.585 0.864,-0.585c0.405,-0 0.963,0.162 1.476,0.387l-0,-0.756c-0.441,-0.189 -0.999,-0.315 -1.476,-0.315c-1.044,-0 -1.602,0.594 -1.602,1.287c-0,0.972 0.756,1.161 1.494,1.359c0.558,0.153 1.017,0.288 1.017,0.738c-0,0.396 -0.378,0.675 -1.026,0.675c-0.396,-0 -0.999,-0.18 -1.467,-0.396l-0,0.774c0.405,0.189 0.945,0.315 1.485,0.315Z" style="fill:#fff;fill-rule:nonzero;"/><path d="M26.865,167.541c0.387,-0 0.837,-0.099 1.179,-0.243l-0,-0.72c-0.378,0.153 -0.81,0.261 -1.107,0.261c-0.441,-0 -0.747,-0.333 -0.747,-0.792l-0,-2.394l1.728,-0l-0,-0.684l-1.728,-0l-0,-1.188l-0.756,-0l-0,1.188l-0.9,-0l-0,0.684l0.9,-0l-0,2.448c-0,0.837 0.504,1.44 1.431,1.44Z" style="fill:#fff;fill-rule:nonzero;"/><path d="M29.403,162.177c0.288,-0 0.531,-0.234 0.531,-0.531c-0,-0.288 -0.243,-0.531 -0.531,-0.531c-0.297,-0 -0.531,0.243 -0.531,0.531c-0,0.297 0.234,0.531 0.531,0.531Zm-0.378,5.292l0.756,-0l-0,-4.5l-0.756,-0l-0,4.5Z" style="fill:#fff;fill-rule:nonzero;"/><path d="M33.192,162.321l1.278,-1.494l-1.053,-0l-0.774,1.179l0.549,0.315Zm-0.099,5.31c1.296,-0 2.097,-0.918 2.097,-2.448c-0,-1.476 -0.801,-2.376 -2.097,-2.376c-1.296,-0 -2.097,0.9 -2.097,2.376c-0,1.53 0.801,2.448 2.097,2.448Zm-0,-0.702c-0.81,-0 -1.305,-0.612 -1.305,-1.746c-0,-1.08 0.495,-1.674 1.305,-1.674c0.81,-0 1.305,0.594 1.305,1.674c-0,1.134 -0.495,1.746 -1.305,1.746Z" style="fill:#fff;fill-rule:nonzero;"/><path d="M36.36,167.469l0.756,-0l-0,-3.528c0.396,-0.225 0.9,-0.414 1.278,-0.414c0.576,-0 0.954,0.414 0.954,1.026l-0,2.916l0.756,-0l-0,-3.042c-0,-0.972 -0.63,-1.602 -1.584,-1.602c-0.513,-0 -1.053,0.189 -1.449,0.423l-0.477,-0.279l-0.234,-0l-0,4.5Z" style="fill:#fff;fill-rule:nonzero;"/><path d="M45.558,167.631c0.459,-0 1.017,-0.252 1.368,-0.621l-0,0.459l0.72,-0l-0,-6.732l-0.756,-0l-0,2.565c-0.333,-0.288 -0.81,-0.495 -1.242,-0.495c-1.224,-0 -1.998,0.918 -1.998,2.376c-0,1.512 0.72,2.448 1.908,2.448Zm0.072,-0.702c-0.684,-0 -1.188,-0.63 -1.188,-1.746c-0,-1.044 0.531,-1.674 1.224,-1.674c0.369,-0 0.855,0.225 1.224,0.549l-0,2.214c-0.387,0.387 -0.864,0.657 -1.26,0.657Z" style="fill:#fff;fill-rule:nonzero;"/><path d="M50.913,167.613c0.531,-0 1.161,-0.189 1.548,-0.432l-0,-0.747c-0.486,0.27 -1.053,0.477 -1.53,0.477c-0.756,-0 -1.278,-0.567 -1.341,-1.521l3.096,-0c0.027,-0.162 0.045,-0.36 0.045,-0.531c-0,-1.197 -0.756,-2.052 -1.872,-2.052c-1.269,-0 -2.043,0.954 -2.043,2.394c-0,1.476 0.792,2.412 2.097,2.412Zm-1.305,-2.835c0.099,-0.837 0.531,-1.287 1.233,-1.287c0.693,-0 1.116,0.522 1.116,1.287l-2.349,-0Z" style="fill:#fff;fill-rule:nonzero;"/><path d="M56.7,162.177c0.288,-0 0.531,-0.234 0.531,-0.531c-0,-0.288 -0.243,-0.531 -0.531,-0.531c-0.297,-0 -0.531,0.243 -0.531,0.531c-0,0.297 0.234,0.531 0.531,0.531Zm-0.378,5.292l0.756,-0l-0,-4.5l-0.756,-0l-0,4.5Z" style="fill:#fff;fill-rule:nonzero;"/><path d="M58.563,167.469l0.756,-0l-0,-3.528c0.396,-0.225 0.9,-0.414 1.278,-0.414c0.576,-0 0.954,0.414 0.954,1.026l-0,2.916l0.756,-0l-0,-3.042c-0,-0.972 -0.63,-1.602 -1.584,-1.602c-0.513,-0 -1.053,0.189 -1.449,0.423l-0.477,-0.279l-0.234,-0l-0,4.5Z" style="fill:#fff;fill-rule:nonzero;"/><path d="M65.106,167.559l0.306,-0l2.061,-4.59l-0.819,-0l-1.395,3.213l-1.359,-3.213l-0.855,-0l2.061,4.59Z" style="fill:#fff;fill-rule:nonzero;"/><path d="M70.074,167.613c0.531,-0 1.161,-0.189 1.548,-0.432l-0,-0.747c-0.486,0.27 -1.053,0.477 -1.53,0.477c-0.756,-0 -1.278,-0.567 -1.341,-1.521l3.096,-0c0.027,-0.162 0.045,-0.36 0.045,-0.531c-0,-1.197 -0.756,-2.052 -1.872,-2.052c-1.269,-0 -2.043,0.954 -2.043,2.394c-0,1.476 0.792,2.412 2.097,2.412Zm-1.305,-2.835c0.099,-0.837 0.531,-1.287 1.233,-1.287c0.693,-0 1.116,0.522 1.116,1.287l-2.349,-0Z" style="fill:#fff;fill-rule:nonzero;"/><path d="M73.044,167.469l0.756,-0l-0,-3.528c0.396,-0.225 0.9,-0.414 1.278,-0.414c0.576,-0 0.954,0.414 0.954,1.026l-0,2.916l0.756,-0l-0,-3.042c-0,-0.972 -0.63,-1.602 -1.584,-1.602c-0.513,-0 -1.053,0.189 -1.449,0.423l-0.477,-0.279l-0.234,-0l-0,4.5Z" style="fill:#fff;fill-rule:nonzero;"/><path d="M79.929,167.541c0.387,-0 0.837,-0.099 1.179,-0.243l-0,-0.72c-0.378,0.153 -0.81,0.261 -1.107,0.261c-0.441,-0 -0.747,-0.333 -0.747,-0.792l-0,-2.394l1.728,-0l-0,-0.684l-1.728,-0l-0,-1.188l-0.756,-0l-0,1.188l-0.9,-0l-0,0.684l0.9,-0l-0,2.448c-0,0.837 0.504,1.44 1.431,1.44Z" style="fill:#fff;fill-rule:nonzero;"/><path d="M83.34,167.631c0.45,-0 0.981,-0.18 1.359,-0.45l0.477,0.288l0.234,-0l-0,-3.168c-0,-0.882 -0.576,-1.476 -1.656,-1.476c-0.495,-0 -1.152,0.153 -1.611,0.333l-0,0.756c0.495,-0.216 1.098,-0.405 1.521,-0.405c0.63,-0 0.99,0.333 0.99,0.882l-0,0.387l-0.891,-0c-1.35,-0 -1.953,0.63 -1.953,1.404c-0,0.828 0.522,1.449 1.53,1.449Zm0.054,-0.684c-0.495,-0 -0.819,-0.324 -0.819,-0.765c-0,-0.423 0.387,-0.792 1.287,-0.792l0.792,-0l-0,1.134c-0.405,0.243 -0.873,0.423 -1.26,0.423Z" style="fill:#fff;fill-rule:nonzero;"/><path d="M86.814,167.469l0.756,-0l-0,-2.718c0.495,-0.576 1.26,-0.99 2.034,-0.99l-0,-0.846c-0.864,-0 -1.629,0.513 -2.052,1.134l-0,-1.08l-0.738,-0l-0,4.5Z" style="fill:#fff;fill-rule:nonzero;"/><path d="M90.909,162.177c0.288,-0 0.531,-0.234 0.531,-0.531c-0,-0.288 -0.243,-0.531 -0.531,-0.531c-0.297,-0 -0.531,0.243 -0.531,0.531c-0,0.297 0.234,0.531 0.531,0.531Zm-0.378,5.292l0.756,-0l-0,-4.5l-0.756,-0l-0,4.5Z" style="fill:#fff;fill-rule:nonzero;"/><path d="M94.599,167.631c1.296,-0 2.097,-0.918 2.097,-2.448c-0,-1.476 -0.801,-2.376 -2.097,-2.376c-1.296,-0 -2.097,0.9 -2.097,2.376c-0,1.53 0.801,2.448 2.097,2.448Zm-0,-0.702c-0.81,-0 -1.305,-0.612 -1.305,-1.746c-0,-1.08 0.495,-1.674 1.305,-1.674c0.81,-0 1.305,0.594 1.305,1.674c-0,1.134 -0.495,1.746 -1.305,1.746Z" style="fill:#fff;fill-rule:nonzero;"/><path d="M100.557,169.485l0.774,-0l2.646,-6.516l-0.81,-0l-1.395,3.483l-1.332,-3.483l-0.846,-0l1.782,4.473l-0.819,2.043Z" style="fill:#fff;fill-rule:nonzero;"/><path d="M108.882,167.613c0.486,-0 1.044,-0.171 1.422,-0.414l-0,-0.792c-0.432,0.27 -0.972,0.504 -1.422,0.504c-0.747,-0 -1.215,-0.648 -1.215,-1.728c-0,-1.035 0.468,-1.656 1.215,-1.656c0.423,-0 0.99,0.234 1.422,0.504l-0,-0.792c-0.378,-0.243 -0.927,-0.414 -1.404,-0.414c-1.296,-0 -2.025,0.891 -2.025,2.358c-0,1.512 0.72,2.43 2.007,2.43Z" style="fill:#fff;fill-rule:nonzero;"/><path d="M113.265,167.631c1.296,-0 2.097,-0.918 2.097,-2.448c-0,-1.476 -0.801,-2.376 -2.097,-2.376c-1.296,-0 -2.097,0.9 -2.097,2.376c-0,1.53 0.801,2.448 2.097,2.448Zm-0,-0.702c-0.81,-0 -1.305,-0.612 -1.305,-1.746c-0,-1.08 0.495,-1.674 1.305,-1.674c0.81,-0 1.305,0.594 1.305,1.674c-0,1.134 -0.495,1.746 -1.305,1.746Z" style="fill:#fff;fill-rule:nonzero;"/><path d="M116.532,167.469l0.756,-0l-0,-3.528c0.396,-0.225 0.9,-0.414 1.278,-0.414c0.576,-0 0.954,0.414 0.954,1.026l-0,2.916l0.756,-0l-0,-3.042c-0,-0.972 -0.63,-1.602 -1.584,-1.602c-0.513,-0 -1.053,0.189 -1.449,0.423l-0.477,-0.279l-0.234,-0l-0,4.5Z" style="fill:#fff;fill-rule:nonzero;"/><path d="M123.417,167.541c0.387,-0 0.837,-0.099 1.179,-0.243l-0,-0.72c-0.378,0.153 -0.81,0.261 -1.107,0.261c-0.441,-0 -0.747,-0.333 -0.747,-0.792l-0,-2.394l1.728,-0l-0,-0.684l-1.728,-0l-0,-1.188l-0.756,-0l-0,1.188l-0.9,-0l-0,0.684l0.9,-0l-0,2.448c-0,0.837 0.504,1.44 1.431,1.44Z" style="fill:#fff;fill-rule:nonzero;"/><path d="M125.532,167.469l0.756,-0l-0,-2.718c0.495,-0.576 1.26,-0.99 2.034,-0.99l-0,-0.846c-0.864,-0 -1.629,0.513 -2.052,1.134l-0,-1.08l-0.738,-0l-0,4.5Z" style="fill:#fff;fill-rule:nonzero;"/><path d="M130.41,167.631c0.45,-0 0.981,-0.18 1.359,-0.45l0.477,0.288l0.234,-0l-0,-3.168c-0,-0.882 -0.576,-1.476 -1.656,-1.476c-0.495,-0 -1.152,0.153 -1.611,0.333l-0,0.756c0.495,-0.216 1.098,-0.405 1.521,-0.405c0.63,-0 0.99,0.333 0.99,0.882l-0,0.387l-0.891,-0c-1.35,-0 -1.953,0.63 -1.953,1.404c-0,0.828 0.522,1.449 1.53,1.449Zm0.054,-0.684c-0.495,-0 -0.819,-0.324 -0.819,-0.765c-0,-0.423 0.387,-0.792 1.287,-0.792l0.792,-0l-0,1.134c-0.405,0.243 -0.873,0.423 -1.26,0.423Z" style="fill:#fff;fill-rule:nonzero;"/><path d="M135.621,167.541c0.387,-0 0.837,-0.099 1.179,-0.243l-0,-0.72c-0.378,0.153 -0.81,0.261 -1.107,0.261c-0.441,-0 -0.747,-0.333 -0.747,-0.792l-0,-2.394l1.728,-0l-0,-0.684l-1.728,-0l-0,-1.188l-0.756,-0l-0,1.188l-0.9,-0l-0,0.684l0.9,-0l-0,2.448c-0,0.837 0.504,1.44 1.431,1.44Z" style="fill:#fff;fill-rule:nonzero;"/><path d="M139.491,167.631c1.296,-0 2.097,-0.918 2.097,-2.448c-0,-1.476 -0.801,-2.376 -2.097,-2.376c-1.296,-0 -2.097,0.9 -2.097,2.376c-0,1.53 0.801,2.448 2.097,2.448Zm-0,-0.702c-0.81,-0 -1.305,-0.612 -1.305,-1.746c-0,-1.08 0.495,-1.674 1.305,-1.674c0.81,-0 1.305,0.594 1.305,1.674c-0,1.134 -0.495,1.746 -1.305,1.746Z" style="fill:#fff;fill-rule:nonzero;"/><path d="M144.063,167.595c1.08,-0 1.764,-0.558 1.764,-1.404c-0,-0.846 -0.594,-1.152 -1.44,-1.377c-0.549,-0.144 -1.089,-0.27 -1.089,-0.702c-0,-0.306 0.27,-0.585 0.864,-0.585c0.405,-0 0.963,0.162 1.476,0.387l-0,-0.756c-0.441,-0.189 -0.999,-0.315 -1.476,-0.315c-1.044,-0 -1.602,0.594 -1.602,1.287c-0,0.972 0.756,1.161 1.494,1.359c0.558,0.153 1.017,0.288 1.017,0.738c-0,0.396 -0.378,0.675 -1.026,0.675c-0.396,-0 -0.999,-0.18 -1.467,-0.396l-0,0.774c0.405,0.189 0.945,0.315 1.485,0.315Z" style="fill:#fff;fill-rule:nonzero;"/><g transform="matrix(0.24,0,0,0.24,-377.755,-1.41276)"><g transform="matrix(100,0,0,100,2065.18,365.887)"><path d="M0.278,-0l0.092,-0l0,-0.001l0.002,0.001l0.272,-0.7l-0.149,0l-0.17,0.456l-0.166,-0.456l-0.153,0l0.272,0.7Z" style="fill:#fff;fill-rule:nonzero;"/></g><g transform="matrix(100,0,0,100,2130.18,365.887)"><rect x="0.084" y="-0.7" width="0.14" height="0.7" style="fill:#fff;fill-rule:nonzero;"/></g><g transform="matrix(100,0,0,100,2160.98,365.887)"><path d="M0.31,-0.7l-0.226,0l0,0.7l0.24,-0c0.201,-0 0.339,-0.126 0.339,-0.355c0,-0.224 -0.144,-0.345 -0.353,-0.345Zm0.01,0.572l-0.096,-0l-0,-0.444l0.088,-0c0.118,-0 0.203,0.07 0.203,0.217c-0,0.154 -0.08,0.227 -0.195,0.227Z" style="fill:#fff;fill-rule:nonzero;"/></g><g transform="matrix(100,0,0,100,2231.68,365.887)"><path d="M0.084,-0l0.467,-0l-0.042,-0.128l-0.285,0l0,-0.174l0.253,0l0,-0.124l-0.253,0l0,-0.146l0.283,0l0.042,-0.128l-0.465,0l-0,0.7Z" style="fill:#fff;fill-rule:nonzero;"/></g><g transform="matrix(100,0,0,100,2288.78,365.887)"><path d="M0.37,0.018c0.196,0 0.326,-0.136 0.326,-0.373c0,-0.227 -0.13,-0.363 -0.326,-0.363c-0.196,0 -0.326,0.136 -0.326,0.363c0,0.237 0.13,0.373 0.326,0.373Zm0,-0.13c-0.108,-0 -0.178,-0.079 -0.178,-0.243c0,-0.153 0.07,-0.233 0.178,-0.233c0.108,0 0.178,0.08 0.178,0.233c0,0.164 -0.07,0.243 -0.178,0.243Z" style="fill:#fff;fill-rule:nonzero;"/></g><g transform="matrix(100,0,0,100,1821.58,465.887)"><path d="M0.31,-0.7l-0.226,0l0,0.7l0.24,-0c0.201,-0 0.339,-0.126 0.339,-0.355c0,-0.224 -0.144,-0.345 -0.353,-0.345Zm0.01,0.572l-0.096,-0l-0,-0.444l0.088,-0c0.118,-0 0.203,0.07 0.203,0.217c-0,0.154 -0.08,0.227 -0.195,0.227Z" style="fill:#fff;fill-rule:nonzero;"/></g><g transform="matrix(100,0,0,100,1892.28,465.887)"><path d="M0.084,-0l0.467,-0l-0.042,-0.128l-0.285,0l0,-0.174l0.253,0l0,-0.124l-0.253,0l0,-0.146l0.283,0l0.042,-0.128l-0.465,0l-0,0.7Z" style="fill:#fff;fill-rule:nonzero;"/></g><g transform="matrix(100,0,0,100,1950.38,465.887)"><path d="M0.084,-0l0.132,-0l-0,-0.411l0.188,0.377l0.062,0l0.188,-0.377l0,0.411l0.132,-0l0,-0.7l-0.11,0l-0.238,0.465l-0.238,-0.465l-0.116,0l-0,0.7Z" style="fill:#fff;fill-rule:nonzero;"/></g><g transform="matrix(100,0,0,100,2037.38,465.887)"><path d="M0.37,0.018c0.196,0 0.326,-0.136 0.326,-0.373c0,-0.227 -0.13,-0.363 -0.326,-0.363c-0.196,0 -0.326,0.136 -0.326,0.363c0,0.237 0.13,0.373 0.326,0.373Zm0,-0.13c-0.108,-0 -0.178,-0.079 -0.178,-0.243c0,-0.153 0.07,-0.233 0.178,-0.233c0.108,0 0.178,0.08 0.178,0.233c0,0.164 -0.07,0.243 -0.178,0.243Z" style="fill:#fff;fill-rule:nonzero;"/></g><g transform="matrix(100,0,0,100,2111.38,465.887)"><path d="M0.236,0.016c0.16,0 0.273,-0.085 0.273,-0.217c0,-0.135 -0.088,-0.175 -0.183,-0.213c-0.098,-0.039 -0.14,-0.056 -0.14,-0.102c0,-0.038 0.034,-0.072 0.099,-0.072c0.055,0 0.135,0.025 0.198,0.057l-0,-0.139c-0.058,-0.025 -0.131,-0.046 -0.198,-0.046c-0.152,0 -0.239,0.094 -0.239,0.202c-0,0.12 0.077,0.166 0.176,0.206c0.095,0.038 0.145,0.06 0.145,0.109c0,0.049 -0.049,0.087 -0.133,0.087c-0.056,0 -0.131,-0.026 -0.19,-0.059l0,0.141c0.049,0.026 0.122,0.046 0.192,0.046Z" style="fill:#fff;fill-rule:nonzero;"/></g><g transform="matrix(100,0,0,100,2166.28,465.887)"><path d="M0.266,-0l0.14,-0l0,-0.572l0.218,0l0.042,-0.128l-0.66,0l0.042,0.128l0.218,0l0,0.572Z" style="fill:#fff;fill-rule:nonzero;"/></g><g transform="matrix(100,0,0,100,2233.48,465.887)"><path d="M0.084,-0l0.139,-0l-0,-0.275l0.018,0l0.212,0.275l0.17,-0l-0.232,-0.283c0.112,-0.023 0.179,-0.098 0.179,-0.206c0,-0.133 -0.09,-0.211 -0.258,-0.211l-0.228,0l-0,0.7Zm0.139,-0.389l-0,-0.189l0.085,0c0.08,0 0.118,0.034 0.118,0.091c-0,0.062 -0.048,0.098 -0.124,0.098l-0.079,0Z" style="fill:#fff;fill-rule:nonzero;"/></g><g transform="matrix(100,0,0,100,2297.38,465.887)"><path d="M0.006,-0l0.142,-0l0.053,-0.134l0.294,0l0.052,0.134l0.149,-0l-0.289,-0.7l-0.111,0l-0.29,0.7Zm0.243,-0.256l0.1,-0.256l0.099,0.256l-0.199,0Z" style="fill:#fff;fill-rule:nonzero;"/></g><g transform="matrix(100,0,0,100,2366.58,465.887)"><path d="M0.368,0.018c0.078,0 0.159,-0.026 0.218,-0.063l0,-0.142c-0.068,0.042 -0.146,0.075 -0.21,0.075c-0.109,0 -0.184,-0.088 -0.184,-0.243c0,-0.143 0.078,-0.233 0.184,-0.233c0.064,0 0.142,0.033 0.21,0.075l0,-0.142c-0.059,-0.037 -0.14,-0.063 -0.218,-0.063c-0.198,0 -0.324,0.146 -0.324,0.363c0,0.229 0.123,0.373 0.324,0.373Z" style="fill:#fff;fill-rule:nonzero;"/></g><g transform="matrix(100,0,0,100,2429.58,465.887)"><rect x="0.084" y="-0.7" width="0.14" height="0.7" style="fill:#fff;fill-rule:nonzero;"/></g><g transform="matrix(100,0,0,100,2460.38,465.887)"><path d="M0.372,-0.766l0.176,-0.186l-0.165,-0l-0.095,0.147l0.084,0.039Zm-0.002,0.784c0.196,-0 0.326,-0.136 0.326,-0.373c0,-0.227 -0.13,-0.363 -0.326,-0.363c-0.196,-0 -0.326,0.136 -0.326,0.363c-0,0.237 0.13,0.373 0.326,0.373Zm-0,-0.13c-0.108,-0 -0.178,-0.079 -0.178,-0.243c-0,-0.153 0.07,-0.233 0.178,-0.233c0.108,-0 0.178,0.08 0.178,0.233c0,0.164 -0.07,0.243 -0.178,0.243Z" style="fill:#fff;fill-rule:nonzero;"/></g><g transform="matrix(100,0,0,100,2534.38,465.887)"><path d="M0.084,-0l0.136,-0l-0,-0.449l0.334,0.449l0.082,-0l0,-0.7l-0.136,0l0,0.418l-0.31,-0.418l-0.106,0l0,0.7Z" style="fill:#fff;fill-rule:nonzero;"/></g></g></svg>