<?xml version="1.0" encoding="UTF-8" standalone="no"?><!DOCTYPE svg PUBLIC "-//W3C//DTD SVG 1.1//EN" "http://www.w3.org/Graphics/SVG/1.1/DTD/svg11.dtd"><svg width="100%" height="100%" viewBox="0 0 1440 300" version="1.1" xmlns="http://www.w3.org/2000/svg" xmlns:xlink="http://www.w3.org/1999/xlink" xml:space="preserve" xmlns:serif="http://www.serif.com/" style="fill-rule:evenodd;clip-rule:evenodd;stroke-linejoin:round;stroke-miterlimit:2;"><clipPath id="_clip1"><rect id="Logo_EUPL.svg" x="1112.54" y="35.746" width="295.89" height="228.507"/></clipPath><g clip-path="url(#_clip1)"><path d="M1165.2,195.992c-21.349,-1.445 -52.656,-17.28 -52.656,-17.28l-0,-32.005l44.552,18.941l8.104,30.344Z" style="fill:#dbdbdb;fill-rule:nonzero;"/><path d="M1155.45,143.817c-42.915,-22.722 -42.915,-27.539 -42.915,-27.539l-0,41.964c13.861,8.879 29.464,14.689 45.756,17.039" style="fill:#00569c;fill-rule:nonzero;"/><path d="M1179.9,219.833c-14.377,0 -39.664,-3.612 -39.664,-3.612l6.021,19.266c0,0 22.12,6.755 50.188,0.963" style="fill:#dbdbdb;fill-rule:nonzero;"/><path d="M1376.66,132.414c16.436,0.722 24.865,3.13 24.865,3.13l6.707,22.698c0,0 -17.544,-5.84 -30.211,-5.84" style="fill:#dbdbdb;fill-rule:nonzero;"/><path d="M1377.74,141.565c18.977,9.633 30.693,29.2 30.693,29.2l-9.308,26.19l-24.721,-18.592" style="fill:#a8acad;fill-rule:nonzero;"/><path d="M1376.1,170.813c20.615,15.305 23.023,26.142 23.023,26.142l-18.062,46.961c-0,-0 -14.45,-22.879 -22.264,-31.307c-0,-0 13.811,-16.991 16.231,-34.378c2.421,-17.388 1.072,-7.418 1.072,-7.418Z" style="fill:#004f91;fill-rule:nonzero;"/><circle cx="1266.67" cy="149.994" r="91.514" style="fill:url(#_Radial2);"/><circle cx="1266.67" cy="149.994" r="111.382" style="fill:none;"/><g><path d="M1221.73,173.888l-4.576,-27.199l20.168,-3.393l0.774,4.601l-14.676,2.469l1.014,6.03l13.656,-2.297l0.771,4.582l-13.656,2.298l1.246,7.403l15.195,-2.557l0.771,4.583l-20.687,3.48Z" style="fill:#fff;fill-rule:nonzero;"/><path d="M1242.46,142.431l5.492,-0.924l2.478,14.732c0.394,2.337 0.717,3.841 0.969,4.511c0.423,1.074 1.13,1.877 2.123,2.409c1.003,0.518 2.271,0.648 3.805,0.39c1.558,-0.262 2.68,-0.775 3.366,-1.539c0.683,-0.776 1.027,-1.642 1.032,-2.597c0.005,-0.954 -0.174,-2.508 -0.536,-4.66l-2.532,-15.047l5.492,-0.924l2.404,14.286c0.549,3.266 0.789,5.598 0.719,6.996c-0.07,1.398 -0.429,2.628 -1.077,3.691c-0.636,1.061 -1.574,1.982 -2.817,2.764c-1.244,0.769 -2.942,1.334 -5.094,1.696c-2.598,0.437 -4.621,0.472 -6.069,0.106c-1.438,-0.382 -2.626,-0.983 -3.566,-1.804c-0.942,-0.834 -1.624,-1.756 -2.049,-2.766c-0.621,-1.498 -1.187,-3.768 -1.699,-6.811l-2.441,-14.509Z" style="fill:#fff;fill-rule:nonzero;"/><path d="M1274.51,165.008l-4.576,-27.2l8.813,-1.483c3.34,-0.562 5.54,-0.792 6.6,-0.69c1.627,0.146 3.082,0.817 4.364,2.013c1.28,1.184 2.103,2.858 2.467,5.022c0.281,1.67 0.214,3.125 -0.201,4.365c-0.414,1.24 -1.037,2.267 -1.866,3.08c-0.82,0.8 -1.694,1.386 -2.624,1.758c-1.267,0.481 -3.144,0.93 -5.63,1.348l-3.581,0.603l1.726,10.26l-5.492,0.924Zm1.69,-23.523l1.299,7.719l3.005,-0.506c2.165,-0.364 3.588,-0.75 4.27,-1.157c0.682,-0.407 1.176,-0.948 1.482,-1.623c0.319,-0.677 0.411,-1.417 0.275,-2.221c-0.166,-0.99 -0.594,-1.757 -1.284,-2.303c-0.689,-0.545 -1.493,-0.823 -2.41,-0.834c-0.677,-0.014 -2.005,0.146 -3.984,0.479l-2.653,0.446Z" style="fill:#fff;fill-rule:nonzero;"/><path d="M1300.01,160.718l-4.539,-26.977l5.492,-0.924l3.768,22.394l13.655,-2.297l0.771,4.583l-19.147,3.221Z" style="fill:#fff;fill-rule:nonzero;"/></g><path d="M1266.67,68.475l2.625,8.067l8.489,0l-6.864,4.997l2.625,8.08l-6.875,-4.997l-6.876,4.997l2.625,-8.08l-6.863,-4.997l8.489,0l2.625,-8.067Z" style="fill:#ffd941;fill-rule:nonzero;"/><path d="M1304,79.312l2.625,8.067l8.489,0l-6.864,4.997l2.625,8.08l-6.875,-4.997l-6.876,4.997l2.625,-8.08l-6.863,-4.997l8.489,0l2.625,-8.067Z" style="fill:#ffd941;fill-rule:nonzero;"/><path d="M1330.49,107.007l2.625,8.067l8.489,0l-6.864,4.997l2.625,8.08l-6.875,-4.997l-6.876,4.997l2.625,-8.08l-6.864,-4.997l8.49,0l2.625,-8.067Z" style="fill:#ffd941;fill-rule:nonzero;"/><path d="M1336.51,137.11l2.625,8.067l8.489,0l-6.863,4.998l2.625,8.079l-6.876,-4.997l-6.875,4.997l2.625,-8.079l-6.864,-4.998l8.489,0l2.625,-8.067Z" style="fill:#ffd941;fill-rule:nonzero;"/><path d="M1330.49,170.825l2.625,8.068l8.489,0l-6.864,4.997l2.625,8.08l-6.875,-4.997l-6.876,4.997l2.625,-8.08l-6.864,-4.997l8.49,0l2.625,-8.068Z" style="fill:#ffd941;fill-rule:nonzero;"/><path d="M1305.2,197.316l2.625,8.068l8.489,-0l-6.864,4.997l2.625,8.08l-6.875,-4.997l-6.876,4.997l2.625,-8.08l-6.863,-4.997l8.489,-0l2.625,-8.068Z" style="fill:#ffd941;fill-rule:nonzero;"/><path d="M1266.67,208.153l2.625,8.068l8.489,-0l-6.864,4.997l2.625,8.08l-6.875,-4.997l-6.876,4.997l2.625,-8.08l-6.863,-4.997l8.489,-0l2.625,-8.068Z" style="fill:#ffd941;fill-rule:nonzero;"/><path d="M1225.73,197.316l2.625,8.068l8.489,-0l-6.864,4.997l2.625,8.08l-6.875,-4.997l-6.876,4.997l2.625,-8.08l-6.864,-4.997l8.49,-0l2.625,-8.068Z" style="fill:#ffd941;fill-rule:nonzero;"/><path d="M1201.64,170.825l2.625,8.068l8.489,0l-6.863,4.997l2.625,8.08l-6.876,-4.997l-6.876,4.997l2.625,-8.08l-6.863,-4.997l8.489,0l2.625,-8.068Z" style="fill:#ffd941;fill-rule:nonzero;"/><path d="M1195.62,137.11l2.625,8.067l8.489,0l-6.863,4.998l2.625,8.079l-6.876,-4.997l-6.875,4.997l2.625,-8.079l-6.864,-4.998l8.489,0l2.625,-8.067Z" style="fill:#ffd941;fill-rule:nonzero;"/><path d="M1201.64,104.598l2.625,8.068l8.489,0l-6.863,4.997l2.625,8.08l-6.876,-4.997l-6.876,4.997l2.625,-8.08l-6.863,-4.997l8.489,0l2.625,-8.068Z" style="fill:#ffd941;fill-rule:nonzero;"/><path d="M1226.93,78.108l2.625,8.067l8.489,0l-6.864,4.997l2.625,8.08l-6.875,-4.997l-6.876,4.997l2.625,-8.08l-6.863,-4.997l8.489,0l2.625,-8.067Z" style="fill:#ffd941;fill-rule:nonzero;"/></g><clipPath id="_clip3"><rect id="ue-union-europea.svg" x="44.336" y="35.746" width="273.858" height="228.507"/></clipPath><g clip-path="url(#_clip3)"><rect x="45.038" y="35.746" width="272.454" height="182.263" style="fill:#039;fill-rule:nonzero;"/><path d="M184.23,61.661l9.475,-0l-7.638,5.958l2.972,9.447l-7.623,-5.815l-7.61,5.815l3.001,-9.447l-7.695,-5.958l9.447,-0l2.857,-9.203l2.814,9.203Zm0.33,121.561l9.49,0l-7.638,5.729l2.972,9.073l-7.609,-5.584l-7.624,5.584l3.001,-9.073l-7.71,-5.729l9.461,0l2.872,-8.872l2.785,8.872Zm30.064,-8.054l9.504,-0l-7.652,5.714l2.972,9.102l-7.61,-5.613l-7.609,5.613l2.986,-9.102l-7.709,-5.714l9.461,-0l2.871,-8.873l2.786,8.873Zm-0,-105.395l9.504,-0l-7.652,5.728l2.972,9.088l-7.61,-5.599l-7.609,5.599l2.986,-9.088l-7.709,-5.728l9.461,-0l2.871,-8.859l2.786,8.859Zm22.325,22.325l9.476,-0l-7.638,5.714l2.971,9.102l-7.609,-5.599l-7.609,5.599l3.001,-9.102l-7.71,-5.714l9.447,-0l2.871,-8.858l2.8,8.858Zm-0,61.046l9.476,0l-7.638,5.743l2.971,9.088l-7.609,-5.614l-7.609,5.614l3.001,-9.088l-7.71,-5.743l9.447,0l2.871,-8.858l2.8,8.858Zm8.356,-30.982l9.504,-0l-7.652,5.728l2.972,9.088l-7.61,-5.613l-7.609,5.613l3.001,-9.088l-7.724,-5.728l9.461,-0l2.871,-8.859l2.786,8.859Zm-91.728,-52.318l9.476,0l-7.638,5.743l2.958,9.088l-7.61,-5.613l-7.609,5.613l3.001,-9.088l-7.696,-5.743l9.447,0l2.857,-8.858l2.814,8.858Zm-21.708,22.326l9.49,-0l-7.638,5.728l2.958,9.088l-7.595,-5.599l-7.623,5.599l3,-9.088l-7.71,-5.728l9.462,-0l2.871,-8.859l2.785,8.859Zm-8.054,30.063l9.49,0l-7.652,5.729l2.972,9.088l-7.61,-5.585l-7.609,5.585l3.001,-9.088l-7.71,-5.729l9.461,0l2.857,-8.858l2.8,8.858Zm8.054,30.983l9.49,-0l-7.638,5.743l2.958,9.088l-7.595,-5.599l-7.623,5.599l3,-9.088l-7.71,-5.743l9.462,-0l2.871,-8.844l2.785,8.844Zm22.024,22.024l9.476,-0l-7.638,5.728l2.943,9.088l-7.595,-5.599l-7.609,5.599l3.001,-9.088l-7.696,-5.728l9.447,-0l2.857,-8.859l2.814,8.859Z" style="fill:#fc0;fill-rule:nonzero;"/><path d="M73.838,243.048l2.757,0l-0,12.046c-0,2.096 -0.23,3.761 -0.704,4.996c-0.474,1.235 -1.335,2.24 -2.57,3.001c-1.234,0.775 -2.857,1.163 -4.867,1.163c-1.952,-0 -3.546,-0.331 -4.795,-1.005c-1.249,-0.675 -2.125,-1.651 -2.656,-2.929c-0.531,-1.278 -0.79,-3.015 -0.79,-5.226l0,-12.046l2.757,0l-0,12.031c-0,1.809 0.172,3.145 0.502,4.006c0.33,0.861 0.919,1.522 1.737,1.981c0.819,0.46 1.824,0.704 3.001,0.704c2.024,-0 3.475,-0.46 4.336,-1.378c0.861,-0.919 1.292,-2.685 1.292,-5.313l0,-12.031Zm7.322,20.847l0,-20.847l2.829,0l10.954,16.367l-0,-16.367l2.642,0l-0,20.847l-2.829,-0l-10.954,-16.382l-0,16.382l-2.642,-0Zm21.536,-0l-0,-20.847l2.756,0l0,20.847l-2.756,-0Zm6.791,-10.151c-0,-3.46 0.933,-6.173 2.785,-8.126c1.852,-1.952 4.264,-2.943 7.193,-2.943c1.924,-0 3.661,0.459 5.212,1.378c1.55,0.919 2.727,2.197 3.531,3.848c0.819,1.651 1.221,3.517 1.221,5.599c-0,2.111 -0.431,4.006 -1.278,5.671c-0.847,1.666 -2.068,2.929 -3.632,3.79c-1.565,0.862 -3.259,1.293 -5.068,1.293c-1.967,-0 -3.719,-0.474 -5.255,-1.422c-1.551,-0.947 -2.714,-2.239 -3.518,-3.876c-0.804,-1.651 -1.191,-3.388 -1.191,-5.212Zm2.842,0.043c0,2.513 0.675,4.494 2.025,5.944c1.349,1.45 3.043,2.168 5.082,2.168c2.082,0 3.79,-0.732 5.126,-2.197c1.335,-1.464 2.01,-3.531 2.01,-6.216c-0,-1.694 -0.288,-3.173 -0.862,-4.451c-0.574,-1.263 -1.407,-2.254 -2.512,-2.943c-1.106,-0.704 -2.34,-1.048 -3.719,-1.048c-1.952,-0 -3.632,0.675 -5.039,2.01c-1.407,1.349 -2.111,3.589 -2.111,6.733Zm5.37,-12.017l1.895,-3.976l3.36,-0l-3.13,3.976l-2.125,0Zm15.247,22.125l0,-20.847l2.829,0l10.954,16.367l-0,-16.367l2.642,0l-0,20.847l-2.829,-0l-10.954,-16.382l-0,16.382l-2.642,-0Zm29.217,-0l-0,-20.847l15.075,0l-0,2.455l-12.319,0l0,6.389l11.529,0l0,2.441l-11.529,-0l0,7.092l12.807,0l-0,2.455l-15.563,0l-0,0.015Zm33.05,-20.847l2.756,0l0,12.046c0,2.096 -0.229,3.761 -0.703,4.996c-0.474,1.235 -1.335,2.24 -2.57,3.001c-1.235,0.775 -2.857,1.163 -4.867,1.163c-1.953,-0 -3.546,-0.331 -4.795,-1.005c-1.249,-0.675 -2.125,-1.651 -2.656,-2.929c-0.532,-1.278 -0.79,-3.015 -0.79,-5.226l-0,-12.046l2.757,0l-0,12.031c-0,1.809 0.172,3.145 0.502,4.006c0.33,0.861 0.919,1.522 1.737,1.981c0.819,0.46 1.824,0.704 3.001,0.704c2.024,-0 3.474,-0.46 4.336,-1.378c0.861,-0.919 1.292,-2.685 1.292,-5.313l-0,-12.031Zm7.408,20.847l0,-20.847l9.246,0c1.852,0 3.273,0.187 4.235,0.56c0.962,0.373 1.738,1.034 2.326,1.981c0.574,0.948 0.862,1.996 0.862,3.145c-0,1.478 -0.474,2.727 -1.436,3.747c-0.962,1.019 -2.441,1.665 -4.436,1.938c0.732,0.359 1.277,0.704 1.665,1.034c0.804,0.746 1.565,1.665 2.297,2.771l3.632,5.671l-3.474,-0l-2.756,-4.336c-0.804,-1.249 -1.465,-2.211 -1.996,-2.872c-0.517,-0.66 -0.991,-1.134 -1.407,-1.392c-0.416,-0.259 -0.833,-0.445 -1.264,-0.56c-0.315,-0.072 -0.818,-0.101 -1.536,-0.101l-3.201,0l-0,9.261l-2.757,-0Zm2.757,-11.644l5.929,0c1.264,0 2.254,-0.129 2.958,-0.388c0.703,-0.258 1.249,-0.674 1.622,-1.249c0.373,-0.574 0.56,-1.191 0.56,-1.866c-0,-0.991 -0.359,-1.795 -1.077,-2.426c-0.718,-0.632 -1.852,-0.948 -3.388,-0.948l-6.604,0l-0,6.877Zm17.386,1.493c0,-3.46 0.933,-6.173 2.785,-8.126c1.852,-1.952 4.264,-2.943 7.193,-2.943c1.924,-0 3.661,0.459 5.212,1.378c1.55,0.919 2.728,2.197 3.532,3.848c0.818,1.651 1.22,3.517 1.22,5.599c0,2.111 -0.431,4.006 -1.278,5.671c-0.847,1.666 -2.067,2.929 -3.632,3.79c-1.565,0.862 -3.259,1.293 -5.068,1.293c-1.967,-0 -3.719,-0.474 -5.255,-1.422c-1.55,-0.947 -2.713,-2.239 -3.517,-3.876c-0.79,-1.651 -1.192,-3.388 -1.192,-5.212Zm2.843,0.043c-0,2.513 0.675,4.494 2.024,5.944c1.35,1.45 3.044,2.168 5.083,2.168c2.081,0 3.79,-0.732 5.125,-2.197c1.335,-1.464 2.01,-3.531 2.01,-6.216c-0,-1.694 -0.287,-3.173 -0.861,-4.451c-0.575,-1.263 -1.407,-2.254 -2.513,-2.943c-1.105,-0.704 -2.34,-1.048 -3.718,-1.048c-1.953,-0 -3.633,0.675 -5.04,2.01c-1.407,1.349 -2.11,3.589 -2.11,6.733Zm20.66,10.108l-0,-20.847l7.867,0c1.379,0 2.441,0.072 3.173,0.201c1.02,0.172 1.881,0.488 2.57,0.976c0.689,0.474 1.249,1.149 1.666,2.01c0.416,0.862 0.631,1.809 0.631,2.843c0,1.78 -0.56,3.274 -1.694,4.508c-1.134,1.235 -3.173,1.838 -6.116,1.838l-5.355,0l-0,8.471l-2.742,-0Zm2.756,-10.94l5.398,-0c1.781,-0 3.044,-0.331 3.791,-0.991c0.746,-0.66 1.12,-1.594 1.12,-2.8c-0,-0.875 -0.216,-1.622 -0.661,-2.239c-0.445,-0.618 -1.019,-1.034 -1.737,-1.235c-0.46,-0.129 -1.321,-0.187 -2.57,-0.187l-5.341,0l0,7.452Zm16.726,10.94l0,-20.847l15.075,0l0,2.455l-12.318,0l-0,6.389l11.528,0l0,2.441l-11.528,-0l-0,7.092l12.806,0l0,2.455l-15.563,0l0,0.015Zm17.085,-0l8.011,-20.847l2.972,0l8.528,20.847l-3.144,-0l-2.426,-6.317l-8.715,-0l-2.297,6.317l-2.929,-0Zm6.016,-8.557l7.063,-0l-2.182,-5.772c-0.66,-1.751 -1.163,-3.187 -1.479,-4.321c-0.272,1.335 -0.646,2.67 -1.12,3.977l-2.282,6.116Z" style="fill:#636466;fill-rule:nonzero;"/></g><defs><radialGradient id="_Radial2" cx="0" cy="0" r="1" gradientUnits="userSpaceOnUse" gradientTransform="matrix(91.5137,0,0,91.5137,1266.67,149.994)"><stop offset="0" style="stop-color:#0178bc;stop-opacity:1"/><stop offset="1" style="stop-color:#005894;stop-opacity:1"/></radialGradient></defs></svg>