<?xml version="1.0" encoding="UTF-8" standalone="no"?>
<!-- Created with Inkscape (http://www.inkscape.org/) -->

<svg
   width="314.16235mm"
   height="314.16235mm"
   viewBox="0 0 314.16235 314.16235"
   version="1.1"
   id="svg1"
   xml:space="preserve"
   xmlns:inkscape="http://www.inkscape.org/namespaces/inkscape"
   xmlns:sodipodi="http://sodipodi.sourceforge.net/DTD/sodipodi-0.dtd"
   xmlns="http://www.w3.org/2000/svg"
   xmlns:svg="http://www.w3.org/2000/svg"><sodipodi:namedview
     id="namedview1"
     pagecolor="#ffffff"
     bordercolor="#000000"
     borderopacity="0.25"
     inkscape:showpageshadow="2"
     inkscape:pageopacity="0.0"
     inkscape:pagecheckerboard="0"
     inkscape:deskcolor="#d1d1d1"
     inkscape:document-units="mm" /><defs
     id="defs1" /><g
     inkscape:label="Capa 1"
     inkscape:groupmode="layer"
     id="layer1"
     transform="translate(239.27329,-118.74469)"><rect
       style="fill:#007bc4;fill-opacity:1;stroke-width:0.370416"
       id="rect1"
       width="314.16235"
       height="314.16235"
       x="-239.2733"
       y="118.74469"
       inkscape:export-filename="faviconPwa.svg"
       inkscape:export-xdpi="96"
       inkscape:export-ydpi="96" /><g
       id="g2"
       transform="matrix(1.2856561,0,0,1.2856561,392.31499,-101.74463)"><rect
         style="fill:#ffffff;fill-opacity:1;stroke-width:0.264583"
         id="rect2"
         width="109.34843"
         height="161.09059"
         x="-424.28574"
         y="210.07317" /><path
         d="m -429.06783,206.44092 v 173.88905 h 121.72202 V 206.44092 Z m 56.51427,14.49152 h 2.89851 v -2.89749 h 2.89851 v 2.89851 h 2.89851 v 2.89851 h -2.89851 v 2.89851 h -2.89953 v -2.89851 h -2.89851 v -2.89953 z m -21.73626,124.61952 h -5.79599 v 5.79599 h -5.796 v -5.79599 h -5.79599 v -5.796 h 5.79599 v -5.796 h 5.796 v 5.796 h 5.79599 z m 0,-34.77802 h -5.79599 v 5.796 h -5.796 v -5.796 h -5.79599 v -5.79599 h 5.79599 v -5.796 h 5.796 v 5.796 h 5.79599 z m 0,-34.77801 h -5.79599 v 5.79599 h -5.796 v -5.79599 h -5.79599 v -5.796 h 5.79599 v -5.79599 h 5.796 v 5.79599 h 5.79599 z m 29.10062,60.63762 c -0.0787,1.03058 -0.1186,2.07138 -0.1186,3.12139 0,8.62089 2.68892,16.613 7.27337,23.185 h -20.34375 c 4.58445,-6.572 7.27337,-14.56412 7.27337,-23.185 0,-1.05001 -0.0409,-2.09184 -0.1186,-3.12139 -9.77314,-1.45693 -17.26939,-9.88458 -17.26939,-20.06361 h 40.57299 c 0,10.17903 -7.49625,18.60668 -17.26939,20.06361 m 5.6774,-66.43362 v 5.796 h -5.796 v 5.79599 h -5.79599 v -5.79599 h -5.796 v -5.796 h 5.796 v -5.79599 h 5.79599 v 5.79599 z m -8.6945,17.38901 c 6.40227,0 11.59301,5.18971 11.59301,11.59301 0,6.40228 -5.18972,11.59301 -11.59301,11.59301 -6.40228,0 -11.59302,-5.18971 -11.59302,-11.59301 0,-6.40228 5.18971,-11.59301 11.59302,-11.59301 m 20.28649,-30.43076 h -40.57401 v -4.34726 h 40.57401 z m 4.09778,-11.73104 -2.13068,3.03755 h -5.41464 l 3.87694,-5.59049 c 0.65536,-0.95492 0.88847,-2.21043 0.88847,-2.99359 0,-1.3649 -0.44168,-2.51204 -1.31379,-3.41073 -1.04182,-1.07659 -2.32596,-1.62255 -3.81969,-1.62255 -0.64104,0 -1.09805,0.0603 -1.09805,0.0603 l -0.0133,-0.0215 c 0.3241,1.1543 0.49689,2.26769 0.49689,3.31259 0,1.87917 -0.20346,3.47514 -1.19825,5.16006 l -3.01711,5.10791 h -5.27457 l 4.29409,-7.28767 c 0.40078,-0.6707 0.71261,-1.97937 0.71261,-2.97928 0,-1.49271 -0.46519,-2.6971 -1.42216,-3.67963 -1.11748,-1.15531 -2.40367,-1.74114 -3.82378,-1.74114 -1.79432,0 -3.08868,0.51529 -3.95465,1.57449 v 14.11425 h -4.34623 v -14.1173 c -0.86495,-1.05921 -2.16034,-1.5745 -3.95465,-1.5745 -1.42114,0 -2.7063,0.58584 -3.82378,1.74115 -0.95697,0.98253 -1.42216,2.18692 -1.42216,3.67963 0,1.00093 0.31285,2.30858 0.71261,2.97928 l 4.29409,7.28767 h -5.27457 l -3.01711,-5.10792 c -0.9948,-1.68389 -1.19826,-3.28088 -1.19826,-5.16006 0,-1.04489 0.17279,-2.15727 0.49689,-3.31258 l -0.0133,0.0215 c 0,0 -0.45701,-0.0603 -1.09806,-0.0603 -1.4927,0 -2.77786,0.54596 -3.81969,1.62255 -0.87211,0.89869 -1.31379,2.04582 -1.31379,3.41073 0,0.78418 0.23311,2.03867 0.88847,2.99359 l 3.87695,5.59049 h -5.41464 l -2.12967,-3.03755 c -1.1594,-1.67368 -1.69923,-3.43629 -1.69923,-5.54653 0,-2.71755 0.95492,-4.98216 2.82592,-6.71514 1.87713,-1.93643 4.16118,-2.91793 6.7867,-2.91793 1.12055,0 2.32903,0.22799 3.59477,0.65536 0.0971,-0.10838 0.19425,-0.21675 0.30672,-0.31388 1.71866,-1.60006 3.88513,-2.41082 6.44215,-2.41082 2.21452,0 4.27568,0.6799 6.12726,2.02231 1.85259,-1.34241 3.91272,-2.02231 6.12725,-2.02231 2.55702,0 4.72349,0.81076 6.44215,2.41082 0.11144,0.0971 0.20959,0.2055 0.30672,0.31388 1.26573,-0.42737 2.47421,-0.65536 3.59476,-0.65536 2.62553,0 4.90958,0.9815 6.7867,2.91793 1.871,1.73298 2.82593,3.99759 2.82593,6.71514 -0.001,2.11228 -0.54086,3.87592 -1.69924,5.54959 m 19.08722,100.12482 h -5.796 v 5.796 h -5.79599 v -5.796 h -5.79599 v -5.79599 h 5.79599 v -5.79602 h 5.79599 v 5.796 h 5.796 z m 0,-34.77802 h -5.796 v 5.796 h -5.79599 v -5.796 h -5.79599 v -5.79599 h 5.79599 v -5.79599 h 5.79599 v 5.79599 h 5.796 z m 0,-34.77801 h -5.796 v 5.796 h -5.79599 v -5.796 h -5.79599 v -5.79601 h 5.79599 v -5.79599 h 5.79599 v 5.79599 h 5.796 z"
         style="fill:#007bc4;stroke-width:0.10224"
         id="path1" /></g></g></svg>
