<svg xmlns="http://www.w3.org/2000/svg" xml:space="preserve" style="fill-rule:evenodd;clip-rule:evenodd;stroke-linejoin:round;stroke-miterlimit:2" viewBox="0 0 292 72"><path d="M43.201 28.801H40.8V31.2h-2.4v-2.399h-2.399v-2.4H38.4V24h2.4v2.401h2.401zm0 14.398H40.8v2.399h-2.4v-2.399h-2.399V40.8H38.4v-2.402h2.4V40.8h2.401zm0 14.4H40.8v2.4h-2.4v-2.4h-2.399V55.2H38.4v-2.401h2.4V55.2h2.401zm-7.903-41.458-.883 1.259h-2.241l1.604-2.315c.271-.396.368-.916.368-1.241 0-.564-.183-1.04-.543-1.409a2.12 2.12 0 0 0-1.584-.673c-.263 0-.454.022-.454.022l-.006-.006c.135.476.207.938.207 1.369 0 .779-.084 1.442-.498 2.139L30.019 17.4h-2.184l1.779-3.018c.164-.279.295-.819.295-1.235 0-.616-.191-1.116-.588-1.522-.462-.479-.996-.72-1.585-.72-.742 0-1.279.212-1.636.652V17.4h-1.799v-5.843c-.359-.44-.895-.652-1.638-.652-.589 0-1.121.241-1.583.72-.395.406-.59.906-.59 1.522 0 .416.131.956.295 1.235l1.779 3.018H20.38l-1.249-2.114c-.412-.697-.496-1.36-.496-2.139 0-.431.072-.893.207-1.369l-.008.006s-.187-.022-.454-.022c-.619 0-1.149.225-1.58.673-.364.369-.546.845-.546 1.409 0 .325.096.845.369 1.241l1.604 2.315h-2.242l-.88-1.259c-.482-.693-.705-1.421-.705-2.297 0-1.122.396-2.062 1.169-2.779.779-.803 1.725-1.208 2.811-1.208.464 0 .964.094 1.49.271a2 2 0 0 1 .126-.129c.711-.662 1.608-1 2.667-1 .919 0 1.771.281 2.538.837a4.24 4.24 0 0 1 2.535-.837c1.061 0 1.956.338 2.669 1q.067.06.128.129c.477-.17.979-.261 1.486-.271 1.088 0 2.036.405 2.811 1.208.775.717 1.171 1.657 1.171 2.779 0 .876-.225 1.604-.703 2.297M33.599 21H16.8v-1.799h16.799zm-8.398 12.601c2.633 0 4.799 2.166 4.799 4.799s-2.166 4.799-4.799 4.799l-.098.001c-2.633 0-4.8-2.167-4.8-4.8s2.167-4.8 4.8-4.8zm3.6-7.2v2.4h-2.402V31.2H24v-2.399h-2.4v-2.4H24V24h2.399v2.401zm-2.35 27.506q-.05.642-.052 1.293c0 3.568 1.115 6.879 3.012 9.599h-8.423A16.73 16.73 0 0 0 24 55.2q0-.651-.048-1.293c-4.094-.615-7.153-4.169-7.152-8.309h16.799c.001 4.138-3.056 7.692-7.148 8.309M14.4 28.801h-2.401V31.2H9.6v-2.399H7.2v-2.4h2.4V24h2.399v2.401H14.4zm0 14.398h-2.401v2.399H9.6v-2.399H7.2V40.8h2.4v-2.402h2.399V40.8H14.4zm0 14.4h-2.401v2.4H9.6v-2.4H7.2V55.2h2.4v-2.401h2.399V55.2H14.4zm9.002-51.6H24.6V4.801h1.201v1.198h1.201V7.2h-1.201v1.201H24.6V7.2h-1.198zM0 72h50.401V0H0zm88.895-50.123c3.99 0 6.501-2.678 6.501-6.481q0-.716-.124-1.307h-6.418l.561 1.743h4.01c-.228 2.681-2.036 4.261-4.53 4.261-2.68 0-4.488-2.224-4.488-5.817 0-3.387 2.078-5.653 5.05-5.653 1.246 0 3.158.728 4.923 1.829v-2.16c-1.412-.83-3.324-1.452-4.923-1.452-4.26 0-7.041 2.968-7.041 7.436 0 4.674 2.49 7.601 6.479 7.601m7.833-.374h1.973l1.412-3.511h6.418l1.391 3.511h2.057l-6.023-14.331h-1.205zm4.071-5.212 2.534-6.294 2.513 6.294zm11.384 5.212h9.096l-.582-1.743h-6.647V7.172h-1.867zm10.096 0h1.973l1.412-3.511h6.418l1.391 3.511h2.056l-6.023-14.331h-1.204zm4.071-5.212 2.533-6.294 2.513 6.294zm11.384 5.212h1.867v-6.066h.457l5.34 6.066h2.429l-5.504-6.087c2.702-.145 4.403-1.68 4.403-4.153 0-2.577-1.826-4.091-4.839-4.091h-4.153zm1.867-7.642V8.873h2.203c1.85 0 2.972.935 2.972 2.431 0 1.538-1.247 2.557-3.055 2.557zm10.513-6.689h1.867v14.331h-1.867zm4.072 14.331h1.973l1.412-3.511h6.418l1.391 3.511h2.056l-6.023-14.331h-1.204zm4.071-5.212 2.533-6.294 2.513 6.294zM82.415 43.023h9l-.589-1.743h-6.52v-4.863h5.763v-1.742h-5.763v-4.241h6.436l.589-1.742h-8.916zm11.737 0h1.807V32.659l4.881 9.865h.631l4.881-9.886v10.385h1.806V28.692h-1.68l-5.302 10.675-5.301-10.675h-1.723zm17.879 0h1.891v-5.36h2.167c3.073 0 5.047-1.659 5.047-4.548 0-2.784-1.932-4.423-5.089-4.423h-4.016zm1.891-7.06v-5.57h2.041c1.978 0 3.199 1.039 3.199 2.722 0 1.746-1.179 2.848-3.157 2.848zm9.951 7.06h1.891v-6.066h.463l5.407 6.066h2.459l-5.572-6.087c2.735-.145 4.458-1.68 4.458-4.153 0-2.577-1.849-4.091-4.9-4.091h-4.206zm1.891-7.642v-4.988h2.231c1.873 0 3.009.935 3.009 2.431 0 1.538-1.263 2.557-3.094 2.557zm10.646 7.642h9l-.589-1.743H138.3v-4.863h5.763v-1.742H138.3v-4.241h6.437l.589-1.742h-8.916zm14.638.332c3.03 0 5.11-1.576 5.11-4.194 0-2.535-1.722-3.304-4.226-4.571-1.726-.873-2.652-1.351-2.652-2.514 0-1.039.863-1.953 2.525-1.953 1.158 0 2.61.519 3.975 1.246v-1.972c-1.113-.602-2.565-1.037-3.975-1.037-2.756 0-4.437 1.68-4.437 3.757 0 2.452 1.786 3.242 3.89 4.281 1.705.831 2.946 1.475 2.946 2.846 0 1.413-1.262 2.348-3.198 2.348-1.095 0-2.608-.582-3.827-1.35v1.993c.988.622 2.438 1.12 3.869 1.12m6.668-.332h1.998l1.43-3.511h6.498l1.409 3.511h2.082l-6.099-14.331h-1.22zm4.122-5.212 2.565-6.294 2.545 6.294zm17.122 5.212h1.891v-5.36h2.167c3.073 0 5.047-1.659 5.047-4.548 0-2.784-1.932-4.423-5.089-4.423h-4.016zm1.891-7.06v-5.57h2.041c1.978 0 3.199 1.039 3.199 2.722 0 1.746-1.179 2.848-3.157 2.848zm15.419-8.767 2.988-3.448h-2.462l-1.81 2.721zm-.232 16.201c3.283 0 5.363-1.95 5.363-5.17v-9.535h-1.891v9.452c0 2.222-1.367 3.469-3.472 3.469s-3.472-1.247-3.472-3.469v-9.452h-1.89v9.535c0 3.22 2.08 5.17 5.362 5.17m9.109-.374h5.026c2.82 0 4.605-1.535 4.605-4.195 0-1.6-.861-2.826-2.5-3.427 1.176-.643 1.869-1.683 1.869-3.034 0-2.306-1.638-3.675-4.436-3.675h-4.564zm1.891-8.265v-4.407h2.546c1.684 0 2.631.832 2.631 2.1 0 1.371-1.073 2.307-2.42 2.307zm0 6.606v-4.947h2.841c1.852 0 2.925.956 2.925 2.411 0 1.538-1.158 2.536-2.799 2.536zm10.688 1.659h9.21l-.589-1.743h-6.731V28.692h-1.89zm11.526-14.331h1.89v14.331h-1.89zm11.314 14.663c1.704 0 3.513-.622 4.838-1.597v-2.181c-1.599 1.184-3.366 1.994-4.838 1.994-2.608 0-4.375-2.202-4.375-5.818 0-3.49 1.851-5.61 4.375-5.61 1.472 0 3.239.811 4.838 1.995v-2.181c-1.325-.975-3.134-1.597-4.838-1.597-3.933 0-6.392 2.947-6.392 7.393 0 4.572 2.375 7.602 6.392 7.602m6.396-.332h1.998l1.43-3.511h6.498l1.409 3.511h2.082l-6.099-14.331h-1.22zm4.122-5.212 2.565-6.294 2.545 6.294zm21.706-9.119h-4.584v14.331H273c3.998 0 6.709-2.615 6.709-7.27 0-4.508-2.753-7.061-6.919-7.061m.084 12.588h-2.777V30.434h2.651c2.861 0 4.944 1.766 4.944 5.319 0 3.699-1.998 5.527-4.818 5.527m9.867 1.743h9l-.589-1.743h-6.521v-4.863h5.763v-1.742h-5.763v-4.241h6.436l.589-1.742h-8.915zM86.112 64.877c2.992 0 5.046-1.576 5.046-4.194 0-2.535-1.701-3.304-4.174-4.571-1.704-.873-2.618-1.351-2.618-2.514 0-1.039.852-1.953 2.494-1.953 1.143 0 2.577.519 3.925 1.246v-1.972c-1.099-.602-2.533-1.037-3.925-1.037-2.722 0-4.382 1.68-4.382 3.757 0 2.452 1.763 3.242 3.841 4.281 1.684.831 2.91 1.475 2.91 2.846 0 1.413-1.247 2.348-3.159 2.348-1.081 0-2.576-.582-3.779-1.351v1.994c.975.622 2.407 1.12 3.821 1.12m7.999-.332h8.888l-.582-1.743h-6.439v-4.863h5.691v-1.742h-5.691v-4.241h6.356l.582-1.742h-8.805zm11.591 0h1.867v-6.066h.457l5.34 6.066h2.429l-5.503-6.087c2.701-.145 4.402-1.68 4.402-4.153 0-2.577-1.826-4.091-4.839-4.091h-4.153zm1.867-7.642v-4.988h2.203c1.85 0 2.972.935 2.972 2.431 0 1.538-1.247 2.557-3.055 2.557zm14.292 7.849h.956l5.69-14.538h-1.952l-4.195 11.07-4.154-11.07h-2.035zm8.851-14.538h1.867v14.331h-1.867zm4.487 14.331h10.591l-.56-1.743h-7.248l7.642-11.924v-.664h-10.301l.561 1.742h6.957l-7.642 11.925zm18.299.374c3.948 0 6.459-2.927 6.459-7.644 0-4.488-2.511-7.435-6.459-7.435s-6.459 2.947-6.459 7.435c0 4.717 2.511 7.644 6.459 7.644m0-1.784c-2.722 0-4.467-2.078-4.467-5.86 0-3.532 1.745-5.651 4.467-5.651s4.468 2.119 4.468 5.651c0 3.782-1.746 5.86-4.468 5.86m12.318 1.742c2.993 0 5.047-1.576 5.047-4.194 0-2.535-1.701-3.304-4.174-4.571-1.704-.873-2.619-1.351-2.619-2.514 0-1.039.852-1.953 2.494-1.953 1.143 0 2.577.519 3.925 1.246v-1.972c-1.099-.602-2.532-1.037-3.925-1.037-2.722 0-4.382 1.68-4.382 3.757 0 2.452 1.764 3.242 3.842 4.281 1.683.831 2.91 1.475 2.91 2.846 0 1.413-1.247 2.348-3.16 2.348-1.08 0-2.575-.582-3.779-1.351v1.994c.976.622 2.408 1.12 3.821 1.12m16.39 0c2.993 0 5.047-1.576 5.047-4.194 0-2.535-1.702-3.304-4.174-4.571-1.705-.873-2.619-1.351-2.619-2.514 0-1.039.852-1.953 2.494-1.953 1.143 0 2.577.519 3.925 1.246v-1.972c-1.099-.602-2.533-1.037-3.925-1.037-2.722 0-4.382 1.68-4.382 3.757 0 2.452 1.763 3.242 3.842 4.281 1.683.831 2.909 1.475 2.909 2.846 0 1.413-1.247 2.348-3.159 2.348-1.081 0-2.575-.582-3.779-1.351v1.994c.975.622 2.407 1.12 3.821 1.12m6.586-.332h1.973l1.413-3.511h6.417l1.392 3.511h2.056l-6.023-14.331h-1.205zm4.071-5.212 2.534-6.294 2.513 6.294zm11.384 5.212h1.867V53.599l7.854 10.946h1.058V50.214h-1.867v10.218l-7.335-10.218h-1.577zm14.603-14.331h1.867v14.331h-1.867zm9.805 14.331h1.867V51.956h5.193l.582-1.742H222.88l.582 1.742h5.193zm6.565 0h1.973l1.412-3.511h6.418l1.391 3.511h2.056l-6.023-14.331h-1.204zm4.07-5.212 2.534-6.294 2.513 6.294zm11.385 5.212h1.867v-6.066h.457l5.34 6.066h2.429l-5.504-6.087c2.702-.145 4.403-1.68 4.403-4.153 0-2.577-1.826-4.091-4.839-4.091h-4.153zm1.867-7.642v-4.988h2.203c1.849 0 2.972.935 2.972 2.431 0 1.538-1.247 2.557-3.055 2.557zm10.513-6.689h1.867v14.331h-1.867zm11.32 14.705c3.948 0 6.459-2.927 6.459-7.644 0-4.488-2.511-7.435-6.459-7.435s-6.459 2.947-6.459 7.435c0 4.717 2.511 7.644 6.459 7.644m0-1.784c-2.722 0-4.467-2.078-4.467-5.86 0-3.532 1.745-5.651 4.467-5.651s4.468 2.119 4.468 5.651c0 3.782-1.746 5.86-4.468 5.86m12.318 1.742c2.993 0 5.047-1.576 5.047-4.194 0-2.535-1.701-3.304-4.174-4.571-1.704-.873-2.619-1.351-2.619-2.514 0-1.039.852-1.953 2.494-1.953 1.143 0 2.577.519 3.926 1.246v-1.972c-1.1-.602-2.533-1.037-3.926-1.037-2.722 0-4.381 1.68-4.381 3.757 0 2.452 1.763 3.242 3.841 4.281 1.683.831 2.91 1.475 2.91 2.846 0 1.413-1.247 2.348-3.159 2.348-1.081 0-2.576-.582-3.779-1.351v1.994c.975.622 2.407 1.12 3.82 1.12" style="fill:#fff;fill-rule:nonzero"/><path d="M64.59.034h2.416V72H64.59z" style="fill:#fff"/></svg>