<svg xmlns="http://www.w3.org/2000/svg" xml:space="preserve" style="fill-rule:evenodd;clip-rule:evenodd;stroke-linejoin:round;stroke-miterlimit:2" viewBox="0 0 292 72"><path d="M43.201 28.801H40.8V31.2h-2.4v-2.399h-2.399v-2.4H38.4V24h2.4v2.401h2.401zm0 14.398H40.8v2.399h-2.4v-2.399h-2.399V40.8H38.4v-2.402h2.4V40.8h2.401zm0 14.4H40.8v2.4h-2.4v-2.4h-2.399V55.2H38.4v-2.401h2.4V55.2h2.401zm-7.903-41.458-.883 1.259h-2.241l1.604-2.315c.271-.396.368-.916.368-1.241 0-.564-.183-1.04-.543-1.409a2.12 2.12 0 0 0-1.584-.673c-.263 0-.454.022-.454.022l-.006-.006c.135.476.207.938.207 1.369 0 .779-.084 1.442-.498 2.139L30.019 17.4h-2.184l1.779-3.018c.164-.279.295-.819.295-1.235 0-.616-.191-1.116-.588-1.522-.462-.479-.996-.72-1.585-.72-.742 0-1.279.212-1.636.652V17.4h-1.799v-5.843c-.359-.44-.895-.652-1.638-.652-.589 0-1.121.241-1.583.72-.395.406-.59.906-.59 1.522 0 .416.131.956.295 1.235l1.779 3.018H20.38l-1.249-2.114c-.412-.697-.496-1.36-.496-2.139 0-.431.072-.893.207-1.369l-.008.006s-.187-.022-.454-.022c-.619 0-1.149.225-1.58.673-.364.369-.546.845-.546 1.409 0 .325.096.845.369 1.241l1.604 2.315h-2.242l-.88-1.259c-.482-.693-.705-1.421-.705-2.297 0-1.122.396-2.062 1.169-2.779.779-.803 1.725-1.208 2.811-1.208.464 0 .964.094 1.49.271q.058-.068.126-.129c.711-.662 1.608-1 2.667-1 .919 0 1.771.281 2.538.837a4.24 4.24 0 0 1 2.535-.837c1.061 0 1.956.338 2.669 1q.067.06.128.129a4.7 4.7 0 0 1 1.486-.271c1.088 0 2.036.405 2.811 1.208.775.717 1.171 1.657 1.171 2.779 0 .876-.225 1.604-.703 2.297M33.599 21H16.8v-1.799h16.799zm-8.398 12.601a4.798 4.798 0 0 1 0 9.598 4.8 4.8 0 1 1 0-9.598m3.6-7.2v2.4h-2.402V31.2H24v-2.399h-2.4v-2.4H24V24h2.399v2.401zm-2.35 27.506q-.051.642-.052 1.293c0 3.568 1.115 6.879 3.012 9.599h-8.423A16.7 16.7 0 0 0 24 55.2q0-.651-.048-1.293a8.4 8.4 0 0 1-7.152-8.309h16.799a8.4 8.4 0 0 1-7.148 8.309M14.4 28.801h-2.401V31.2H9.6v-2.399H7.2v-2.4h2.4V24h2.399v2.401H14.4zm0 14.398h-2.401v2.399H9.6v-2.399H7.2V40.8h2.4v-2.402h2.399V40.8H14.4zm0 14.4h-2.401v2.4H9.6v-2.4H7.2V55.2h2.4v-2.401h2.399V55.2H14.4zm9.002-51.6H24.6V4.801h1.201v1.198h1.201V7.2h-1.201v1.201H24.6V7.2h-1.198zM0 72h50.401V0H0zm88.895-50.123c3.99 0 6.501-2.678 6.501-6.481q0-.716-.125-1.307h-6.417l.561 1.743h4.01c-.229 2.681-2.036 4.261-4.53 4.261-2.68 0-4.488-2.224-4.488-5.817 0-3.387 2.078-5.653 5.049-5.653 1.247 0 3.159.728 4.923 1.829v-2.16c-1.411-.83-3.323-1.452-4.923-1.452-4.26 0-7.041 2.968-7.041 7.436 0 4.674 2.491 7.601 6.48 7.601m7.833-.374h1.973l1.412-3.511h6.418l1.391 3.511h2.057l-6.023-14.331h-1.205zm4.071-5.212 2.534-6.294 2.513 6.294zm11.384 5.212h9.096l-.581-1.743h-6.648V7.172h-1.867zm10.096 0h1.973l1.413-3.511h6.417l1.392 3.511h2.056l-6.023-14.331h-1.205zm4.071-5.212 2.534-6.294 2.513 6.294zm11.385 5.212h1.867v-6.066h.457l5.34 6.066h2.429l-5.504-6.087c2.702-.145 4.403-1.68 4.403-4.153 0-2.577-1.826-4.091-4.839-4.091h-4.153zm1.867-7.642V8.873h2.203c1.849 0 2.972.935 2.972 2.431 0 1.538-1.247 2.557-3.056 2.557zm10.514-6.689h1.867v14.331h-1.867zm4.071 14.331h1.973l1.413-3.511h6.417l1.392 3.511h2.056l-6.023-14.331h-1.205zm4.071-5.212 2.534-6.294 2.513 6.294zM82.415 43.024h9l-.589-1.743h-6.52v-4.863h5.763v-1.743h-5.763v-4.24h6.436l.589-1.742h-8.916zm11.737 0h1.806V32.66l4.881 9.865h.632l4.881-9.886v10.385h1.806V28.693h-1.68l-5.302 10.675-5.302-10.675h-1.722zm17.879 0h1.89v-5.36h2.168c3.072 0 5.047-1.659 5.047-4.548 0-2.785-1.933-4.423-5.089-4.423h-4.016zm1.89-7.061v-5.569h2.041c1.979 0 3.199 1.039 3.199 2.722 0 1.746-1.178 2.847-3.156 2.847zm9.952 7.061h1.89v-6.066h.463l5.407 6.066h2.459l-5.572-6.087c2.735-.145 4.458-1.68 4.458-4.153 0-2.577-1.849-4.091-4.9-4.091h-4.205zm1.89-7.642v-4.988h2.231c1.873 0 3.009.935 3.009 2.431 0 1.538-1.262 2.557-3.093 2.557zm10.646 7.642h9l-.589-1.743h-6.521v-4.863h5.763v-1.743h-5.763v-4.24h6.437l.588-1.742h-8.915zm14.638.332c3.03 0 5.11-1.577 5.11-4.194 0-2.535-1.723-3.304-4.227-4.571-1.725-.873-2.651-1.351-2.651-2.514 0-1.039.863-1.954 2.525-1.954 1.158 0 2.609.52 3.975 1.247v-1.972c-1.114-.602-2.565-1.038-3.975-1.038-2.756 0-4.437 1.681-4.437 3.758 0 2.452 1.786 3.241 3.89 4.28 1.705.831 2.946 1.476 2.946 2.847 0 1.413-1.262 2.348-3.198 2.348-1.095 0-2.608-.582-3.827-1.351v1.994c.988.622 2.438 1.12 3.869 1.12m6.669-.332h1.998l1.43-3.511h6.498l1.409 3.511h2.082l-6.099-14.331h-1.219zm4.122-5.212 2.565-6.294 2.545 6.294zm17.122 5.212h1.89v-5.36h2.168c3.072 0 5.047-1.659 5.047-4.548 0-2.785-1.933-4.423-5.089-4.423h-4.016zm1.89-7.061v-5.569h2.042c1.978 0 3.198 1.039 3.198 2.722 0 1.746-1.178 2.847-3.156 2.847zm15.42-8.766 2.987-3.448h-2.461l-1.81 2.721zm-.232 16.2c3.283 0 5.362-1.95 5.362-5.169v-9.535h-1.89v9.451c0 2.223-1.368 3.47-3.472 3.47s-3.472-1.247-3.472-3.47v-9.451h-1.89v9.535c0 3.219 2.08 5.169 5.362 5.169m9.109-.373h5.026c2.819 0 4.605-1.535 4.605-4.195 0-1.601-.861-2.826-2.501-3.428 1.177-.643 1.87-1.682 1.87-3.033 0-2.306-1.639-3.675-4.437-3.675h-4.563zm1.89-8.266v-4.406h2.547c1.683 0 2.63.831 2.63 2.099 0 1.372-1.073 2.307-2.42 2.307zm0 6.606v-4.946h2.841c1.852 0 2.925.956 2.925 2.411 0 1.538-1.157 2.535-2.798 2.535zm10.688 1.66h9.21l-.589-1.743h-6.73V28.693h-1.891zm11.527-14.331h1.89v14.331h-1.89zm11.313 14.663c1.704 0 3.513-.622 4.838-1.597v-2.182c-1.599 1.185-3.365 1.995-4.838 1.995-2.608 0-4.375-2.202-4.375-5.818 0-3.49 1.851-5.61 4.375-5.61 1.473 0 3.239.811 4.838 1.995v-2.181c-1.325-.975-3.134-1.598-4.838-1.598-3.933 0-6.391 2.948-6.391 7.394 0 4.571 2.374 7.602 6.391 7.602m6.397-.332h1.998l1.43-3.511h6.498l1.409 3.511h2.082l-6.099-14.331h-1.219zm4.122-5.212 2.565-6.294 2.545 6.294zm21.706-9.119h-4.584v14.331H273c3.998 0 6.709-2.615 6.709-7.27 0-4.509-2.753-7.061-6.919-7.061m.084 12.588h-2.778V30.435h2.652c2.861 0 4.944 1.766 4.944 5.319 0 3.699-1.999 5.527-4.818 5.527m9.866 1.743h9l-.589-1.743h-6.52v-4.863h5.763v-1.743h-5.763v-4.24h6.436l.589-1.742h-8.916zM86.111 64.877c2.993 0 5.047-1.577 5.047-4.194 0-2.535-1.701-3.304-4.174-4.571-1.704-.873-2.619-1.351-2.619-2.515 0-1.038.852-1.953 2.494-1.953 1.144 0 2.577.52 3.926 1.247v-1.973c-1.1-.601-2.533-1.037-3.926-1.037-2.722 0-4.381 1.68-4.381 3.758 0 2.452 1.763 3.241 3.841 4.28 1.684.831 2.91 1.475 2.91 2.847 0 1.413-1.247 2.348-3.159 2.348-1.081 0-2.576-.582-3.779-1.351v1.994c.975.622 2.407 1.12 3.82 1.12m7.999-.333h8.889l-.582-1.742h-6.44v-4.863h5.692v-1.743h-5.692v-4.24h6.357l.581-1.742H94.11zm11.592 0h1.867v-6.065h.457l5.34 6.065h2.429l-5.504-6.086c2.702-.145 4.403-1.68 4.403-4.153 0-2.577-1.826-4.091-4.839-4.091h-4.153zm1.867-7.642v-4.988h2.203c1.849 0 2.972.936 2.972 2.432 0 1.538-1.247 2.556-3.056 2.556zm14.293 7.85h.955l5.691-14.538h-1.953l-4.195 11.07-4.154-11.07h-2.035zm8.85-14.538h1.867v14.331h-1.867zm4.487 14.33h10.591l-.56-1.742h-7.248l7.642-11.925v-.663h-10.3l.56 1.742h6.957l-7.642 11.925zm18.299.374c3.948 0 6.46-2.926 6.46-7.643 0-4.488-2.512-7.435-6.46-7.435s-6.459 2.947-6.459 7.435c0 4.717 2.512 7.643 6.459 7.643m0-1.784c-2.722 0-4.467-2.077-4.467-5.859 0-3.532 1.745-5.651 4.467-5.651 2.723 0 4.468 2.119 4.468 5.651 0 3.782-1.745 5.859-4.468 5.859m12.318 1.743c2.993 0 5.047-1.577 5.047-4.194 0-2.535-1.701-3.304-4.174-4.571-1.704-.873-2.618-1.351-2.618-2.515 0-1.038.852-1.953 2.494-1.953 1.143 0 2.576.52 3.925 1.247v-1.973c-1.1-.601-2.533-1.037-3.925-1.037-2.723 0-4.382 1.68-4.382 3.758 0 2.452 1.763 3.241 3.841 4.28 1.684.831 2.91 1.475 2.91 2.847 0 1.413-1.247 2.348-3.159 2.348-1.081 0-2.576-.582-3.779-1.351v1.994c.975.622 2.407 1.12 3.82 1.12m16.39 0c2.993 0 5.047-1.577 5.047-4.194 0-2.535-1.701-3.304-4.174-4.571-1.704-.873-2.619-1.351-2.619-2.515 0-1.038.852-1.953 2.494-1.953 1.143 0 2.577.52 3.926 1.247v-1.973c-1.1-.601-2.533-1.037-3.926-1.037-2.722 0-4.381 1.68-4.381 3.758 0 2.452 1.763 3.241 3.841 4.28 1.683.831 2.91 1.475 2.91 2.847 0 1.413-1.247 2.348-3.159 2.348-1.081 0-2.576-.582-3.779-1.351v1.994c.975.622 2.407 1.12 3.82 1.12m6.587-.333h1.973l1.412-3.51h6.418l1.391 3.51h2.056l-6.023-14.33h-1.204zm4.07-5.211 2.534-6.294 2.513 6.294zm11.385 5.211h1.867V53.599l7.853 10.945h1.058v-14.33h-1.867v10.218l-7.335-10.218h-1.576zm14.603-14.33h1.867v14.331h-1.867zm9.805 14.33h1.867V51.956h5.193l.582-1.742h-13.417l.582 1.742h5.193zm6.564 0h1.973l1.412-3.51h6.418l1.391 3.51h2.056l-6.023-14.33h-1.204zm4.071-5.211 2.533-6.294 2.513 6.294zm11.384 5.211h1.867v-6.065h.457l5.34 6.065h2.429l-5.503-6.086c2.701-.145 4.402-1.68 4.402-4.153 0-2.577-1.826-4.091-4.839-4.091h-4.153zm1.867-7.642v-4.988h2.203c1.85 0 2.972.936 2.972 2.432 0 1.538-1.247 2.556-3.055 2.556zm10.514-6.688h1.867v14.331h-1.867zm11.319 14.704c3.948 0 6.459-2.926 6.459-7.643 0-4.488-2.511-7.435-6.459-7.435s-6.459 2.947-6.459 7.435c0 4.717 2.511 7.643 6.459 7.643m0-1.784c-2.722 0-4.467-2.077-4.467-5.859 0-3.532 1.745-5.651 4.467-5.651s4.468 2.119 4.468 5.651c0 3.782-1.746 5.859-4.468 5.859m12.318 1.743c2.993 0 5.047-1.577 5.047-4.194 0-2.535-1.701-3.304-4.174-4.571-1.704-.873-2.619-1.351-2.619-2.515 0-1.038.853-1.953 2.495-1.953 1.143 0 2.576.52 3.925 1.247v-1.973c-1.1-.601-2.533-1.037-3.925-1.037-2.723 0-4.382 1.68-4.382 3.758 0 2.452 1.763 3.241 3.841 4.28 1.684.831 2.91 1.475 2.91 2.847 0 1.413-1.247 2.348-3.159 2.348-1.081 0-2.576-.582-3.779-1.351v1.994c.975.622 2.407 1.12 3.82 1.12" style="fill:#0083ca;fill-rule:nonzero"/><path d="M64.59.034h2.416V72H64.59z" style="fill:#0083ca"/></svg>