<?xml version="1.0" encoding="UTF-8" standalone="no"?><!DOCTYPE svg PUBLIC "-//W3C//DTD SVG 1.1//EN" "http://www.w3.org/Graphics/SVG/1.1/DTD/svg11.dtd"><svg width="100%" height="100%" viewBox="0 0 308 154" version="1.1" xmlns="http://www.w3.org/2000/svg" xmlns:xlink="http://www.w3.org/1999/xlink" xml:space="preserve" xmlns:serif="http://www.serif.com/" style="fill-rule:evenodd;clip-rule:evenodd;stroke-linejoin:round;stroke-miterlimit:2;"><rect x="0" y="0" width="307.2" height="138.139" style="fill:#007bc4;"/><rect x="0" y="138.139" width="272.221" height="15.461" style="fill:#002b49;"/><rect x="272.221" y="138.139" width="34.979" height="15.461" style="fill:#f8690d;"/><path d="M27.05,17.492l-1.074,0l0,1.074l-1.074,-0l0,-1.074l-1.073,0l-0,-1.073l1.073,-0l0,-1.075l1.074,0l0,1.075l1.074,-0l0,1.073Zm0,6.443l-1.074,-0l0,1.073l-1.074,0l0,-1.073l-1.073,-0l-0,-1.073l1.073,-0l0,-1.075l1.074,-0l0,1.075l1.074,-0l0,1.073Zm0,6.443l-1.074,0l0,1.074l-1.074,0l0,-1.074l-1.073,0l-0,-1.073l1.073,-0l0,-1.074l1.074,-0l0,1.074l1.074,-0l0,1.073Zm-3.536,-18.55l-0.395,0.563l-1.003,-0l0.718,-1.036c0.121,-0.177 0.165,-0.41 0.165,-0.555c-0,-0.253 -0.082,-0.466 -0.243,-0.631c-0.183,-0.196 -0.441,-0.305 -0.709,-0.301c-0.118,0 -0.203,0.01 -0.203,0.01l-0.003,-0.003c0.06,0.213 0.093,0.42 0.093,0.613c-0,0.348 -0.038,0.645 -0.223,0.957l-0.559,0.946l-0.977,-0l0.796,-1.351c0.073,-0.124 0.132,-0.366 0.132,-0.552c-0,-0.276 -0.086,-0.499 -0.263,-0.681c-0.207,-0.215 -0.446,-0.322 -0.71,-0.322c-0.332,-0 -0.572,0.095 -0.732,0.291l0,2.615l-0.805,-0l0,-2.615c-0.16,-0.196 -0.4,-0.291 -0.733,-0.291c-0.263,-0 -0.501,0.107 -0.708,0.322c-0.177,0.182 -0.264,0.405 -0.264,0.681c0,0.186 0.059,0.428 0.132,0.552l0.796,1.351l-0.977,-0l-0.559,-0.946c-0.184,-0.312 -0.222,-0.609 -0.222,-0.957c0,-0.193 0.032,-0.4 0.093,-0.613l-0.004,0.003c0,-0 -0.084,-0.01 -0.203,-0.01c-0.277,0 -0.514,0.101 -0.707,0.301c-0.163,0.165 -0.244,0.378 -0.244,0.631c-0,0.145 0.043,0.378 0.165,0.555l0.717,1.036l-1.003,-0l-0.393,-0.563c-0.216,-0.311 -0.316,-0.636 -0.316,-1.028c0,-0.502 0.177,-0.923 0.523,-1.244c0.349,-0.359 0.772,-0.54 1.258,-0.54c0.208,-0 0.431,0.042 0.667,0.121c0.018,-0.02 0.036,-0.039 0.056,-0.058c0.318,-0.296 0.72,-0.447 1.193,-0.447c0.412,-0 0.793,0.126 1.136,0.374c0.328,-0.243 0.726,-0.375 1.134,-0.374c0.475,-0 0.876,0.151 1.195,0.447c0.02,0.018 0.039,0.037 0.057,0.058c0.213,-0.076 0.438,-0.117 0.665,-0.121c0.487,-0 0.911,0.181 1.258,0.54c0.346,0.321 0.524,0.742 0.524,1.244c-0,0.392 -0.101,0.717 -0.315,1.028m-0.76,2.174l-7.517,-0l-0,-0.805l7.517,-0l-0,0.805Zm-3.758,5.638c1.178,0 2.147,0.969 2.147,2.148c0,1.178 -0.969,2.147 -2.147,2.147l-0.044,0c-1.178,0 -2.148,-0.969 -2.148,-2.147c0,-1.179 0.97,-2.148 2.148,-2.148l0.044,0Zm1.611,-3.221l-0,1.073l-1.075,0l0,1.074l-1.073,-0l-0,-1.074l-1.074,0l-0,-1.073l1.074,-0l-0,-1.075l1.073,0l0,1.075l1.075,-0Zm-1.052,12.307c-0.014,0.192 -0.022,0.385 -0.023,0.579c0,1.597 0.499,3.078 1.348,4.295l-3.769,0c0.879,-1.259 1.35,-2.759 1.348,-4.295c-0,-0.194 -0.007,-0.387 -0.022,-0.579c-1.832,-0.275 -3.2,-1.865 -3.2,-3.718l7.517,0c0,1.852 -1.368,3.442 -3.199,3.718m-5.392,-11.234l-1.074,0l-0,1.074l-1.074,-0l0,-1.074l-1.074,0l0,-1.073l1.074,-0l0,-1.075l1.074,0l-0,1.075l1.074,-0l0,1.073Zm0,6.443l-1.074,-0l-0,1.073l-1.074,0l0,-1.073l-1.074,-0l0,-1.073l1.074,-0l0,-1.075l1.074,-0l-0,1.075l1.074,-0l0,1.073Zm0,6.443l-1.074,0l-0,1.074l-1.074,0l0,-1.074l-1.074,0l0,-1.073l1.074,-0l0,-1.074l1.074,-0l-0,1.074l1.074,-0l0,1.073Zm4.028,-23.089l0.536,0l0,-0.536l0.538,0l-0,0.536l0.537,0l-0,0.538l-0.537,-0l-0,0.537l-0.538,0l0,-0.537l-0.536,-0l0,-0.538Zm-10.471,29.533l22.552,0l0,-32.217l-22.552,0l-0,32.217Zm39.777,-22.428c1.785,0 2.909,-1.198 2.909,-2.9c-0,-0.213 -0.019,-0.408 -0.056,-0.585l-2.872,0l0.251,0.78l1.795,0c-0.102,1.2 -0.911,1.907 -2.027,1.907c-1.199,-0 -2.009,-0.995 -2.009,-2.603c0,-1.515 0.93,-2.529 2.26,-2.529c0.558,-0 1.413,0.325 2.203,0.818l0,-0.967c-0.632,-0.371 -1.487,-0.649 -2.203,-0.649c-1.906,-0 -3.15,1.328 -3.15,3.327c-0,2.091 1.114,3.401 2.899,3.401m3.505,-0.167l0.883,-0l0.631,-1.571l2.872,-0l0.623,1.571l0.92,-0l-2.695,-6.413l-0.539,0l-2.695,6.413Zm1.821,-2.332l1.134,-2.817l1.125,2.817l-2.259,-0Zm5.094,2.332l4.07,-0l-0.26,-0.78l-2.974,-0l-0,-5.633l-0.836,0l0,6.413Zm4.518,-0l0.883,-0l0.631,-1.571l2.872,-0l0.623,1.571l0.92,-0l-2.695,-6.413l-0.539,0l-2.695,6.413Zm1.821,-2.332l1.134,-2.817l1.124,2.817l-2.258,-0Zm5.094,2.332l0.836,-0l-0,-2.714l0.204,-0l2.39,2.714l1.087,-0l-2.463,-2.724c1.209,-0.065 1.97,-0.752 1.97,-1.858c-0,-1.153 -0.817,-1.831 -2.165,-1.831l-1.859,0l0,6.413Zm0.836,-3.42l-0,-2.232l0.985,0c0.828,0 1.33,0.419 1.33,1.088c0,0.688 -0.558,1.144 -1.367,1.144l-0.948,0Zm4.704,-2.993l0.835,0l0,6.413l-0.835,-0l-0,-6.413Zm1.822,6.413l0.883,-0l0.632,-1.571l2.871,-0l0.623,1.571l0.92,-0l-2.695,-6.413l-0.539,0l-2.695,6.413Zm1.822,-2.332l1.133,-2.817l1.124,2.817l-2.257,-0Zm-33.937,11.961l4.027,0l-0.263,-0.78l-2.918,0l0,-2.176l2.579,0l0,-0.779l-2.579,-0l0,-1.898l2.88,0l0.264,-0.779l-3.99,-0l0,6.412Zm5.252,0l0.809,0l-0,-4.637l2.184,4.414l0.282,-0l2.184,-4.424l0,4.647l0.808,0l0,-6.412l-0.752,-0l-2.372,4.776l-2.372,-4.776l-0.771,-0l0,6.412Zm8,0l0.846,0l0,-2.398l0.97,-0c1.375,-0 2.258,-0.743 2.258,-2.035c0,-1.246 -0.864,-1.979 -2.277,-1.979l-1.797,-0l0,6.412Zm0.846,-3.159l0,-2.492l0.914,-0c0.885,-0 1.431,0.465 1.431,1.218c0,0.781 -0.528,1.274 -1.413,1.274l-0.932,0Zm4.453,3.159l0.846,0l0,-2.714l0.207,-0l2.42,2.714l1.1,0l-2.493,-2.723c1.224,-0.065 1.995,-0.752 1.995,-1.859c-0,-1.153 -0.828,-1.83 -2.193,-1.83l-1.882,-0l0,6.412Zm0.846,-3.419l0,-2.232l0.998,-0c0.839,-0 1.347,0.418 1.347,1.088c-0,0.688 -0.565,1.144 -1.385,1.144l-0.96,-0Zm4.764,3.419l4.027,0l-0.264,-0.78l-2.917,0l-0,-2.176l2.578,0l0,-0.779l-2.578,-0l-0,-1.898l2.88,0l0.263,-0.779l-3.989,-0l-0,6.412Zm6.55,0.149c1.356,-0 2.286,-0.705 2.286,-1.877c0,-1.134 -0.77,-1.478 -1.891,-2.045c-0.772,-0.391 -1.186,-0.605 -1.186,-1.125c-0,-0.465 0.386,-0.874 1.13,-0.874c0.518,-0 1.167,0.232 1.778,0.558l0,-0.883c-0.498,-0.269 -1.148,-0.464 -1.778,-0.464c-1.234,0 -1.986,0.752 -1.986,1.681c0,1.097 0.799,1.451 1.741,1.916c0.763,0.372 1.318,0.66 1.318,1.273c-0,0.633 -0.565,1.051 -1.431,1.051c-0.49,-0 -1.167,-0.261 -1.712,-0.604l-0,0.892c0.442,0.278 1.09,0.501 1.731,0.501m2.983,-0.149l0.894,0l0.64,-1.571l2.908,0l0.63,1.571l0.932,0l-2.729,-6.412l-0.546,-0l-2.729,6.412Zm1.845,-2.332l1.148,-2.816l1.138,2.816l-2.286,0Zm7.661,2.332l0.846,0l0,-2.398l0.97,-0c1.375,-0 2.258,-0.743 2.258,-2.035c0,-1.246 -0.864,-1.979 -2.277,-1.979l-1.797,-0l0,6.412Zm0.846,-3.159l0,-2.492l0.914,-0c0.885,-0 1.431,0.465 1.431,1.218c0,0.781 -0.527,1.274 -1.412,1.274l-0.933,0Zm6.9,-3.923l1.337,-1.543l-1.102,0l-0.81,1.218l0.575,0.325Zm-0.104,7.25c1.469,-0 2.4,-0.873 2.4,-2.314l-0,-4.266l-0.846,-0l-0,4.229c-0,0.994 -0.612,1.552 -1.554,1.552c-0.942,0 -1.554,-0.558 -1.554,-1.552l0,-4.229l-0.845,-0l-0,4.266c-0,1.441 0.931,2.314 2.399,2.314m4.076,-0.168l2.249,0c1.262,0 2.061,-0.687 2.061,-1.877c-0,-0.716 -0.386,-1.264 -1.119,-1.533c0.526,-0.288 0.836,-0.753 0.836,-1.358c0,-1.032 -0.733,-1.644 -1.985,-1.644l-2.042,-0l-0,6.412Zm0.846,-3.698l0,-1.972l1.139,-0c0.754,-0 1.178,0.372 1.178,0.94c-0,0.613 -0.48,1.032 -1.083,1.032l-1.234,-0Zm0,2.956l0,-2.214l1.271,0c0.829,0 1.309,0.428 1.309,1.079c0,0.688 -0.518,1.135 -1.252,1.135l-1.328,-0Zm4.783,0.742l4.121,0l-0.264,-0.78l-3.012,0l0,-5.632l-0.845,-0l-0,6.412Zm5.157,-6.412l0.846,-0l-0,6.412l-0.846,0l0,-6.412Zm5.063,6.561c0.762,-0 1.572,-0.279 2.164,-0.715l0,-0.976c-0.715,0.53 -1.506,0.893 -2.164,0.893c-1.167,-0 -1.958,-0.986 -1.958,-2.604c-0,-1.561 0.828,-2.51 1.958,-2.51c0.658,-0 1.449,0.363 2.164,0.893l0,-0.976c-0.592,-0.437 -1.402,-0.715 -2.164,-0.715c-1.76,0 -2.861,1.319 -2.861,3.308c0,2.046 1.063,3.402 2.861,3.402m2.862,-0.149l0.894,0l0.64,-1.571l2.907,0l0.631,1.571l0.931,0l-2.729,-6.412l-0.546,-0l-2.728,6.412Zm1.844,-2.332l1.148,-2.816l1.139,2.816l-2.287,0Zm9.713,-4.08l-2.052,-0l0,6.412l2.146,0c1.789,0 3.002,-1.17 3.002,-3.253c-0,-2.017 -1.232,-3.159 -3.096,-3.159m0.037,5.632l-1.242,0l-0,-4.853l1.186,0c1.28,0 2.212,0.79 2.212,2.38c0,1.655 -0.894,2.473 -2.156,2.473m4.415,0.78l4.027,0l-0.263,-0.78l-2.918,0l0,-2.176l2.579,0l-0,-0.779l-2.579,-0l0,-1.898l2.88,0l0.263,-0.779l-3.989,-0l0,6.412Zm-87.984,9.779c1.339,0 2.258,-0.705 2.258,-1.877c0,-1.134 -0.761,-1.478 -1.867,-2.045c-0.763,-0.391 -1.172,-0.604 -1.172,-1.125c0,-0.465 0.381,-0.874 1.116,-0.874c0.512,0 1.153,0.232 1.756,0.558l0,-0.883c-0.491,-0.269 -1.133,-0.464 -1.756,-0.464c-1.218,0 -1.961,0.752 -1.961,1.681c0,1.098 0.789,1.451 1.719,1.916c0.754,0.372 1.302,0.66 1.302,1.274c0,0.632 -0.558,1.05 -1.413,1.05c-0.484,0 -1.153,-0.26 -1.691,-0.604l-0,0.892c0.436,0.278 1.077,0.501 1.709,0.501m3.58,-0.149l3.977,0l-0.261,-0.779l-2.881,-0l0,-2.176l2.547,-0l-0,-0.78l-2.547,0l0,-1.898l2.844,0l0.261,-0.779l-3.94,-0l-0,6.412Zm5.186,0l0.836,0l-0,-2.714l0.204,0l2.39,2.714l1.086,0l-2.462,-2.723c1.209,-0.065 1.97,-0.752 1.97,-1.859c-0,-1.153 -0.817,-1.83 -2.166,-1.83l-1.858,-0l0,6.412Zm0.836,-3.419l-0,-2.232l0.985,0c0.828,0 1.33,0.418 1.33,1.088c0,0.688 -0.558,1.144 -1.367,1.144l-0.948,-0Zm6.395,3.512l0.427,0l2.547,-6.505l-0.874,-0l-1.877,4.953l-1.859,-4.953l-0.91,-0l2.546,6.505Zm3.96,-6.505l0.836,-0l-0,6.412l-0.836,0l0,-6.412Zm2.008,6.412l4.739,0l-0.251,-0.779l-3.243,-0l3.42,-5.336l-0,-0.297l-4.61,-0l0.251,0.779l3.113,0l-3.419,5.336l-0,0.297Zm8.188,0.168c1.767,-0 2.89,-1.31 2.89,-3.421c0,-2.008 -1.123,-3.326 -2.89,-3.326c-1.767,-0 -2.89,1.318 -2.89,3.326c-0,2.111 1.123,3.421 2.89,3.421m0,-0.798c-1.218,-0 -1.999,-0.93 -1.999,-2.623c0,-1.58 0.781,-2.528 1.999,-2.528c1.218,-0 1.999,0.948 1.999,2.528c0,1.693 -0.781,2.623 -1.999,2.623m5.512,0.779c1.339,0 2.258,-0.705 2.258,-1.877c0,-1.134 -0.761,-1.478 -1.867,-2.045c-0.763,-0.391 -1.172,-0.604 -1.172,-1.125c-0,-0.465 0.381,-0.874 1.116,-0.874c0.511,0 1.153,0.232 1.756,0.558l-0,-0.883c-0.492,-0.269 -1.133,-0.464 -1.756,-0.464c-1.218,0 -1.961,0.752 -1.961,1.681c-0,1.098 0.789,1.451 1.719,1.916c0.753,0.372 1.302,0.66 1.302,1.274c0,0.632 -0.558,1.05 -1.414,1.05c-0.483,0 -1.152,-0.26 -1.691,-0.604l0,0.892c0.437,0.278 1.078,0.501 1.71,0.501m7.334,0c1.339,0 2.258,-0.705 2.258,-1.877c0,-1.134 -0.761,-1.478 -1.868,-2.045c-0.763,-0.391 -1.171,-0.604 -1.171,-1.125c-0,-0.465 0.381,-0.874 1.115,-0.874c0.512,0 1.154,0.232 1.757,0.558l-0,-0.883c-0.492,-0.269 -1.134,-0.464 -1.757,-0.464c-1.218,0 -1.96,0.752 -1.96,1.681c-0,1.098 0.789,1.451 1.719,1.916c0.753,0.372 1.302,0.66 1.302,1.274c-0,0.632 -0.558,1.05 -1.414,1.05c-0.484,0 -1.152,-0.26 -1.691,-0.604l0,0.892c0.436,0.278 1.077,0.501 1.71,0.501m2.947,-0.149l0.883,0l0.632,-1.571l2.871,0l0.623,1.571l0.92,0l-2.695,-6.412l-0.539,-0l-2.695,6.412Zm1.821,-2.332l1.134,-2.816l1.125,2.816l-2.259,0Zm5.094,2.332l0.836,0l-0,-4.897l3.514,4.897l0.473,0l0,-6.412l-0.835,-0l0,4.572l-3.282,-4.572l-0.706,-0l0,6.412Zm6.535,-6.412l0.835,-0l-0,6.412l-0.835,0l-0,-6.412Zm4.387,6.412l0.835,0l0,-5.633l2.324,0l0.26,-0.779l-6.003,-0l0.26,0.779l2.324,0l-0,5.633Zm2.938,0l0.882,0l0.632,-1.571l2.872,0l0.622,1.571l0.92,0l-2.695,-6.412l-0.538,-0l-2.695,6.412Zm1.821,-2.332l1.134,-2.816l1.124,2.816l-2.258,0Zm5.094,2.332l0.835,0l0,-2.714l0.205,0l2.389,2.714l1.087,0l-2.463,-2.723c1.209,-0.065 1.971,-0.752 1.971,-1.859c-0,-1.153 -0.817,-1.83 -2.166,-1.83l-1.858,-0l0,6.412Zm0.835,-3.419l0,-2.232l0.986,0c0.828,0 1.33,0.418 1.33,1.088c0,0.688 -0.558,1.144 -1.367,1.144l-0.949,-0Zm4.705,-2.993l0.835,-0l0,6.412l-0.835,0l-0,-6.412Zm5.065,6.58c1.766,-0 2.89,-1.31 2.89,-3.421c0,-2.008 -1.124,-3.326 -2.89,-3.326c-1.767,-0 -2.89,1.318 -2.89,3.326c-0,2.111 1.123,3.421 2.89,3.421m-0,-0.798c-1.218,-0 -1.999,-0.93 -1.999,-2.623c0,-1.58 0.781,-2.528 1.999,-2.528c1.218,-0 1.999,0.948 1.999,2.528c0,1.693 -0.781,2.623 -1.999,2.623m5.512,0.779c1.339,0 2.258,-0.705 2.258,-1.877c0,-1.134 -0.761,-1.478 -1.868,-2.045c-0.762,-0.391 -1.172,-0.604 -1.172,-1.125c0,-0.465 0.382,-0.874 1.116,-0.874c0.512,0 1.154,0.232 1.757,0.558l0,-0.883c-0.492,-0.269 -1.133,-0.464 -1.757,-0.464c-1.218,0 -1.96,0.752 -1.96,1.681c0,1.098 0.789,1.451 1.719,1.916c0.753,0.372 1.302,0.66 1.302,1.274c-0,0.632 -0.558,1.05 -1.414,1.05c-0.483,0 -1.152,-0.26 -1.691,-0.604l0,0.892c0.437,0.278 1.077,0.501 1.71,0.501" style="fill:#fff;fill-rule:nonzero;"/><rect x="36.621" y="4.62" width="1.081" height="32.202" style="fill:#fff;"/><path d="M278.803,149.226l1.26,0l-0,-6.39l-0.342,0l-2.673,1.548l-0,1.35l1.755,-1.026l-0,4.518Z" style="fill:#fff;fill-rule:nonzero;"/><path d="M282.079,149.352c0.486,0 0.828,-0.342 0.828,-0.846c-0,-0.486 -0.342,-0.828 -0.828,-0.828c-0.504,0 -0.846,0.342 -0.846,0.828c-0,0.504 0.342,0.846 0.846,0.846Z" style="fill:#fff;fill-rule:nonzero;"/><path d="M286.192,149.37c1.512,0 2.457,-1.098 2.457,-3.339c-0,-2.151 -0.945,-3.249 -2.457,-3.249c-1.512,0 -2.457,1.098 -2.457,3.249c-0,2.241 0.945,3.339 2.457,3.339Zm-0,-1.134c-0.702,0 -1.161,-0.648 -1.161,-2.205c-0,-1.467 0.459,-2.115 1.161,-2.115c0.702,0 1.161,0.648 1.161,2.115c-0,1.557 -0.459,2.205 -1.161,2.205Z" style="fill:#fff;fill-rule:nonzero;"/><path d="M292.069,149.226l1.251,0l-0,-2.475l0.162,0l1.908,2.475l1.53,0l-2.088,-2.547c1.008,-0.207 1.611,-0.882 1.611,-1.854c-0,-1.197 -0.81,-1.899 -2.322,-1.899l-2.052,0l-0,6.3Zm1.251,-3.501l-0,-1.701l0.765,0c0.72,0 1.062,0.306 1.062,0.819c-0,0.558 -0.432,0.882 -1.116,0.882l-0.711,0Z" style="fill:#fff;fill-rule:nonzero;"/><path d="M300.286,149.388c0.702,0 1.431,-0.234 1.962,-0.567l-0,-1.278c-0.612,0.378 -1.314,0.675 -1.89,0.675c-0.981,0 -1.656,-0.792 -1.656,-2.187c-0,-1.287 0.702,-2.097 1.656,-2.097c0.576,0 1.278,0.297 1.89,0.675l-0,-1.278c-0.531,-0.333 -1.26,-0.567 -1.962,-0.567c-1.782,0 -2.916,1.314 -2.916,3.267c-0,2.061 1.107,3.357 2.916,3.357Z" style="fill:#fff;fill-rule:nonzero;"/><path d="M10.996,149.397c1.728,0 2.817,-1.161 2.817,-2.808c-0,-0.207 -0.018,-0.396 -0.054,-0.567l-2.781,0l0.243,0.756l1.737,0c-0.099,1.161 -0.882,1.845 -1.962,1.845c-1.161,0 -1.944,-0.963 -1.944,-2.52c-0,-1.467 0.9,-2.448 2.187,-2.448c0.54,0 1.368,0.315 2.133,0.792l-0,-0.936c-0.612,-0.36 -1.44,-0.63 -2.133,-0.63c-1.845,0 -3.051,1.287 -3.051,3.222c-0,2.025 1.08,3.294 2.808,3.294Z" style="fill:#fff;fill-rule:nonzero;"/><path d="M16.918,149.379c0.531,0 1.161,-0.189 1.548,-0.432l-0,-0.747c-0.486,0.27 -1.053,0.477 -1.53,0.477c-0.756,0 -1.278,-0.567 -1.341,-1.521l3.096,0c0.027,-0.162 0.045,-0.36 0.045,-0.531c-0,-1.197 -0.756,-2.052 -1.872,-2.052c-1.269,0 -2.043,0.954 -2.043,2.394c-0,1.476 0.792,2.412 2.097,2.412Zm-1.305,-2.835c0.099,-0.837 0.531,-1.287 1.233,-1.287c0.693,0 1.116,0.522 1.116,1.287l-2.349,0Z" style="fill:#fff;fill-rule:nonzero;"/><path d="M21.193,149.361c1.08,0 1.764,-0.558 1.764,-1.404c-0,-0.846 -0.594,-1.152 -1.44,-1.377c-0.549,-0.144 -1.089,-0.27 -1.089,-0.702c-0,-0.306 0.27,-0.585 0.864,-0.585c0.405,0 0.963,0.162 1.476,0.387l-0,-0.756c-0.441,-0.189 -0.999,-0.315 -1.476,-0.315c-1.044,0 -1.602,0.594 -1.602,1.287c-0,0.972 0.756,1.161 1.494,1.359c0.558,0.153 1.017,0.288 1.017,0.738c-0,0.396 -0.378,0.675 -1.026,0.675c-0.396,0 -0.999,-0.18 -1.467,-0.396l-0,0.774c0.405,0.189 0.945,0.315 1.485,0.315Z" style="fill:#fff;fill-rule:nonzero;"/><path d="M25.9,149.307c0.387,0 0.837,-0.099 1.179,-0.243l-0,-0.72c-0.378,0.153 -0.81,0.261 -1.107,0.261c-0.441,0 -0.747,-0.333 -0.747,-0.792l-0,-2.394l1.728,0l-0,-0.684l-1.728,0l-0,-1.188l-0.756,0l-0,1.188l-0.9,0l-0,0.684l0.9,0l-0,2.448c-0,0.837 0.504,1.44 1.431,1.44Z" style="fill:#fff;fill-rule:nonzero;"/><path d="M28.438,143.943c0.288,0 0.531,-0.234 0.531,-0.531c-0,-0.288 -0.243,-0.531 -0.531,-0.531c-0.297,0 -0.531,0.243 -0.531,0.531c-0,0.297 0.234,0.531 0.531,0.531Zm-0.378,5.292l0.756,0l-0,-4.5l-0.756,0l-0,4.5Z" style="fill:#fff;fill-rule:nonzero;"/><path d="M32.227,144.087l1.278,-1.494l-1.053,0l-0.774,1.179l0.549,0.315Zm-0.099,5.31c1.296,0 2.097,-0.918 2.097,-2.448c-0,-1.476 -0.801,-2.376 -2.097,-2.376c-1.296,0 -2.097,0.9 -2.097,2.376c-0,1.53 0.801,2.448 2.097,2.448Zm-0,-0.702c-0.81,0 -1.305,-0.612 -1.305,-1.746c-0,-1.08 0.495,-1.674 1.305,-1.674c0.81,0 1.305,0.594 1.305,1.674c-0,1.134 -0.495,1.746 -1.305,1.746Z" style="fill:#fff;fill-rule:nonzero;"/><path d="M35.395,149.235l0.756,0l-0,-3.528c0.396,-0.225 0.9,-0.414 1.278,-0.414c0.576,0 0.954,0.414 0.954,1.026l-0,2.916l0.756,0l-0,-3.042c-0,-0.972 -0.63,-1.602 -1.584,-1.602c-0.513,0 -1.053,0.189 -1.449,0.423l-0.477,-0.279l-0.234,0l-0,4.5Z" style="fill:#fff;fill-rule:nonzero;"/><path d="M44.593,149.397c0.459,0 1.017,-0.252 1.368,-0.621l-0,0.459l0.72,0l-0,-6.732l-0.756,0l-0,2.565c-0.333,-0.288 -0.81,-0.495 -1.242,-0.495c-1.224,0 -1.998,0.918 -1.998,2.376c-0,1.512 0.72,2.448 1.908,2.448Zm0.072,-0.702c-0.684,0 -1.188,-0.63 -1.188,-1.746c-0,-1.044 0.531,-1.674 1.224,-1.674c0.369,0 0.855,0.225 1.224,0.549l-0,2.214c-0.387,0.387 -0.864,0.657 -1.26,0.657Z" style="fill:#fff;fill-rule:nonzero;"/><path d="M49.948,149.379c0.531,0 1.161,-0.189 1.548,-0.432l-0,-0.747c-0.486,0.27 -1.053,0.477 -1.53,0.477c-0.756,0 -1.278,-0.567 -1.341,-1.521l3.096,0c0.027,-0.162 0.045,-0.36 0.045,-0.531c-0,-1.197 -0.756,-2.052 -1.872,-2.052c-1.269,0 -2.043,0.954 -2.043,2.394c-0,1.476 0.792,2.412 2.097,2.412Zm-1.305,-2.835c0.099,-0.837 0.531,-1.287 1.233,-1.287c0.693,0 1.116,0.522 1.116,1.287l-2.349,0Z" style="fill:#fff;fill-rule:nonzero;"/><path d="M55.735,143.943c0.288,0 0.531,-0.234 0.531,-0.531c-0,-0.288 -0.243,-0.531 -0.531,-0.531c-0.297,0 -0.531,0.243 -0.531,0.531c-0,0.297 0.234,0.531 0.531,0.531Zm-0.378,5.292l0.756,0l-0,-4.5l-0.756,0l-0,4.5Z" style="fill:#fff;fill-rule:nonzero;"/><path d="M57.598,149.235l0.756,0l-0,-3.528c0.396,-0.225 0.9,-0.414 1.278,-0.414c0.576,0 0.954,0.414 0.954,1.026l-0,2.916l0.756,0l-0,-3.042c-0,-0.972 -0.63,-1.602 -1.584,-1.602c-0.513,0 -1.053,0.189 -1.449,0.423l-0.477,-0.279l-0.234,0l-0,4.5Z" style="fill:#fff;fill-rule:nonzero;"/><path d="M64.141,149.325l0.306,0l2.061,-4.59l-0.819,0l-1.395,3.213l-1.359,-3.213l-0.855,0l2.061,4.59Z" style="fill:#fff;fill-rule:nonzero;"/><path d="M69.109,149.379c0.531,0 1.161,-0.189 1.548,-0.432l-0,-0.747c-0.486,0.27 -1.053,0.477 -1.53,0.477c-0.756,0 -1.278,-0.567 -1.341,-1.521l3.096,0c0.027,-0.162 0.045,-0.36 0.045,-0.531c-0,-1.197 -0.756,-2.052 -1.872,-2.052c-1.269,0 -2.043,0.954 -2.043,2.394c-0,1.476 0.792,2.412 2.097,2.412Zm-1.305,-2.835c0.099,-0.837 0.531,-1.287 1.233,-1.287c0.693,0 1.116,0.522 1.116,1.287l-2.349,0Z" style="fill:#fff;fill-rule:nonzero;"/><path d="M72.079,149.235l0.756,0l-0,-3.528c0.396,-0.225 0.9,-0.414 1.278,-0.414c0.576,0 0.954,0.414 0.954,1.026l-0,2.916l0.756,0l-0,-3.042c-0,-0.972 -0.63,-1.602 -1.584,-1.602c-0.513,0 -1.053,0.189 -1.449,0.423l-0.477,-0.279l-0.234,0l-0,4.5Z" style="fill:#fff;fill-rule:nonzero;"/><path d="M78.964,149.307c0.387,0 0.837,-0.099 1.179,-0.243l-0,-0.72c-0.378,0.153 -0.81,0.261 -1.107,0.261c-0.441,0 -0.747,-0.333 -0.747,-0.792l-0,-2.394l1.728,0l-0,-0.684l-1.728,0l-0,-1.188l-0.756,0l-0,1.188l-0.9,0l-0,0.684l0.9,0l-0,2.448c-0,0.837 0.504,1.44 1.431,1.44Z" style="fill:#fff;fill-rule:nonzero;"/><path d="M82.375,149.397c0.45,0 0.981,-0.18 1.359,-0.45l0.477,0.288l0.234,0l-0,-3.168c-0,-0.882 -0.576,-1.476 -1.656,-1.476c-0.495,0 -1.152,0.153 -1.611,0.333l-0,0.756c0.495,-0.216 1.098,-0.405 1.521,-0.405c0.63,0 0.99,0.333 0.99,0.882l-0,0.387l-0.891,0c-1.35,0 -1.953,0.63 -1.953,1.404c-0,0.828 0.522,1.449 1.53,1.449Zm0.054,-0.684c-0.495,0 -0.819,-0.324 -0.819,-0.765c-0,-0.423 0.387,-0.792 1.287,-0.792l0.792,0l-0,1.134c-0.405,0.243 -0.873,0.423 -1.26,0.423Z" style="fill:#fff;fill-rule:nonzero;"/><path d="M85.849,149.235l0.756,0l-0,-2.718c0.495,-0.576 1.26,-0.99 2.034,-0.99l-0,-0.846c-0.864,0 -1.629,0.513 -2.052,1.134l-0,-1.08l-0.738,0l-0,4.5Z" style="fill:#fff;fill-rule:nonzero;"/><path d="M89.944,143.943c0.288,0 0.531,-0.234 0.531,-0.531c-0,-0.288 -0.243,-0.531 -0.531,-0.531c-0.297,0 -0.531,0.243 -0.531,0.531c-0,0.297 0.234,0.531 0.531,0.531Zm-0.378,5.292l0.756,0l-0,-4.5l-0.756,0l-0,4.5Z" style="fill:#fff;fill-rule:nonzero;"/><path d="M93.634,149.397c1.296,0 2.097,-0.918 2.097,-2.448c-0,-1.476 -0.801,-2.376 -2.097,-2.376c-1.296,0 -2.097,0.9 -2.097,2.376c-0,1.53 0.801,2.448 2.097,2.448Zm-0,-0.702c-0.81,0 -1.305,-0.612 -1.305,-1.746c-0,-1.08 0.495,-1.674 1.305,-1.674c0.81,0 1.305,0.594 1.305,1.674c-0,1.134 -0.495,1.746 -1.305,1.746Z" style="fill:#fff;fill-rule:nonzero;"/><path d="M99.592,151.251l0.774,0l2.646,-6.516l-0.81,0l-1.395,3.483l-1.332,-3.483l-0.846,0l1.782,4.473l-0.819,2.043Z" style="fill:#fff;fill-rule:nonzero;"/><path d="M107.917,149.379c0.486,0 1.044,-0.171 1.422,-0.414l-0,-0.792c-0.432,0.27 -0.972,0.504 -1.422,0.504c-0.747,0 -1.215,-0.648 -1.215,-1.728c-0,-1.035 0.468,-1.656 1.215,-1.656c0.423,0 0.99,0.234 1.422,0.504l-0,-0.792c-0.378,-0.243 -0.927,-0.414 -1.404,-0.414c-1.296,0 -2.025,0.891 -2.025,2.358c-0,1.512 0.72,2.43 2.007,2.43Z" style="fill:#fff;fill-rule:nonzero;"/><path d="M112.3,149.397c1.296,0 2.097,-0.918 2.097,-2.448c-0,-1.476 -0.801,-2.376 -2.097,-2.376c-1.296,0 -2.097,0.9 -2.097,2.376c-0,1.53 0.801,2.448 2.097,2.448Zm-0,-0.702c-0.81,0 -1.305,-0.612 -1.305,-1.746c-0,-1.08 0.495,-1.674 1.305,-1.674c0.81,0 1.305,0.594 1.305,1.674c-0,1.134 -0.495,1.746 -1.305,1.746Z" style="fill:#fff;fill-rule:nonzero;"/><path d="M115.567,149.235l0.756,0l-0,-3.528c0.396,-0.225 0.9,-0.414 1.278,-0.414c0.576,0 0.954,0.414 0.954,1.026l-0,2.916l0.756,0l-0,-3.042c-0,-0.972 -0.63,-1.602 -1.584,-1.602c-0.513,0 -1.053,0.189 -1.449,0.423l-0.477,-0.279l-0.234,0l-0,4.5Z" style="fill:#fff;fill-rule:nonzero;"/><path d="M122.452,149.307c0.387,0 0.837,-0.099 1.179,-0.243l-0,-0.72c-0.378,0.153 -0.81,0.261 -1.107,0.261c-0.441,0 -0.747,-0.333 -0.747,-0.792l-0,-2.394l1.728,0l-0,-0.684l-1.728,0l-0,-1.188l-0.756,0l-0,1.188l-0.9,0l-0,0.684l0.9,0l-0,2.448c-0,0.837 0.504,1.44 1.431,1.44Z" style="fill:#fff;fill-rule:nonzero;"/><path d="M124.567,149.235l0.756,0l-0,-2.718c0.495,-0.576 1.26,-0.99 2.034,-0.99l-0,-0.846c-0.864,0 -1.629,0.513 -2.052,1.134l-0,-1.08l-0.738,0l-0,4.5Z" style="fill:#fff;fill-rule:nonzero;"/><path d="M129.445,149.397c0.45,0 0.981,-0.18 1.359,-0.45l0.477,0.288l0.234,0l-0,-3.168c-0,-0.882 -0.576,-1.476 -1.656,-1.476c-0.495,0 -1.152,0.153 -1.611,0.333l-0,0.756c0.495,-0.216 1.098,-0.405 1.521,-0.405c0.63,0 0.99,0.333 0.99,0.882l-0,0.387l-0.891,0c-1.35,0 -1.953,0.63 -1.953,1.404c-0,0.828 0.522,1.449 1.53,1.449Zm0.054,-0.684c-0.495,0 -0.819,-0.324 -0.819,-0.765c-0,-0.423 0.387,-0.792 1.287,-0.792l0.792,0l-0,1.134c-0.405,0.243 -0.873,0.423 -1.26,0.423Z" style="fill:#fff;fill-rule:nonzero;"/><path d="M134.656,149.307c0.387,0 0.837,-0.099 1.179,-0.243l-0,-0.72c-0.378,0.153 -0.81,0.261 -1.107,0.261c-0.441,0 -0.747,-0.333 -0.747,-0.792l-0,-2.394l1.728,0l-0,-0.684l-1.728,0l-0,-1.188l-0.756,0l-0,1.188l-0.9,0l-0,0.684l0.9,0l-0,2.448c-0,0.837 0.504,1.44 1.431,1.44Z" style="fill:#fff;fill-rule:nonzero;"/><path d="M138.526,149.397c1.296,0 2.097,-0.918 2.097,-2.448c-0,-1.476 -0.801,-2.376 -2.097,-2.376c-1.296,0 -2.097,0.9 -2.097,2.376c-0,1.53 0.801,2.448 2.097,2.448Zm-0,-0.702c-0.81,0 -1.305,-0.612 -1.305,-1.746c-0,-1.08 0.495,-1.674 1.305,-1.674c0.81,0 1.305,0.594 1.305,1.674c-0,1.134 -0.495,1.746 -1.305,1.746Z" style="fill:#fff;fill-rule:nonzero;"/><path d="M143.098,149.361c1.08,0 1.764,-0.558 1.764,-1.404c-0,-0.846 -0.594,-1.152 -1.44,-1.377c-0.549,-0.144 -1.089,-0.27 -1.089,-0.702c-0,-0.306 0.27,-0.585 0.864,-0.585c0.405,0 0.963,0.162 1.476,0.387l-0,-0.756c-0.441,-0.189 -0.999,-0.315 -1.476,-0.315c-1.044,0 -1.602,0.594 -1.602,1.287c-0,0.972 0.756,1.161 1.494,1.359c0.558,0.153 1.017,0.288 1.017,0.738c-0,0.396 -0.378,0.675 -1.026,0.675c-0.396,0 -0.999,-0.18 -1.467,-0.396l-0,0.774c0.405,0.189 0.945,0.315 1.485,0.315Z" style="fill:#fff;fill-rule:nonzero;"/><path d="M70.794,86.897c4.536,-0 7.728,-3.048 7.728,-7.704c0,-0.624 -0.072,-1.32 -0.192,-1.872l-7.896,-0l0.912,2.832l3.672,-0c-0.312,2.256 -2.184,3.624 -4.176,3.624c-2.76,-0 -4.368,-2.184 -4.368,-5.76c0,-3.288 2.016,-5.664 4.968,-5.664c1.536,-0 3.792,0.696 5.712,1.656l0,-3.384c-1.68,-0.816 -3.84,-1.392 -5.808,-1.392c-5.208,-0 -8.424,3.696 -8.424,8.784c0,5.352 2.76,8.88 7.872,8.88Z" style="fill:#fff;fill-rule:nonzero;"/><path d="M79.626,86.465l3.408,-0l1.272,-3.216l7.056,-0l1.248,3.216l3.576,-0l-6.936,-16.8l-2.664,-0l-6.96,16.8Zm5.832,-6.144l2.4,-6.144l2.376,6.144l-4.776,-0Z" style="fill:#fff;fill-rule:nonzero;"/><path d="M98.346,86.465l11.448,-0l-1.008,-3.072l-7.08,-0l0,-13.728l-3.36,-0l0,16.8Z" style="fill:#fff;fill-rule:nonzero;"/><path d="M110.802,86.465l3.408,-0l1.272,-3.216l7.056,-0l1.248,3.216l3.576,-0l-6.936,-16.8l-2.664,-0l-6.96,16.8Zm5.832,-6.144l2.4,-6.144l2.376,6.144l-4.776,-0Z" style="fill:#fff;fill-rule:nonzero;"/><path d="M129.522,86.465l3.336,-0l0,-6.6l0.432,-0l5.088,6.6l4.08,-0l-5.568,-6.792c2.688,-0.552 4.296,-2.352 4.296,-4.944c0,-3.192 -2.16,-5.064 -6.192,-5.064l-5.472,-0l0,16.8Zm3.336,-9.336l0,-4.536l2.04,-0c1.92,-0 2.832,0.816 2.832,2.184c0,1.488 -1.152,2.352 -2.976,2.352l-1.896,-0Z" style="fill:#fff;fill-rule:nonzero;"/><rect x="144.618" y="69.665" width="3.36" height="16.8" style="fill:#fff;fill-rule:nonzero;"/><path d="M150.138,86.465l3.408,-0l1.272,-3.216l7.056,-0l1.248,3.216l3.576,-0l-6.936,-16.8l-2.664,-0l-6.96,16.8Zm5.832,-6.144l2.4,-6.144l2.376,6.144l-4.776,-0Z" style="fill:#fff;fill-rule:nonzero;"/><path d="M172.89,86.465l3.72,-0l3.504,-5.832l3.72,5.832l3.792,-0l-5.472,-8.568l5.28,-8.232l-3.696,-0l-3.36,5.472l-3.48,-5.472l-3.816,-0l5.232,8.184l-5.424,8.616Z" style="fill:#fff;fill-rule:nonzero;"/><path d="M189.786,86.465l11.208,-0l-1.008,-3.072l-6.84,-0l0,-4.176l6.072,-0l0,-2.976l-6.072,-0l0,-3.504l6.792,-0l1.008,-3.072l-11.16,-0l0,16.8Z" style="fill:#fff;fill-rule:nonzero;"/><path d="M207.378,86.849c3.84,-0 6.552,-2.04 6.552,-5.208c0,-3.24 -2.112,-4.2 -4.392,-5.112c-2.352,-0.936 -3.36,-1.344 -3.36,-2.448c0,-0.912 0.816,-1.728 2.376,-1.728c1.32,-0 3.24,0.6 4.752,1.368l0,-3.336c-1.392,-0.6 -3.144,-1.104 -4.752,-1.104c-3.648,-0 -5.736,2.256 -5.736,4.848c0,2.88 1.848,3.984 4.224,4.944c2.28,0.912 3.48,1.44 3.48,2.616c0,1.176 -1.176,2.088 -3.192,2.088c-1.344,-0 -3.144,-0.624 -4.56,-1.416l0,3.384c1.176,0.624 2.928,1.104 4.608,1.104Z" style="fill:#fff;fill-rule:nonzero;"/></svg>