<svg xmlns="http://www.w3.org/2000/svg" xml:space="preserve" style="fill-rule:evenodd;clip-rule:evenodd;stroke-linejoin:round;stroke-miterlimit:2" viewBox="0 0 177 72"><path d="M43.201 28.801H40.8V31.2h-2.4v-2.399h-2.399v-2.4H38.4V24h2.4v2.401h2.401zm0 14.398H40.8v2.399h-2.4v-2.399h-2.399V40.8H38.4v-2.402h2.4V40.8h2.401zm0 14.4H40.8v2.4h-2.4v-2.4h-2.399V55.2H38.4v-2.401h2.4V55.2h2.401zm-7.903-41.458-.883 1.259h-2.241l1.604-2.315c.271-.396.368-.916.368-1.241 0-.564-.183-1.04-.543-1.409a2.12 2.12 0 0 0-1.584-.673c-.263 0-.454.022-.454.022l-.006-.006c.135.476.207.938.207 1.369 0 .779-.084 1.442-.498 2.139L30.019 17.4h-2.184l1.779-3.018c.164-.279.295-.819.295-1.235 0-.616-.191-1.116-.588-1.522-.462-.479-.996-.72-1.585-.72-.742 0-1.279.212-1.636.652V17.4h-1.799v-5.843c-.359-.44-.895-.652-1.638-.652-.589 0-1.121.241-1.583.72-.395.406-.59.906-.59 1.522 0 .416.131.956.295 1.235l1.779 3.018H20.38l-1.249-2.114c-.412-.697-.496-1.36-.496-2.139 0-.431.072-.893.207-1.369l-.008.006s-.187-.022-.454-.022c-.619 0-1.149.225-1.58.673-.364.369-.546.845-.546 1.409 0 .325.096.845.369 1.241l1.604 2.315h-2.242l-.88-1.259c-.482-.693-.705-1.421-.705-2.297 0-1.122.396-2.062 1.169-2.779.779-.803 1.725-1.208 2.811-1.208.464 0 .964.094 1.49.271a2 2 0 0 1 .126-.129c.711-.662 1.608-1 2.667-1 .919 0 1.771.281 2.538.837a4.24 4.24 0 0 1 2.535-.837c1.061 0 1.956.338 2.669 1q.067.06.128.129c.477-.17.979-.261 1.486-.271 1.088 0 2.036.405 2.811 1.208.775.717 1.171 1.657 1.171 2.779 0 .876-.225 1.604-.703 2.297M33.599 21H16.8v-1.799h16.799zm-8.398 12.601c2.633 0 4.799 2.166 4.799 4.799s-2.166 4.799-4.799 4.799l-.098.001c-2.633 0-4.8-2.167-4.8-4.8s2.167-4.8 4.8-4.8zm3.6-7.2v2.4h-2.402V31.2H24v-2.399h-2.4v-2.4H24V24h2.399v2.401zm-2.35 27.506q-.05.642-.052 1.293c0 3.568 1.115 6.879 3.012 9.599h-8.423A16.73 16.73 0 0 0 24 55.2q0-.651-.048-1.293c-4.094-.615-7.153-4.169-7.152-8.309h16.799c.001 4.138-3.056 7.692-7.148 8.309M14.4 28.801h-2.401V31.2H9.6v-2.399H7.2v-2.4h2.4V24h2.399v2.401H14.4zm0 14.398h-2.401v2.399H9.6v-2.399H7.2V40.8h2.4v-2.402h2.399V40.8H14.4zm0 14.4h-2.401v2.4H9.6v-2.4H7.2V55.2h2.4v-2.401h2.399V55.2H14.4zm9.002-51.6H24.6V4.801h1.201v1.198h1.201V7.2h-1.201v1.201H24.6V7.2h-1.198zM0 72h50.401V0H0zm86.112-50.165c2.992 0 5.046-1.576 5.046-4.194 0-2.535-1.701-3.304-4.174-4.571-1.704-.873-2.618-1.351-2.618-2.514 0-1.039.852-1.953 2.494-1.953 1.143 0 2.577.519 3.925 1.246V7.877c-1.099-.602-2.533-1.037-3.925-1.037-2.722 0-4.382 1.68-4.382 3.757 0 2.452 1.763 3.242 3.841 4.281 1.684.831 2.91 1.475 2.91 2.846 0 1.413-1.247 2.348-3.159 2.348-1.081 0-2.576-.582-3.779-1.351v1.994c.975.622 2.407 1.12 3.821 1.12m7.999-.332h8.888l-.582-1.743h-6.439v-4.863h5.691v-1.742h-5.691V8.914h6.356l.582-1.742h-8.805zm11.591 0h1.867v-6.066h.457l5.34 6.066h2.429l-5.503-6.087c2.701-.145 4.402-1.68 4.402-4.153 0-2.577-1.826-4.091-4.839-4.091h-4.153zm1.867-7.642V8.873h2.203c1.85 0 2.972.935 2.972 2.431 0 1.538-1.247 2.557-3.055 2.557zm14.293 7.849h.956l5.69-14.538h-1.952l-4.195 11.07-4.154-11.07h-2.035zm8.851-14.538h1.867v14.331h-1.867zm4.487 14.331h10.591l-.56-1.743h-7.248l7.642-11.924v-.664h-10.301l.561 1.742h6.957L135.2 20.839zm18.3.374c3.948 0 6.459-2.927 6.459-7.644 0-4.488-2.511-7.435-6.459-7.435s-6.459 2.947-6.459 7.435c0 4.717 2.511 7.644 6.459 7.644m0-1.784c-2.722 0-4.467-2.078-4.467-5.86 0-3.532 1.745-5.651 4.467-5.651s4.468 2.119 4.468 5.651c0 3.782-1.746 5.86-4.468 5.86M88.895 43.398c3.99 0 6.501-2.678 6.501-6.481q0-.716-.124-1.307h-6.418l.561 1.743h4.01c-.228 2.681-2.036 4.261-4.53 4.261-2.68 0-4.488-2.224-4.488-5.817 0-3.387 2.078-5.653 5.05-5.653 1.246 0 3.158.728 4.923 1.829v-2.16c-1.412-.83-3.324-1.452-4.923-1.452-4.26 0-7.041 2.968-7.041 7.436 0 4.674 2.49 7.601 6.479 7.601m7.833-.374h1.973l1.412-3.511h6.418l1.391 3.511h2.057l-6.023-14.331h-1.205zm4.071-5.212 2.534-6.294 2.513 6.294zm11.384 5.212h9.096l-.582-1.743h-6.647V28.693h-1.867zm11.384 0h8.888l-.582-1.743h-6.439v-4.863h5.691v-1.742h-5.691v-4.241h6.356l.582-1.742h-8.805zm16.99.374c3.99 0 6.501-2.678 6.501-6.481q0-.716-.125-1.307h-6.418l.561 1.743h4.011c-.229 2.681-2.037 4.261-4.53 4.261-2.68 0-4.488-2.224-4.488-5.817 0-3.387 2.078-5.653 5.049-5.653 1.247 0 3.158.728 4.923 1.829v-2.16c-1.411-.83-3.323-1.452-4.923-1.452-4.26 0-7.041 2.968-7.041 7.436 0 4.674 2.49 7.601 6.48 7.601m15.081 0c3.948 0 6.459-2.927 6.459-7.644 0-4.488-2.511-7.435-6.459-7.435s-6.459 2.947-6.459 7.435c0 4.717 2.511 7.644 6.459 7.644m0-1.784c-2.722 0-4.467-2.078-4.467-5.86 0-3.532 1.745-5.651 4.467-5.651s4.467 2.119 4.467 5.651c0 3.782-1.745 5.86-4.467 5.86m-67.865 8.6h-4.526v14.331h4.734c3.948 0 6.626-2.615 6.626-7.27 0-4.508-2.719-7.061-6.834-7.061m.084 12.588h-2.743V51.956h2.618c2.826 0 4.883 1.766 4.883 5.319 0 3.699-1.974 5.527-4.758 5.527m9.744 1.743h8.888l-.582-1.743h-6.439v-4.863h5.691v-1.742h-5.691v-4.241h6.356l.582-1.742h-8.805zm19.981.332c2.993 0 5.047-1.576 5.047-4.194 0-2.535-1.701-3.304-4.174-4.571-1.704-.873-2.619-1.351-2.619-2.514 0-1.039.853-1.953 2.495-1.953 1.143 0 2.576.519 3.925 1.246v-1.972c-1.1-.602-2.533-1.037-3.925-1.037-2.723 0-4.382 1.68-4.382 3.757 0 2.452 1.763 3.242 3.841 4.281 1.684.831 2.91 1.475 2.91 2.846 0 1.413-1.247 2.348-3.159 2.348-1.081 0-2.576-.582-3.779-1.351v1.994c.975.622 2.407 1.12 3.82 1.12m6.587-.332h1.973l1.412-3.511h6.418l1.391 3.511h2.056l-6.023-14.331h-1.204zm4.071-5.212 2.533-6.294 2.513 6.294zm16.617-10.615 2.951-3.448h-2.432l-1.787 2.721zm-.229 16.201c3.242 0 5.296-1.95 5.296-5.17v-9.535h-1.867v9.452c0 2.222-1.351 3.469-3.429 3.469s-3.429-1.247-3.429-3.469v-9.452h-1.867v9.535c0 3.22 2.054 5.17 5.296 5.17m13.523-14.705h-4.527v14.331h4.735c3.948 0 6.625-2.615 6.625-7.27 0-4.508-2.719-7.061-6.833-7.061m.083 12.588h-2.743V51.956h2.618c2.826 0 4.884 1.766 4.884 5.319 0 3.699-1.974 5.527-4.759 5.527m9.744 1.743h8.888l-.581-1.743h-6.44v-4.863h5.692v-1.742h-5.692v-4.241h6.356l.582-1.742h-8.805z" style="fill:#fff;fill-rule:nonzero"/><path d="M64.59.034h2.416V72H64.59z" style="fill:#fff"/></svg>