<svg xmlns="http://www.w3.org/2000/svg" xml:space="preserve" viewBox="0 0 1190.55 1700.79"><path d="M0 0v1700.79h1190.55V0zm552.76 141.74h28.35V113.4h28.35v28.35h28.35v28.35h-28.35v28.35H581.1V170.1h-28.35v-28.36zm-212.6 1218.89h-56.69v56.69h-56.69v-56.69h-56.69v-56.69h56.69v-56.69h56.69v56.69h56.69zm0-340.16h-56.69v56.69h-56.69v-56.69h-56.69v-56.69h56.69v-56.69h56.69v56.69h56.69zm0-340.16h-56.69V737h-56.69v-56.69h-56.69v-56.69h56.69v-56.69h56.69v56.69h56.69zm284.63 593.09c-.77 10.08-1.16 20.26-1.16 30.53 0 84.32 26.3 162.49 71.14 226.77H495.79c44.84-64.28 71.14-142.45 71.14-226.77 0-10.27-.4-20.46-1.16-30.53-95.59-14.25-168.91-96.68-168.91-196.24H793.7c0 99.56-73.32 181.99-168.91 196.24m55.53-649.78v56.69h-56.69V737h-56.69v-56.69h-56.69v-56.69h56.69v-56.69h56.69v56.69zM595.28 793.7c62.62 0 113.39 50.76 113.39 113.39 0 62.62-50.76 113.39-113.39 113.39-62.62 0-113.39-50.76-113.39-113.39 0-62.62 50.76-113.39 113.39-113.39M793.7 496.06H396.85v-42.52H793.7zm40.08-114.74-20.84 29.71h-52.96l37.92-54.68c6.41-9.34 8.69-21.62 8.69-29.28 0-13.35-4.32-24.57-12.85-33.36-10.19-10.53-22.75-15.87-37.36-15.87-6.27 0-10.74.59-10.74.59l-.13-.21c3.17 11.29 4.86 22.18 4.86 32.4 0 18.38-1.99 33.99-11.72 50.47l-29.51 49.96h-51.59l42-71.28c3.92-6.56 6.97-19.36 6.97-29.14 0-14.6-4.55-26.38-13.91-35.99-10.93-11.3-23.51-17.03-37.4-17.03-17.55 0-30.21 5.04-38.68 15.4v138.05h-42.51V272.98c-8.46-10.36-21.13-15.4-38.68-15.4-13.9 0-26.47 5.73-37.4 17.03-9.36 9.61-13.91 21.39-13.91 35.99 0 9.79 3.06 22.58 6.97 29.14l42 71.28h-51.59l-29.51-49.96c-9.73-16.47-11.72-32.09-11.72-50.47 0-10.22 1.69-21.1 4.86-32.4l-.13.21s-4.47-.59-10.74-.59c-14.6 0-27.17 5.34-37.36 15.87-8.53 8.79-12.85 20.01-12.85 33.36 0 7.67 2.28 19.94 8.69 29.28L430.57 411h-52.96l-20.83-29.71c-11.34-16.37-16.62-33.61-16.62-54.25 0-26.58 9.34-48.73 27.64-65.68 18.36-18.94 40.7-28.54 66.38-28.54 10.96 0 22.78 2.23 35.16 6.41.95-1.06 1.9-2.12 3-3.07 16.81-15.65 38-23.58 63.01-23.58 21.66 0 41.82 6.65 59.93 19.78 18.12-13.13 38.27-19.78 59.93-19.78 25.01 0 46.2 7.93 63.01 23.58 1.09.95 2.05 2.01 3 3.07 12.38-4.18 24.2-6.41 35.16-6.41 25.68 0 48.02 9.6 66.38 28.54 18.3 16.95 27.64 39.1 27.64 65.68-.01 20.66-5.29 37.91-16.62 54.28m186.69 979.31h-56.69v56.69h-56.69v-56.69H850.4v-56.69h56.69v-56.69h56.69v56.69h56.69zm0-340.16h-56.69v56.69h-56.69v-56.69H850.4v-56.69h56.69v-56.69h56.69v56.69h56.69zm0-340.16h-56.69V737h-56.69v-56.69H850.4v-56.69h56.69v-56.69h56.69v56.69h56.69z" style="fill:#fff"/></svg>