<?xml version="1.0" encoding="UTF-8" standalone="no"?><!DOCTYPE svg PUBLIC "-//W3C//DTD SVG 1.1//EN" "http://www.w3.org/Graphics/SVG/1.1/DTD/svg11.dtd"><svg width="100%" height="100%" viewBox="0 0 461 96" version="1.1" xmlns="http://www.w3.org/2000/svg" xmlns:xlink="http://www.w3.org/1999/xlink" xml:space="preserve" xmlns:serif="http://www.serif.com/" style="fill-rule:evenodd;clip-rule:evenodd;stroke-linejoin:round;stroke-miterlimit:2;"><rect x="0" y="0" width="460.8" height="69.909" style="fill:#007bc4;"/><rect x="0" y="69.909" width="401.773" height="26.091" style="fill:#002b49;"/><rect x="401.773" y="69.909" width="59.027" height="26.091" style="fill:#f8690d;"/><path d="M45.648,29.518l-1.813,0l-0,1.812l-1.813,-0l0,-1.812l-1.811,0l-0,-1.812l1.811,0l0,-1.813l1.813,0l-0,1.813l1.813,0l-0,1.812Zm-0,10.872l-1.813,0l-0,1.812l-1.813,-0l0,-1.812l-1.811,0l-0,-1.811l1.811,-0l0,-1.814l1.813,0l-0,1.814l1.813,-0l-0,1.811Zm-0,10.874l-1.813,-0l-0,1.812l-1.813,-0l0,-1.812l-1.811,-0l-0,-1.812l1.811,0l0,-1.813l1.813,0l-0,1.813l1.813,0l-0,1.812Zm-5.968,-31.305l-0.667,0.951l-1.692,-0l1.211,-1.748c0.205,-0.299 0.278,-0.692 0.278,-0.937c0,-0.426 -0.138,-0.786 -0.41,-1.064c-0.309,-0.331 -0.744,-0.516 -1.196,-0.509c-0.198,0 -0.343,0.017 -0.343,0.017l-0.004,-0.004c0.102,0.359 0.156,0.708 0.156,1.033c0,0.588 -0.063,1.089 -0.376,1.615l-0.943,1.597l-1.649,-0l1.343,-2.279c0.124,-0.211 0.223,-0.619 0.223,-0.933c-0,-0.465 -0.144,-0.842 -0.444,-1.149c-0.349,-0.362 -0.752,-0.544 -1.197,-0.544c-0.56,0 -0.966,0.16 -1.235,0.493l-0,4.412l-1.359,-0l0,-4.412c-0.271,-0.333 -0.675,-0.493 -1.237,-0.493c-0.444,0 -0.846,0.182 -1.195,0.544c-0.298,0.307 -0.445,0.684 -0.445,1.149c-0,0.314 0.099,0.722 0.222,0.933l1.344,2.279l-1.649,-0l-0.944,-1.597c-0.311,-0.526 -0.374,-1.027 -0.374,-1.615c-0,-0.325 0.054,-0.674 0.156,-1.033l-0.006,0.004c0,0 -0.141,-0.017 -0.343,-0.017c-0.467,0 -0.867,0.17 -1.193,0.509c-0.274,0.278 -0.412,0.638 -0.412,1.064c0,0.245 0.073,0.638 0.279,0.937l1.211,1.748l-1.693,-0l-0.664,-0.951c-0.364,-0.523 -0.533,-1.073 -0.533,-1.734c0,-0.848 0.299,-1.557 0.883,-2.099c0.588,-0.606 1.302,-0.912 2.122,-0.912c0.351,0 0.728,0.071 1.126,0.205c0.03,-0.034 0.061,-0.067 0.095,-0.098c0.537,-0.5 1.214,-0.755 2.013,-0.755c0.694,0 1.338,0.212 1.917,0.632c0.553,-0.411 1.225,-0.633 1.914,-0.632c0.801,0 1.477,0.255 2.015,0.755c0.034,0.03 0.066,0.063 0.097,0.098c0.36,-0.129 0.739,-0.197 1.122,-0.205c0.822,0 1.537,0.306 2.123,0.912c0.585,0.542 0.884,1.251 0.884,2.099c-0,0.661 -0.17,1.211 -0.531,1.734m-1.283,3.669l-12.685,0l0,-1.358l12.685,-0l0,1.358Zm-6.341,9.515c1.988,-0 3.624,1.635 3.624,3.624c-0,1.988 -1.636,3.623 -3.624,3.623l-0.074,0.001c-1.988,0 -3.625,-1.636 -3.625,-3.624c0,-1.989 1.637,-3.625 3.625,-3.625l0.074,0.001Zm2.718,-5.437l0,1.812l-1.813,0l-0,1.812l-1.812,-0l0,-1.812l-1.812,0l-0,-1.812l1.812,0l0,-1.813l1.812,0l-0,1.813l1.813,0Zm-1.774,20.77c-0.025,0.323 -0.038,0.648 -0.039,0.976c-0,2.694 0.841,5.194 2.274,7.248l-6.36,0c1.483,-2.125 2.278,-4.656 2.274,-7.248c0,-0.328 -0.012,-0.653 -0.036,-0.976c-3.092,-0.465 -5.401,-3.148 -5.401,-6.274l12.685,-0c0.001,3.124 -2.307,5.808 -5.397,6.274m-9.1,-18.958l-1.813,0l0,1.812l-1.811,-0l-0,-1.812l-1.812,0l-0,-1.812l1.812,0l-0,-1.813l1.811,0l0,1.813l1.813,0l0,1.812Zm0,10.872l-1.813,0l0,1.812l-1.811,-0l-0,-1.812l-1.812,0l-0,-1.811l1.812,-0l-0,-1.814l1.811,0l0,1.814l1.813,-0l0,1.811Zm0,10.874l-1.813,-0l0,1.812l-1.811,-0l-0,-1.812l-1.812,-0l-0,-1.812l1.812,0l-0,-1.813l1.811,0l0,1.813l1.813,0l0,1.812Zm6.797,-38.963l0.905,-0l0,-0.905l0.907,0l-0,0.905l0.907,-0l-0,0.907l-0.907,-0l-0,0.907l-0.907,-0l0,-0.907l-0.905,-0l0,-0.907Zm-17.67,49.837l38.057,-0l0,-54.367l-38.057,0l-0,54.367Zm67.124,-37.848c3.013,0 4.909,-2.022 4.909,-4.894c-0,-0.36 -0.032,-0.689 -0.094,-0.986l-4.846,-0l0.423,1.316l3.028,-0c-0.172,2.024 -1.537,3.217 -3.42,3.217c-2.024,0 -3.389,-1.679 -3.389,-4.392c-0,-2.558 1.569,-4.269 3.813,-4.269c0.941,0 2.385,0.55 3.717,1.381l0,-1.631c-1.066,-0.626 -2.51,-1.096 -3.717,-1.096c-3.217,-0 -5.317,2.241 -5.317,5.615c0,3.529 1.881,5.739 4.893,5.739m5.914,-0.282l1.49,-0l1.066,-2.651l4.846,-0l1.051,2.651l1.553,-0l-4.548,-10.821l-0.91,-0l-4.548,10.821Zm3.074,-3.936l1.914,-4.752l1.897,4.752l-3.811,0Zm8.596,3.936l6.869,-0l-0.44,-1.316l-5.019,-0l0,-9.505l-1.41,-0l0,10.821Zm7.624,-0l1.489,-0l1.067,-2.651l4.846,-0l1.05,2.651l1.553,-0l-4.548,-10.821l-0.909,-0l-4.548,10.821Zm3.074,-3.936l1.912,-4.752l1.898,4.752l-3.81,0Zm8.596,3.936l1.409,-0l0,-4.581l0.345,0l4.033,4.581l1.834,-0l-4.156,-4.596c2.04,-0.11 3.324,-1.269 3.324,-3.136c0,-1.946 -1.378,-3.089 -3.654,-3.089l-3.135,-0l-0,10.821Zm1.409,-5.771l0,-3.766l1.664,0c1.397,0 2.244,0.706 2.244,1.836c-0,1.161 -0.942,1.93 -2.307,1.93l-1.601,0Zm7.939,-5.05l1.409,-0l0,10.821l-1.409,-0l-0,-10.821Zm3.074,10.821l1.49,-0l1.066,-2.651l4.847,-0l1.05,2.651l1.552,-0l-4.548,-10.821l-0.909,-0l-4.548,10.821Zm3.074,-3.936l1.913,-4.752l1.898,4.752l-3.811,0Zm-57.267,20.185l6.796,0l-0.445,-1.316l-4.923,0l-0,-3.672l4.351,0l0,-1.315l-4.351,-0l-0,-3.202l4.859,-0l0.445,-1.316l-6.732,0l-0,10.821Zm8.862,0l1.365,0l-0,-7.825l3.685,7.449l0.477,-0l3.685,-7.465l0,7.841l1.364,0l0,-10.821l-1.269,0l-4.003,8.061l-4.003,-8.061l-1.301,0l0,10.821Zm13.5,0l1.428,0l0,-4.047l1.637,0c2.32,0 3.811,-1.253 3.811,-3.434c-0,-2.102 -1.459,-3.34 -3.843,-3.34l-3.033,0l0,10.821Zm1.428,-5.331l0,-4.205l1.541,-0c1.494,-0 2.416,0.784 2.416,2.055c0,1.318 -0.89,2.15 -2.384,2.15l-1.573,0Zm7.514,5.331l1.428,0l0,-4.58l0.35,0l4.083,4.58l1.856,0l-4.207,-4.596c2.065,-0.109 3.366,-1.268 3.366,-3.136c0,-1.946 -1.396,-3.089 -3.7,-3.089l-3.176,0l0,10.821Zm1.428,-5.77l0,-3.766l1.685,-0c1.414,-0 2.272,0.706 2.272,1.835c-0,1.162 -0.954,1.931 -2.336,1.931l-1.621,-0Zm8.039,5.77l6.796,0l-0.445,-1.316l-4.924,0l-0,-3.672l4.352,0l-0,-1.315l-4.352,-0l-0,-3.202l4.86,-0l0.445,-1.316l-6.732,0l-0,10.821Zm11.053,0.251c2.288,0 3.858,-1.19 3.858,-3.167c0,-1.914 -1.3,-2.495 -3.191,-3.451c-1.303,-0.659 -2.002,-1.02 -2.002,-1.899c-0,-0.784 0.652,-1.474 1.906,-1.474c0.875,-0 1.971,0.392 3.002,0.941l-0,-1.489c-0.84,-0.455 -1.937,-0.784 -3.002,-0.784c-2.081,0 -3.35,1.269 -3.35,2.837c0,1.852 1.349,2.448 2.937,3.233c1.288,0.627 2.225,1.114 2.225,2.149c-0,1.067 -0.953,1.773 -2.415,1.773c-0.827,-0 -1.969,-0.44 -2.89,-1.02l0,1.505c0.746,0.47 1.841,0.846 2.922,0.846m5.035,-0.251l1.508,0l1.08,-2.651l4.907,0l1.064,2.651l1.572,0l-4.605,-10.821l-0.922,0l-4.604,10.821Zm3.112,-3.935l1.937,-4.753l1.922,4.753l-3.859,-0Zm12.929,3.935l1.428,0l-0,-4.047l1.636,0c2.321,0 3.811,-1.253 3.811,-3.434c0,-2.102 -1.459,-3.34 -3.843,-3.34l-3.032,0l-0,10.821Zm1.428,-5.331l-0,-4.205l1.541,-0c1.494,-0 2.416,0.784 2.416,2.055c-0,1.318 -0.891,2.15 -2.384,2.15l-1.573,0Zm11.643,-6.619l2.256,-2.604l-1.859,0l-1.367,2.055l0.97,0.549Zm-0.176,12.233c2.479,-0 4.05,-1.473 4.05,-3.904l-0,-7.2l-1.428,0l0,7.137c0,1.678 -1.032,2.62 -2.622,2.62c-1.589,-0 -2.621,-0.942 -2.621,-2.62l-0,-7.137l-1.427,0l-0,7.2c-0,2.431 1.57,3.904 4.048,3.904m6.879,-0.283l3.795,0c2.129,0 3.477,-1.159 3.477,-3.167c-0,-1.208 -0.65,-2.134 -1.888,-2.588c0.888,-0.485 1.411,-1.271 1.411,-2.291c0,-1.741 -1.236,-2.775 -3.349,-2.775l-3.446,0l-0,10.821Zm1.427,-6.24l0,-3.328l1.923,-0c1.271,-0 1.987,0.628 1.987,1.586c-0,1.035 -0.811,1.742 -1.828,1.742l-2.082,-0Zm0,4.988l0,-3.736l2.146,0c1.398,0 2.208,0.722 2.208,1.821c0,1.161 -0.874,1.915 -2.113,1.915l-2.241,-0Zm8.071,1.252l6.954,0l-0.445,-1.316l-5.082,0l-0,-9.505l-1.427,0l-0,10.821Zm8.703,-10.821l1.427,0l0,10.821l-1.427,0l0,-10.821Zm8.543,11.072c1.287,0 2.653,-0.47 3.653,-1.206l0,-1.647c-1.207,0.894 -2.541,1.506 -3.653,1.506c-1.969,-0 -3.303,-1.663 -3.303,-4.393c-0,-2.635 1.397,-4.236 3.303,-4.236c1.112,-0 2.446,0.612 3.653,1.506l0,-1.647c-1,-0.736 -2.366,-1.206 -3.653,-1.206c-2.97,0 -4.826,2.226 -4.826,5.583c-0,3.452 1.793,5.74 4.826,5.74m4.83,-0.251l1.508,0l1.08,-2.651l4.907,0l1.064,2.651l1.572,0l-4.606,-10.821l-0.921,0l-4.604,10.821Zm3.112,-3.935l1.937,-4.753l1.922,4.753l-3.859,-0Zm16.39,-6.886l-3.461,0l-0,10.821l3.62,0c3.019,0 5.066,-1.974 5.066,-5.489c-0,-3.404 -2.079,-5.332 -5.225,-5.332m0.064,9.505l-2.097,0l-0,-8.189l2.001,-0c2.161,-0 3.734,1.333 3.734,4.016c-0,2.793 -1.509,4.173 -3.638,4.173m7.45,1.316l6.796,0l-0.445,-1.316l-4.924,0l0,-3.672l4.352,0l-0,-1.315l-4.352,-0l0,-3.202l4.86,-0l0.445,-1.316l-6.732,0l0,10.821Zm-148.473,16.502c2.26,0 3.81,-1.19 3.81,-3.167c0,-1.914 -1.284,-2.495 -3.151,-3.451c-1.287,-0.659 -1.977,-1.02 -1.977,-1.899c-0,-0.784 0.643,-1.474 1.883,-1.474c0.863,-0 1.946,0.392 2.964,0.941l-0,-1.489c-0.83,-0.455 -1.913,-0.783 -2.964,-0.783c-2.055,-0 -3.309,1.268 -3.309,2.836c0,1.852 1.331,2.448 2.901,3.233c1.271,0.627 2.197,1.114 2.197,2.149c-0,1.067 -0.942,1.773 -2.385,1.773c-0.817,-0 -1.946,-0.44 -2.854,-1.02l0,1.505c0.736,0.47 1.818,0.846 2.885,0.846m6.04,-0.251l6.711,0l-0.439,-1.316l-4.862,0l-0,-3.672l4.297,0l0,-1.315l-4.297,-0l-0,-3.202l4.799,-0l0.44,-1.316l-6.649,0l0,10.821Zm8.753,0l1.409,0l0,-4.58l0.345,0l4.033,4.58l1.834,0l-4.156,-4.596c2.04,-0.109 3.324,-1.268 3.324,-3.136c0,-1.946 -1.379,-3.089 -3.654,-3.089l-3.135,0l-0,10.821Zm1.409,-5.77l0,-3.766l1.664,-0c1.397,-0 2.244,0.706 2.244,1.835c-0,1.162 -0.942,1.931 -2.307,1.931l-1.601,0Zm10.792,5.927l0.722,-0l4.296,-10.978l-1.474,0l-3.167,8.359l-3.137,-8.359l-1.536,0l4.296,10.978Zm6.683,-10.978l1.41,0l0,10.821l-1.41,0l0,-10.821Zm3.388,10.821l7.998,0l-0.423,-1.316l-5.473,0l5.77,-9.003l0,-0.502l-7.778,0l0.424,1.316l5.253,-0l-5.771,9.004l0,0.501Zm13.818,0.283c2.981,-0 4.877,-2.21 4.877,-5.772c-0,-3.389 -1.896,-5.614 -4.877,-5.614c-2.981,-0 -4.877,2.225 -4.877,5.614c-0,3.562 1.896,5.772 4.877,5.772m-0,-1.347c-2.056,-0 -3.373,-1.569 -3.373,-4.425c-0,-2.667 1.317,-4.267 3.373,-4.267c2.055,-0 3.374,1.6 3.374,4.267c-0,2.856 -1.319,4.425 -3.374,4.425m9.301,1.315c2.26,0 3.811,-1.19 3.811,-3.167c0,-1.914 -1.284,-2.495 -3.152,-3.451c-1.286,-0.659 -1.977,-1.02 -1.977,-1.899c-0,-0.784 0.643,-1.474 1.883,-1.474c0.863,-0 1.946,0.392 2.964,0.941l-0,-1.489c-0.83,-0.455 -1.912,-0.783 -2.964,-0.783c-2.055,-0 -3.309,1.268 -3.309,2.836c0,1.852 1.332,2.448 2.901,3.233c1.271,0.627 2.197,1.114 2.197,2.149c0,1.067 -0.941,1.773 -2.386,1.773c-0.815,-0 -1.944,-0.44 -2.853,-1.02l-0,1.505c0.737,0.47 1.818,0.846 2.885,0.846m12.376,0c2.26,0 3.811,-1.19 3.811,-3.167c-0,-1.914 -1.285,-2.495 -3.152,-3.451c-1.287,-0.659 -1.977,-1.02 -1.977,-1.899c-0,-0.784 0.643,-1.474 1.883,-1.474c0.863,-0 1.946,0.392 2.964,0.941l-0,-1.489c-0.83,-0.455 -1.913,-0.783 -2.964,-0.783c-2.056,-0 -3.309,1.268 -3.309,2.836c0,1.852 1.331,2.448 2.901,3.233c1.271,0.627 2.197,1.114 2.197,2.149c-0,1.067 -0.942,1.773 -2.386,1.773c-0.816,-0 -1.944,-0.44 -2.853,-1.02l-0,1.505c0.736,0.47 1.817,0.846 2.885,0.846m4.973,-0.251l1.49,0l1.067,-2.651l4.845,0l1.051,2.651l1.553,0l-4.548,-10.821l-0.91,0l-4.548,10.821Zm3.074,-3.935l1.913,-4.753l1.898,4.753l-3.811,-0Zm8.596,3.935l1.41,0l-0,-8.265l5.93,8.265l0.799,0l0,-10.821l-1.41,0l0,7.716l-5.538,-7.716l-1.191,0l-0,10.821Zm11.027,-10.821l1.409,0l0,10.821l-1.409,0l-0,-10.821Zm7.403,10.821l1.41,0l0,-9.505l3.921,-0l0.44,-1.316l-10.131,0l0.439,1.316l3.921,-0l0,9.505Zm4.957,0l1.49,0l1.066,-2.651l4.847,0l1.05,2.651l1.552,0l-4.548,-10.821l-0.909,0l-4.548,10.821Zm3.074,-3.935l1.913,-4.753l1.898,4.753l-3.811,-0Zm8.596,3.935l1.41,0l0,-4.58l0.345,0l4.032,4.58l1.834,0l-4.156,-4.596c2.041,-0.109 3.325,-1.268 3.325,-3.136c0,-1.946 -1.379,-3.089 -3.654,-3.089l-3.136,0l0,10.821Zm1.41,-5.77l0,-3.766l1.664,-0c1.396,-0 2.244,0.706 2.244,1.835c-0,1.162 -0.942,1.931 -2.307,1.931l-1.601,0Zm7.938,-5.051l1.41,0l0,10.821l-1.41,0l0,-10.821Zm8.548,11.104c2.981,-0 4.877,-2.21 4.877,-5.772c0,-3.389 -1.896,-5.614 -4.877,-5.614c-2.981,-0 -4.877,2.225 -4.877,5.614c-0,3.562 1.896,5.772 4.877,5.772m0,-1.347c-2.055,-0 -3.373,-1.569 -3.373,-4.425c0,-2.667 1.318,-4.267 3.373,-4.267c2.055,-0 3.374,1.6 3.374,4.267c-0,2.856 -1.319,4.425 -3.374,4.425m9.301,1.315c2.26,0 3.811,-1.19 3.811,-3.167c0,-1.914 -1.284,-2.495 -3.152,-3.451c-1.286,-0.659 -1.977,-1.02 -1.977,-1.899c-0,-0.784 0.643,-1.474 1.883,-1.474c0.863,-0 1.946,0.392 2.965,0.941l-0,-1.489c-0.831,-0.455 -1.913,-0.783 -2.965,-0.783c-2.055,-0 -3.308,1.268 -3.308,2.836c-0,1.852 1.331,2.448 2.9,3.233c1.271,0.627 2.198,1.114 2.198,2.149c-0,1.067 -0.942,1.773 -2.386,1.773c-0.816,-0 -1.945,-0.44 -2.853,-1.02l-0,1.505c0.736,0.47 1.817,0.846 2.884,0.846" style="fill:#fff;fill-rule:nonzero;"/><rect x="61.798" y="7.797" width="1.824" height="54.341" style="fill:#fff;"/><path d="M411.894,88.922l2.24,0l0,-11.36l-0.608,0l-4.752,2.752l0,2.4l3.12,-1.824l0,8.032Z" style="fill:#fff;fill-rule:nonzero;"/><path d="M417.718,89.146c0.864,0 1.472,-0.608 1.472,-1.504c0,-0.864 -0.608,-1.472 -1.472,-1.472c-0.896,0 -1.504,0.608 -1.504,1.472c0,0.896 0.608,1.504 1.504,1.504Z" style="fill:#fff;fill-rule:nonzero;"/><path d="M425.03,89.178c2.688,0 4.368,-1.952 4.368,-5.936c0,-3.824 -1.68,-5.776 -4.368,-5.776c-2.688,0 -4.368,1.952 -4.368,5.776c0,3.984 1.68,5.936 4.368,5.936Zm0,-2.016c-1.248,0 -2.064,-1.152 -2.064,-3.92c0,-2.608 0.816,-3.76 2.064,-3.76c1.248,0 2.064,1.152 2.064,3.76c0,2.768 -0.816,3.92 -2.064,3.92Z" style="fill:#fff;fill-rule:nonzero;"/><path d="M435.478,88.922l2.224,0l0,-4.4l0.288,0l3.392,4.4l2.72,0l-3.712,-4.528c1.792,-0.368 2.864,-1.568 2.864,-3.296c0,-2.128 -1.44,-3.376 -4.128,-3.376l-3.648,0l0,11.2Zm2.224,-6.224l0,-3.024l1.36,0c1.28,0 1.888,0.544 1.888,1.456c0,0.992 -0.768,1.568 -1.984,1.568l-1.264,0Z" style="fill:#fff;fill-rule:nonzero;"/><path d="M450.086,89.21c1.248,0 2.544,-0.416 3.488,-1.008l0,-2.272c-1.088,0.672 -2.336,1.2 -3.36,1.2c-1.744,0 -2.944,-1.408 -2.944,-3.888c0,-2.288 1.248,-3.728 2.944,-3.728c1.024,0 2.272,0.528 3.36,1.2l0,-2.272c-0.944,-0.592 -2.24,-1.008 -3.488,-1.008c-3.168,0 -5.184,2.336 -5.184,5.808c0,3.664 1.968,5.968 5.184,5.968Z" style="fill:#fff;fill-rule:nonzero;"/><path d="M18.851,89.226c3.072,0 5.008,-2.064 5.008,-4.992c-0,-0.368 -0.032,-0.704 -0.096,-1.008l-4.944,0l0.432,1.344l3.088,0c-0.176,2.064 -1.568,3.28 -3.488,3.28c-2.064,0 -3.456,-1.712 -3.456,-4.48c-0,-2.608 1.6,-4.352 3.888,-4.352c0.96,0 2.432,0.56 3.792,1.408l-0,-1.664c-1.088,-0.64 -2.56,-1.12 -3.792,-1.12c-3.28,0 -5.424,2.288 -5.424,5.728c-0,3.6 1.92,5.856 4.992,5.856Z" style="fill:#fff;fill-rule:nonzero;"/><path d="M29.379,89.194c0.944,0 2.064,-0.336 2.752,-0.768l-0,-1.328c-0.864,0.48 -1.872,0.848 -2.72,0.848c-1.344,0 -2.272,-1.008 -2.384,-2.704l5.504,0c0.048,-0.288 0.08,-0.64 0.08,-0.944c-0,-2.128 -1.344,-3.648 -3.328,-3.648c-2.256,0 -3.632,1.696 -3.632,4.256c-0,2.624 1.408,4.288 3.728,4.288Zm-2.32,-5.04c0.176,-1.488 0.944,-2.288 2.192,-2.288c1.232,0 1.984,0.928 1.984,2.288l-4.176,0Z" style="fill:#fff;fill-rule:nonzero;"/><path d="M36.979,89.162c1.92,0 3.136,-0.992 3.136,-2.496c-0,-1.504 -1.056,-2.048 -2.56,-2.448c-0.976,-0.256 -1.936,-0.48 -1.936,-1.248c-0,-0.544 0.48,-1.04 1.536,-1.04c0.72,0 1.712,0.288 2.624,0.688l-0,-1.344c-0.784,-0.336 -1.776,-0.56 -2.624,-0.56c-1.856,0 -2.848,1.056 -2.848,2.288c-0,1.728 1.344,2.064 2.656,2.416c0.992,0.272 1.808,0.512 1.808,1.312c-0,0.704 -0.672,1.2 -1.824,1.2c-0.704,0 -1.776,-0.32 -2.608,-0.704l-0,1.376c0.72,0.336 1.68,0.56 2.64,0.56Z" style="fill:#fff;fill-rule:nonzero;"/><path d="M45.347,89.066c0.688,0 1.488,-0.176 2.096,-0.432l-0,-1.28c-0.672,0.272 -1.44,0.464 -1.968,0.464c-0.784,0 -1.328,-0.592 -1.328,-1.408l-0,-4.256l3.072,0l-0,-1.216l-3.072,0l-0,-2.112l-1.344,0l-0,2.112l-1.6,0l-0,1.216l1.6,0l-0,4.352c-0,1.488 0.896,2.56 2.544,2.56Z" style="fill:#fff;fill-rule:nonzero;"/><path d="M49.859,79.53c0.512,0 0.944,-0.416 0.944,-0.944c-0,-0.512 -0.432,-0.944 -0.944,-0.944c-0.528,0 -0.944,0.432 -0.944,0.944c-0,0.528 0.416,0.944 0.944,0.944Zm-0.672,9.408l1.344,0l-0,-8l-1.344,0l-0,8Z" style="fill:#fff;fill-rule:nonzero;"/><path d="M56.595,79.786l2.272,-2.656l-1.872,0l-1.376,2.096l0.976,0.56Zm-0.176,9.44c2.304,0 3.728,-1.632 3.728,-4.352c-0,-2.624 -1.424,-4.224 -3.728,-4.224c-2.304,0 -3.728,1.6 -3.728,4.224c-0,2.72 1.424,4.352 3.728,4.352Zm-0,-1.248c-1.44,0 -2.32,-1.088 -2.32,-3.104c-0,-1.92 0.88,-2.976 2.32,-2.976c1.44,0 2.32,1.056 2.32,2.976c-0,2.016 -0.88,3.104 -2.32,3.104Z" style="fill:#fff;fill-rule:nonzero;"/><path d="M62.227,88.938l1.344,0l-0,-6.272c0.704,-0.4 1.6,-0.736 2.272,-0.736c1.024,0 1.696,0.736 1.696,1.824l-0,5.184l1.344,0l-0,-5.408c-0,-1.728 -1.12,-2.848 -2.816,-2.848c-0.912,0 -1.872,0.336 -2.576,0.752l-0.848,-0.496l-0.416,0l-0,8Z" style="fill:#fff;fill-rule:nonzero;"/><path d="M78.579,89.226c0.816,0 1.808,-0.448 2.432,-1.104l-0,0.816l1.28,0l-0,-11.968l-1.344,0l-0,4.56c-0.592,-0.512 -1.44,-0.88 -2.208,-0.88c-2.176,0 -3.552,1.632 -3.552,4.224c-0,2.688 1.28,4.352 3.392,4.352Zm0.128,-1.248c-1.216,0 -2.112,-1.12 -2.112,-3.104c-0,-1.856 0.944,-2.976 2.176,-2.976c0.656,0 1.52,0.4 2.176,0.976l-0,3.936c-0.688,0.688 -1.536,1.168 -2.24,1.168Z" style="fill:#fff;fill-rule:nonzero;"/><path d="M88.099,89.194c0.944,0 2.064,-0.336 2.752,-0.768l-0,-1.328c-0.864,0.48 -1.872,0.848 -2.72,0.848c-1.344,0 -2.272,-1.008 -2.384,-2.704l5.504,0c0.048,-0.288 0.08,-0.64 0.08,-0.944c-0,-2.128 -1.344,-3.648 -3.328,-3.648c-2.256,0 -3.632,1.696 -3.632,4.256c-0,2.624 1.408,4.288 3.728,4.288Zm-2.32,-5.04c0.176,-1.488 0.944,-2.288 2.192,-2.288c1.232,0 1.984,0.928 1.984,2.288l-4.176,0Z" style="fill:#fff;fill-rule:nonzero;"/><path d="M98.387,79.53c0.512,0 0.944,-0.416 0.944,-0.944c-0,-0.512 -0.432,-0.944 -0.944,-0.944c-0.528,0 -0.944,0.432 -0.944,0.944c-0,0.528 0.416,0.944 0.944,0.944Zm-0.672,9.408l1.344,0l-0,-8l-1.344,0l-0,8Z" style="fill:#fff;fill-rule:nonzero;"/><path d="M101.699,88.938l1.344,0l-0,-6.272c0.704,-0.4 1.6,-0.736 2.272,-0.736c1.024,0 1.696,0.736 1.696,1.824l-0,5.184l1.344,0l-0,-5.408c-0,-1.728 -1.12,-2.848 -2.816,-2.848c-0.912,0 -1.872,0.336 -2.576,0.752l-0.848,-0.496l-0.416,0l-0,8Z" style="fill:#fff;fill-rule:nonzero;"/><path d="M113.331,89.098l0.544,0l3.664,-8.16l-1.456,0l-2.48,5.712l-2.416,-5.712l-1.52,0l3.664,8.16Z" style="fill:#fff;fill-rule:nonzero;"/><path d="M122.163,89.194c0.944,0 2.064,-0.336 2.752,-0.768l-0,-1.328c-0.864,0.48 -1.872,0.848 -2.72,0.848c-1.344,0 -2.272,-1.008 -2.384,-2.704l5.504,0c0.048,-0.288 0.08,-0.64 0.08,-0.944c-0,-2.128 -1.344,-3.648 -3.328,-3.648c-2.256,0 -3.632,1.696 -3.632,4.256c-0,2.624 1.408,4.288 3.728,4.288Zm-2.32,-5.04c0.176,-1.488 0.944,-2.288 2.192,-2.288c1.232,0 1.984,0.928 1.984,2.288l-4.176,0Z" style="fill:#fff;fill-rule:nonzero;"/><path d="M127.443,88.938l1.344,0l-0,-6.272c0.704,-0.4 1.6,-0.736 2.272,-0.736c1.024,0 1.696,0.736 1.696,1.824l-0,5.184l1.344,0l-0,-5.408c-0,-1.728 -1.12,-2.848 -2.816,-2.848c-0.912,0 -1.872,0.336 -2.576,0.752l-0.848,-0.496l-0.416,0l-0,8Z" style="fill:#fff;fill-rule:nonzero;"/><path d="M139.683,89.066c0.688,0 1.488,-0.176 2.096,-0.432l-0,-1.28c-0.672,0.272 -1.44,0.464 -1.968,0.464c-0.784,0 -1.328,-0.592 -1.328,-1.408l-0,-4.256l3.072,0l-0,-1.216l-3.072,0l-0,-2.112l-1.344,0l-0,2.112l-1.6,0l-0,1.216l1.6,0l-0,4.352c-0,1.488 0.896,2.56 2.544,2.56Z" style="fill:#fff;fill-rule:nonzero;"/><path d="M145.747,89.226c0.8,0 1.744,-0.32 2.416,-0.8l0.848,0.512l0.416,0l-0,-5.632c-0,-1.568 -1.024,-2.624 -2.944,-2.624c-0.88,0 -2.048,0.272 -2.864,0.592l-0,1.344c0.88,-0.384 1.952,-0.72 2.704,-0.72c1.12,0 1.76,0.592 1.76,1.568l-0,0.688l-1.584,0c-2.4,0 -3.472,1.12 -3.472,2.496c-0,1.472 0.928,2.576 2.72,2.576Zm0.096,-1.216c-0.88,0 -1.456,-0.576 -1.456,-1.36c-0,-0.752 0.688,-1.408 2.288,-1.408l1.408,0l-0,2.016c-0.72,0.432 -1.552,0.752 -2.24,0.752Z" style="fill:#fff;fill-rule:nonzero;"/><path d="M151.923,88.938l1.344,0l-0,-4.832c0.88,-1.024 2.24,-1.76 3.616,-1.76l-0,-1.504c-1.536,0 -2.896,0.912 -3.648,2.016l-0,-1.92l-1.312,0l-0,8Z" style="fill:#fff;fill-rule:nonzero;"/><path d="M159.203,79.53c0.512,0 0.944,-0.416 0.944,-0.944c-0,-0.512 -0.432,-0.944 -0.944,-0.944c-0.528,0 -0.944,0.432 -0.944,0.944c-0,0.528 0.416,0.944 0.944,0.944Zm-0.672,9.408l1.344,0l-0,-8l-1.344,0l-0,8Z" style="fill:#fff;fill-rule:nonzero;"/><path d="M165.763,89.226c2.304,0 3.728,-1.632 3.728,-4.352c-0,-2.624 -1.424,-4.224 -3.728,-4.224c-2.304,0 -3.728,1.6 -3.728,4.224c-0,2.72 1.424,4.352 3.728,4.352Zm-0,-1.248c-1.44,0 -2.32,-1.088 -2.32,-3.104c-0,-1.92 0.88,-2.976 2.32,-2.976c1.44,0 2.32,1.056 2.32,2.976c-0,2.016 -0.88,3.104 -2.32,3.104Z" style="fill:#fff;fill-rule:nonzero;"/><path d="M176.355,92.522l1.376,0l4.704,-11.584l-1.44,0l-2.48,6.192l-2.368,-6.192l-1.504,0l3.168,7.952l-1.456,3.632Z" style="fill:#fff;fill-rule:nonzero;"/><path d="M191.155,89.194c0.864,0 1.856,-0.304 2.528,-0.736l-0,-1.408c-0.768,0.48 -1.728,0.896 -2.528,0.896c-1.328,0 -2.16,-1.152 -2.16,-3.072c-0,-1.84 0.832,-2.944 2.16,-2.944c0.752,0 1.76,0.416 2.528,0.896l-0,-1.408c-0.672,-0.432 -1.648,-0.736 -2.496,-0.736c-2.304,0 -3.6,1.584 -3.6,4.192c-0,2.688 1.28,4.32 3.568,4.32Z" style="fill:#fff;fill-rule:nonzero;"/><path d="M198.947,89.226c2.304,0 3.728,-1.632 3.728,-4.352c-0,-2.624 -1.424,-4.224 -3.728,-4.224c-2.304,0 -3.728,1.6 -3.728,4.224c-0,2.72 1.424,4.352 3.728,4.352Zm-0,-1.248c-1.44,0 -2.32,-1.088 -2.32,-3.104c-0,-1.92 0.88,-2.976 2.32,-2.976c1.44,0 2.32,1.056 2.32,2.976c-0,2.016 -0.88,3.104 -2.32,3.104Z" style="fill:#fff;fill-rule:nonzero;"/><path d="M204.755,88.938l1.344,0l-0,-6.272c0.704,-0.4 1.6,-0.736 2.272,-0.736c1.024,0 1.696,0.736 1.696,1.824l-0,5.184l1.344,0l-0,-5.408c-0,-1.728 -1.12,-2.848 -2.816,-2.848c-0.912,0 -1.872,0.336 -2.576,0.752l-0.848,-0.496l-0.416,0l-0,8Z" style="fill:#fff;fill-rule:nonzero;"/><path d="M216.995,89.066c0.688,0 1.488,-0.176 2.096,-0.432l-0,-1.28c-0.672,0.272 -1.44,0.464 -1.968,0.464c-0.784,0 -1.328,-0.592 -1.328,-1.408l-0,-4.256l3.072,0l-0,-1.216l-3.072,0l-0,-2.112l-1.344,0l-0,2.112l-1.6,0l-0,1.216l1.6,0l-0,4.352c-0,1.488 0.896,2.56 2.544,2.56Z" style="fill:#fff;fill-rule:nonzero;"/><path d="M220.755,88.938l1.344,0l-0,-4.832c0.88,-1.024 2.24,-1.76 3.616,-1.76l-0,-1.504c-1.536,0 -2.896,0.912 -3.648,2.016l-0,-1.92l-1.312,0l-0,8Z" style="fill:#fff;fill-rule:nonzero;"/><path d="M229.427,89.226c0.8,0 1.744,-0.32 2.416,-0.8l0.848,0.512l0.416,0l-0,-5.632c-0,-1.568 -1.024,-2.624 -2.944,-2.624c-0.88,0 -2.048,0.272 -2.864,0.592l-0,1.344c0.88,-0.384 1.952,-0.72 2.704,-0.72c1.12,0 1.76,0.592 1.76,1.568l-0,0.688l-1.584,0c-2.4,0 -3.472,1.12 -3.472,2.496c-0,1.472 0.928,2.576 2.72,2.576Zm0.096,-1.216c-0.88,0 -1.456,-0.576 -1.456,-1.36c-0,-0.752 0.688,-1.408 2.288,-1.408l1.408,0l-0,2.016c-0.72,0.432 -1.552,0.752 -2.24,0.752Z" style="fill:#fff;fill-rule:nonzero;"/><path d="M238.691,89.066c0.688,0 1.488,-0.176 2.096,-0.432l-0,-1.28c-0.672,0.272 -1.44,0.464 -1.968,0.464c-0.784,0 -1.328,-0.592 -1.328,-1.408l-0,-4.256l3.072,0l-0,-1.216l-3.072,0l-0,-2.112l-1.344,0l-0,2.112l-1.6,0l-0,1.216l1.6,0l-0,4.352c-0,1.488 0.896,2.56 2.544,2.56Z" style="fill:#fff;fill-rule:nonzero;"/><path d="M245.571,89.226c2.304,0 3.728,-1.632 3.728,-4.352c-0,-2.624 -1.424,-4.224 -3.728,-4.224c-2.304,0 -3.728,1.6 -3.728,4.224c-0,2.72 1.424,4.352 3.728,4.352Zm-0,-1.248c-1.44,0 -2.32,-1.088 -2.32,-3.104c-0,-1.92 0.88,-2.976 2.32,-2.976c1.44,0 2.32,1.056 2.32,2.976c-0,2.016 -0.88,3.104 -2.32,3.104Z" style="fill:#fff;fill-rule:nonzero;"/><path d="M253.699,89.162c1.92,0 3.136,-0.992 3.136,-2.496c-0,-1.504 -1.056,-2.048 -2.56,-2.448c-0.976,-0.256 -1.936,-0.48 -1.936,-1.248c-0,-0.544 0.48,-1.04 1.536,-1.04c0.72,0 1.712,0.288 2.624,0.688l-0,-1.344c-0.784,-0.336 -1.776,-0.56 -2.624,-0.56c-1.856,0 -2.848,1.056 -2.848,2.288c-0,1.728 1.344,2.064 2.656,2.416c0.992,0.272 1.808,0.512 1.808,1.312c-0,0.704 -0.672,1.2 -1.824,1.2c-0.704,0 -1.776,-0.32 -2.608,-0.704l-0,1.376c0.72,0.336 1.68,0.56 2.64,0.56Z" style="fill:#fff;fill-rule:nonzero;"/></svg>